<?xml version="1.0" encoding="utf-8"?>
<svg viewBox="0 0 106 106" xmlns="http://www.w3.org/2000/svg">
  <title>アセット 1</title>
  <g id="レイヤー_2" data-name="レイヤー 2" transform="matrix(1, 0, 0, 1, 0.000173, 0.000173)">
    <g id="レイヤー_1-2" data-name="レイヤー 1">
      <path class="cls-1" d="M95.4,0A10.54,10.54,0,0,1,106,10.6V95.4A10.54,10.54,0,0,1,95.4,106H10.6A10.54,10.54,0,0,1,0,95.4V10.6A10.54,10.54,0,0,1,10.6,0H95.4" style="fill: rgb(255, 255, 255);"/>
      <rect class="cls-1" x="10.6" y="10.6" width="84.8" height="84.8" style="fill: rgb(255, 255, 255);"/>
      <path class="cls-2" d="M95.4,95.4H10.6V10.6H95.4ZM95.4,0H10.6A10.54,10.54,0,0,0,0,10.6V95.4A10.54,10.54,0,0,0,10.6,106H95.4A10.54,10.54,0,0,0,106,95.4V10.6A10.54,10.54,0,0,0,95.4,0" style="fill: rgb(255, 229, 0);"/>
      <path class="cls-3" d="M20.8,67.9a11.69,11.69,0,0,0,4.5.8c6.1,0,6.1-4.9,6.1-8.3V29.1h9.4V65c0,5-3.2,12-12.9,12a25.39,25.39,0,0,1-7.2-.9V67.9Z" style="fill: rgb(35, 24, 21);"/>
      <path class="cls-3" d="M51,29.1H67.4c6.1,0,15.2,1.7,15.2,12.1,0,5.6-3.8,9.5-9.4,10.5v.1c6.4.6,10.8,4.9,10.8,10.7,0,11.8-10.6,13.6-16.6,13.6H51Zm9.4,19h3.8c4,0,8.9-.9,8.9-5.7,0-5.5-4.8-5.9-9.1-5.9H60.4Zm0,20.6h4.4c4.4,0,9.7-1.1,9.7-6.5,0-6.1-5-7.1-9.7-7.1H60.4Z" style="fill: rgb(35, 24, 21);"/>
    </g>
  </g>
</svg>