<?xml version="1.0" encoding="utf-8"?>
<svg viewBox="155.26 191.38 106 106" xmlns="http://www.w3.org/2000/svg">
  <title>jn</title>
  <g id="レイヤー_2" data-name="レイヤー 2" transform="matrix(1, 0, 0, 1, 155.260178, 191.38118)">
    <g id="レイヤー_1-2" data-name="レイヤー 1">
      <path class="cls-1" d="M95.4,0A10.54,10.54,0,0,1,106,10.6V95.4A10.54,10.54,0,0,1,95.4,106H10.6A10.54,10.54,0,0,1,0,95.4V10.6A10.54,10.54,0,0,1,10.6,0H95.4" style="fill: rgb(255, 255, 255);"/>
      <rect class="cls-1" x="10.6" y="10.6" width="84.8" height="84.8" style="fill: rgb(255, 255, 255);"/>
      <path class="cls-2" d="M95.4,95.4H10.6V10.6H95.4ZM95.4,0H10.6A10.54,10.54,0,0,0,0,10.6V95.4A10.54,10.54,0,0,0,10.6,106H95.4A10.54,10.54,0,0,0,106,95.4V10.6A10.54,10.54,0,0,0,95.4,0" style="fill: rgb(255, 228, 0);"/>
      <path class="cls-3" d="M17.1,67.9a11.69,11.69,0,0,0,4.5.8c6.1,0,6.1-4.9,6.1-8.3V29.1h9.4V65c0,5-3.2,12-12.9,12a25.39,25.39,0,0,1-7.2-.9V67.9Z" style="fill: rgb(35, 24, 21);"/>
      <polygon class="cls-3" points="46.8 29.1 58.4 29.1 76.3 64.3 76.4 64.3 76.4 29.1 85.4 29.1 85.4 76.1 73.9 76.1 55.9 41 55.8 41 55.8 76.1 46.8 76.1 46.8 29.1" style="fill: rgb(35, 24, 21);"/>
    </g>
  </g>
</svg>