<?xml version="1.0" encoding="utf-8"?>
<svg viewBox="0 0 106 106" xmlns="http://www.w3.org/2000/svg">
  <title>アセット 1</title>
  <g id="レイヤー_2" data-name="レイヤー 2" transform="matrix(1, 0, 0, 1, 0.00017, 0.000173)">
    <g id="レイヤー_1-2" data-name="レイヤー 1">
      <path class="cls-1" d="M95.4,0A10.54,10.54,0,0,1,106,10.6V95.4A10.54,10.54,0,0,1,95.4,106H10.6A10.54,10.54,0,0,1,0,95.4V10.6A10.54,10.54,0,0,1,10.6,0H95.4" style="fill: rgb(255, 255, 255);"/>
      <rect class="cls-1" x="10.6" y="10.6" width="84.8" height="84.8" style="fill: rgb(255, 255, 255);"/>
      <path class="cls-2" d="M95.4,95.4H10.6V10.6H95.4ZM95.4,0H10.6A10.54,10.54,0,0,0,0,10.6V95.4A10.54,10.54,0,0,0,10.6,106H95.4A10.54,10.54,0,0,0,106,95.4V10.6A10.54,10.54,0,0,0,95.4,0" style="fill: rgb(0, 172, 132);"/>
      <path class="cls-3" d="M17.1,67.9a11.69,11.69,0,0,0,4.5.8c6.1,0,6.1-4.9,6.1-8.3V29.1h9.4V65c0,5-3.2,12-12.9,12a25.39,25.39,0,0,1-7.2-.9V67.9Z" style="fill: rgb(35, 24, 21);"/>
      <path class="cls-3" d="M60.7,29.1H71.3l18.4,47H79.3l-4-10.8H56.2L52.1,76.1H42.3Zm5.2,9.5h-.1L59,58H72.7Z" style="fill: rgb(35, 24, 21);"/>
    </g>
  </g>
</svg>