<?xml version="1.0" encoding="utf-8"?>
<svg viewBox="0 0 106 106" xmlns="http://www.w3.org/2000/svg">
  <title>jo</title>
  <g id="レイヤー_2" data-name="レイヤー 2" transform="matrix(1, 0, 0, 1, 0.000173, 0.000172)">
    <g id="レイヤー_1-2" data-name="レイヤー 1">
      <rect class="cls-1" x="10.6" y="10.6" width="84.8" height="84.8" style="fill: rgb(255, 255, 255);"/>
      <path class="cls-2" d="M95.4,95.4H10.6V10.6H95.4ZM95.4,0H10.6A10.54,10.54,0,0,0,0,10.6V95.4A10.54,10.54,0,0,0,10.6,106H95.4A10.54,10.54,0,0,0,106,95.4V10.6A10.54,10.54,0,0,0,95.4,0" style="fill: rgb(0, 116, 190);"/>
      <path class="cls-3" d="M15.2,67.9a11.69,11.69,0,0,0,4.5.8c6.1,0,6.1-4.9,6.1-8.3V29.1h9.4V65c0,5-3.2,12-12.9,12a25.39,25.39,0,0,1-7.2-.9V67.9Z" style="fill: rgb(35, 24, 21);"/>
      <path class="cls-3" d="M66.1,28.3c14.8,0,23,10,23,24.2s-8.2,24.4-23,24.4c-15.1,0-23-10-23-24.4s8-24.2,23-24.2m0,41.2c9.6,0,13.2-8.6,13.2-17S75.5,35.7,66.1,35.7,52.9,44.2,52.9,52.5c0,8.5,3.6,17,13.2,17" style="fill: rgb(35, 24, 21);"/>
    </g>
  </g>
</svg>