<?xml version="1.0" encoding="UTF-8" standalone="no"?>
<svg
   viewBox="0 0 68 68"
   version="1.1"
   id="svg4"
   sodipodi:docname="ChuoSobuLocal.svg"
   xml:space="preserve"
   inkscape:version="1.3.2 (091e20e, 2023-11-25, custom)"
   xmlns:inkscape="http://www.inkscape.org/namespaces/inkscape"
   xmlns:sodipodi="http://sodipodi.sourceforge.net/DTD/sodipodi-0.dtd"
   xmlns="http://www.w3.org/2000/svg"
   xmlns:svg="http://www.w3.org/2000/svg"
   xmlns:rdf="http://www.w3.org/1999/02/22-rdf-syntax-ns#"
   xmlns:cc="http://creativecommons.org/ns#"
   xmlns:dc="http://purl.org/dc/elements/1.1/"><defs
     id="defs4" /><sodipodi:namedview
     id="namedview4"
     pagecolor="#ffffff"
     bordercolor="#000000"
     borderopacity="0.25"
     inkscape:showpageshadow="2"
     inkscape:pageopacity="0.0"
     inkscape:pagecheckerboard="0"
     inkscape:deskcolor="#d1d1d1"
     inkscape:zoom="3.1580882"
     inkscape:cx="40.372526"
     inkscape:cy="66.495925"
     inkscape:window-width="1219"
     inkscape:window-height="728"
     inkscape:window-x="1403"
     inkscape:window-y="147"
     inkscape:window-maximized="0"
     inkscape:current-layer="svg4" /><title
     id="title1">jy</title><path
     class="cls-2"
     d="M 59.6 59.6 L 8.4 59.6 L 8.4 8.4 L 59.6 8.4 L 59.6 59.6 Z M 59.6 2 L 8.4 2 C 4.86 1.98 1.98 4.86 2 8.4 L 2 59.6 C 1.98 63.14 4.86 66.02 8.4 66 L 59.6 66 C 63.14 66.02 66.02 63.14 66 59.6 L 66 8.4 C 66.02 4.86 63.14 1.98 59.6 2"
     style="fill: rgb(133, 192, 35); stroke-width: 4px; stroke: rgb(255, 255, 255);"
     id="path1" /><metadata
     id="metadata4"><rdf:RDF><cc:Work
         rdf:about=""><dc:title>jy</dc:title></cc:Work></rdf:RDF></metadata><g
     id="レイヤー_1-2-4"
     data-name="レイヤー 1"
     transform="matrix(0.60224217,0,0,0.60377441,2.1622411,1.9999123)"><path
       class="cls-1"
       d="M 95.4,0 A 10.54,10.54 0 0 1 106,10.6 V 95.4 A 10.54,10.54 0 0 1 95.4,106 H 10.6 A 10.54,10.54 0 0 1 0,95.4 V 10.6 A 10.54,10.54 0 0 1 10.6,0 h 84.8"
       style="fill:#ffffff"
       id="path1-6" /><rect
       class="cls-1"
       x="10.6"
       y="10.6"
       width="84.800003"
       height="84.800003"
       style="fill:#ffffff"
       id="rect1-6" /><path
       class="cls-2"
       d="M 95.4,95.4 H 10.6 V 10.6 H 95.4 Z M 95.4,0 H 10.6 A 10.54,10.54 0 0 0 0,10.6 V 95.4 A 10.54,10.54 0 0 0 10.6,106 H 95.4 A 10.54,10.54 0 0 0 106,95.4 V 10.6 A 10.54,10.54 0 0 0 95.4,0"
       style="fill:#ffe500"
       id="path2-1" /><path
       class="cls-3"
       d="m 20.8,67.9 a 11.69,11.69 0 0 0 4.5,0.8 c 6.1,0 6.1,-4.9 6.1,-8.3 V 29.1 h 9.4 V 65 c 0,5 -3.2,12 -12.9,12 a 25.39,25.39 0 0 1 -7.2,-0.9 v -8.2 z"
       style="fill:#231815"
       id="path3-0" /><path
       class="cls-3"
       d="m 51,29.1 h 16.4 c 6.1,0 15.2,1.7 15.2,12.1 0,5.6 -3.8,9.5 -9.4,10.5 v 0.1 C 79.6,52.4 84,56.7 84,62.5 84,74.3 73.4,76.1 67.4,76.1 H 51 Z m 9.4,19 h 3.8 c 4,0 8.9,-0.9 8.9,-5.7 0,-5.5 -4.8,-5.9 -9.1,-5.9 h -3.6 z m 0,20.6 h 4.4 c 4.4,0 9.7,-1.1 9.7,-6.5 0,-6.1 -5,-7.1 -9.7,-7.1 h -4.4 z"
       style="fill:#231815"
       id="path4-2" /></g></svg>
