<?xml version="1.0" encoding="utf-8"?>
<svg viewBox="0 0 68 68" xmlns="http://www.w3.org/2000/svg">
  <rect x="2" y="2" width="64" height="64" style="fill: rgb(0, 170, 142); stroke-width: 4px; stroke: rgb(255, 255, 255);" rx="6.25" ry="6.25"/>
  <g transform="matrix(1.13979, 0, 0, 1.13979, -100.771454, -83.825623)">
    <title>To DT</title>
    <rect x="90.17" y="75.3" width="56.15" height="56.15" style="stroke-width: 4.87488px; fill: rgb(0, 170, 142);" rx="6.25" ry="6.25"/>
    <path d="M 99.94 114.25 L 99.94 92.49 L 106.23 92.49 C 114.25 92.49 118.26 96.02 118.26 103.1 C 118.26 106.46 117.15 109.16 114.92 111.19 C 112.7 113.23 109.71 114.25 105.97 114.25 L 99.94 114.25 Z M 103.54 95.55 L 103.54 111.2 L 106.42 111.2 C 108.96 111.2 110.94 110.5 112.35 109.11 C 113.76 107.71 114.47 105.74 114.47 103.19 C 114.47 98.1 111.83 95.55 106.56 95.55 L 103.54 95.55 Z M 136.55 95.55 L 130.3 95.55 L 130.3 114.25 L 126.69 114.25 L 126.69 95.55 L 120.45 95.55 L 120.45 92.49 L 136.55 92.49 L 136.55 95.55 Z" style="fill: rgb(255, 255, 255); white-space: pre; stroke: rgb(255, 255, 255); stroke-width: 0.6px;"/>
  </g>
</svg>