<?xml version="1.0" encoding="utf-8"?>
<svg viewBox="0 0 68 68" xmlns="http://www.w3.org/2000/svg">
  <path d="M 30.54 2 L 37.45 2 C 45.05 2.17 52.69 5.39 57.63 10.33 C 62.59 15.25 65.83 22.86 66 30.43 L 66 37.58 C 65.83 45.16 62.59 52.75 57.63 57.68 C 52.69 62.61 45.05 65.84 37.45 66 L 30.54 66 C 22.93 65.84 15.31 62.61 10.35 57.68 C 5.41 52.75 2.16 45.16 2 37.58 L 2 30.43 C 2.16 22.86 5.41 15.25 10.35 10.33 C 15.31 5.39 22.93 2.17 30.54 2 Z M 15.82 15.76 C 11.84 19.74 9.56 24.42 9.72 30.43 L 9.72 37.58 C 9.56 43.58 11.84 48.28 15.82 52.24 C 19.79 56.2 24.52 58.47 30.54 58.32 L 37.45 58.32 C 43.48 58.47 48.19 56.2 52.17 52.24 C 56.16 48.28 58.44 43.58 58.27 37.58 L 58.27 30.43 C 58.44 24.42 56.16 19.74 52.17 15.76 C 48.19 11.8 43.48 9.53 37.45 9.68 L 30.54 9.68 C 24.52 9.53 19.79 11.8 15.82 15.76 Z" style="fill: rgb(251, 85, 30); stroke-width: 4px; stroke: rgb(255, 255, 255);"/>
  <g transform="matrix(1.58455, 0, 0, 1.57791, 954.853333, -572.769531)" style="">
    <title>Od OH</title>
    <rect x="-598.906" y="366.697" width="35.517" height="35.688" style="stroke-width: 4.87488px; fill: rgb(255, 240, 202);" rx="15.579" ry="15.579"/>
    <path d="M -583.33 364.26 L -578.97 364.26 C -574.17 364.37 -569.35 366.41 -566.23 369.54 C -563.1 372.66 -561.06 377.48 -560.95 382.28 L -560.95 386.81 C -561.06 391.61 -563.1 396.42 -566.23 399.55 C -569.35 402.67 -574.17 404.72 -578.97 404.82 L -583.33 404.82 C -588.13 404.72 -592.94 402.67 -596.07 399.55 C -599.19 396.42 -601.24 391.61 -601.34 386.81 L -601.34 382.28 C -601.24 377.48 -599.19 372.66 -596.07 369.54 C -592.94 366.41 -588.13 364.37 -583.33 364.26 Z M -592.62 372.98 C -595.13 375.5 -596.57 378.47 -596.47 382.28 L -596.47 386.81 C -596.57 390.61 -595.13 393.59 -592.62 396.1 C -590.11 398.61 -587.13 400.05 -583.33 399.95 L -578.97 399.95 C -575.16 400.05 -572.19 398.61 -569.68 396.1 C -567.16 393.59 -565.72 390.61 -565.83 386.81 L -565.83 382.28 C -565.72 378.47 -567.16 375.5 -569.68 372.98 C -572.19 370.47 -575.16 369.03 -578.97 369.13 L -583.33 369.13 C -587.13 369.03 -590.11 370.47 -592.62 372.98 Z" style="fill: rgb(251, 85, 30);"/>
    <path d="M -593 384.61 C -593 383.36 -592.81 382.31 -592.44 381.46 C -592.16 380.83 -591.78 380.27 -591.29 379.77 C -590.81 379.27 -590.28 378.91 -589.7 378.66 C -588.94 378.34 -588.05 378.18 -587.05 378.18 C -585.24 378.18 -583.79 378.74 -582.7 379.87 C -581.61 380.99 -581.07 382.55 -581.07 384.56 C -581.07 386.54 -581.61 388.1 -582.69 389.22 C -583.77 390.34 -585.21 390.9 -587.02 390.9 C -588.85 390.9 -590.3 390.34 -591.38 389.23 C -592.46 388.11 -593 386.57 -593 384.61 Z M -590.44 384.53 C -590.44 385.92 -590.12 386.98 -589.48 387.7 C -588.83 388.42 -588.02 388.78 -587.03 388.78 C -586.04 388.78 -585.22 388.42 -584.59 387.71 C -583.95 386.99 -583.64 385.92 -583.64 384.5 C -583.64 383.09 -583.95 382.04 -584.56 381.34 C -585.18 380.65 -586 380.3 -587.03 380.3 C -588.05 380.3 -588.88 380.65 -589.5 381.35 C -590.13 382.06 -590.44 383.12 -590.44 384.53 Z M -579.12 390.69 L -579.12 378.39 L -576.64 378.39 L -576.64 383.23 L -571.77 383.23 L -571.77 378.39 L -569.29 378.39 L -569.29 390.69 L -571.77 390.69 L -571.77 385.31 L -576.64 385.31 L -576.64 390.69 L -579.12 390.69 Z" style="white-space: pre; stroke-width: 0.25px; fill: rgb(70, 41, 22); stroke: rgb(70, 41, 22);"/>
  </g>
</svg>