<?xml version="1.0" encoding="utf-8"?>
<svg viewBox="0 0 68 68" xmlns="http://www.w3.org/2000/svg">
  <rect style="stroke-width: 1.91919px; paint-order: fill; fill: rgb(255, 255, 255);" x="-0.01" y="0" width="68.01" height="68.01" rx="13" ry="13"/>
  <g transform="matrix(2.084215, 0, 0, 2.084215, -151.902603, -215.504501)">
    <title>To IK</title>
    <rect x="73.842" y="104.358" width="30.707" height="30.707" style="stroke-width: 4.87488px; fill: rgb(238, 134, 169);" rx="6.246" ry="6.246"/>
    <path d="M 89.364 125.562 L 89.364 113.862 L 91.541 113.862 L 91.541 118.644 L 95.758 113.862 L 98.428 113.862 L 94.352 118.419 L 98.779 125.562 L 96.25 125.562 L 92.807 119.994 L 91.541 121.4 L 91.541 125.562 L 89.364 125.562 Z" style="fill: rgb(255, 255, 255); white-space: pre; stroke: rgb(255, 255, 255); stroke-width: 0.444602px;"/>
    <path d="M 81.367 114.108 L 85.851 114.108 L 85.851 115.329 L 84.539 115.329 L 84.539 123.899 L 85.851 123.899 L 85.851 125.12 L 81.367 125.12 L 81.367 123.899 L 82.679 123.899 L 82.679 115.329 L 81.367 115.329 L 81.367 114.108 Z" style="white-space: pre; fill: rgb(255, 255, 255); stroke: rgb(255, 255, 255);"/>
  </g>
</svg>