<?xml version="1.0" encoding="utf-8"?>
<svg viewBox="0 0 68 68" xmlns="http://www.w3.org/2000/svg">
  <g>
    <path id="path658" style="fill: rgb(29, 32, 136); fill-opacity: 1; fill-rule: nonzero; stroke-width: 4px; stroke: rgb(255, 255, 255);" d="M 37.68 54.46 C 37.68 42.65 37.68 42.65 37.68 42.65 C 36.62 43.17 35.31 43.45 34.02 43.45 C 32.69 43.45 31.38 43.17 30.08 42.65 C 30.08 54.46 30.08 54.46 30.08 54.46 C 22.47 52.89 16.18 47.13 14.07 39.76 C 6.19 39.76 6.19 39.76 6.19 39.76 C 8.58 51.32 18.26 60.49 30.08 62.06 C 30.08 66 30.08 66 30.08 66 C 37.68 66 37.68 66 37.68 66 C 37.68 62.06 37.68 62.06 37.68 62.06 C 49.74 60.49 59.19 51.32 61.54 39.76 C 53.94 39.76 53.94 39.76 53.94 39.76 C 51.86 47.13 45.55 52.89 37.68 54.46 Z"/>
    <path id="path660" style="fill: rgb(29, 32, 136); fill-opacity: 1; fill-rule: nonzero; stroke-width: 4px; stroke: rgb(255, 255, 255);" d="M 30.08 13.81 C 30.08 25.35 30.08 25.35 30.08 25.35 C 31.38 24.83 32.69 24.55 34.02 24.55 C 35.31 24.55 36.62 24.83 37.68 25.35 C 37.68 13.81 37.68 13.81 37.68 13.81 C 45.55 15.11 51.86 20.89 53.94 28.49 C 61.54 28.49 61.54 28.49 61.54 28.49 C 59.19 16.68 49.74 7.76 37.68 6.19 C 37.68 2 37.68 2 37.68 2 C 30.08 2 30.08 2 30.08 2 C 30.08 6.19 30.08 6.19 30.08 6.19 C 18.26 7.76 8.58 16.68 6.19 28.49 C 14.07 28.49 14.07 28.49 14.07 28.49 C 16.18 20.89 22.47 15.11 30.08 13.81 Z"/>
    <path id="path662" style="fill: rgb(29, 32, 136); fill-opacity: 1; fill-rule: nonzero; stroke-width: 4px; stroke: rgb(255, 255, 255);" d="M 66 30.34 C 62.07 30.34 62.07 30.34 62.07 30.34 C 50.53 30.34 50.53 30.34 50.53 30.34 C 49.22 24.55 45.03 20.09 39.52 18.25 C 39.52 26.65 39.52 26.65 39.52 26.65 C 41.87 28.24 43.45 31.11 43.45 34 C 43.45 37.16 41.87 39.76 39.52 41.6 C 39.52 50 39.52 50 39.52 50 C 45.03 48.16 49.22 43.45 50.53 37.94 C 62.07 37.94 62.07 37.94 62.07 37.94 C 66 37.94 66 37.94 66 37.94 L 66 30.34 Z"/>
    <path id="path664" style="fill: rgb(29, 32, 136); fill-opacity: 1; fill-rule: nonzero; stroke-width: 4px; stroke: rgb(255, 255, 255);" d="M 17.49 37.94 C 18.78 43.45 23.01 48.16 28.25 50 C 28.25 41.6 28.25 41.6 28.25 41.6 C 26.13 39.76 24.57 37.16 24.57 34 C 24.57 31.11 26.13 28.24 28.25 26.65 C 28.25 18.25 28.25 18.25 28.25 18.25 C 23.01 20.09 18.78 24.55 17.49 30.34 C 5.66 30.34 5.66 30.34 5.66 30.34 C 2 30.34 2 30.34 2 30.34 C 2 37.94 2 37.94 2 37.94 C 5.66 37.94 5.66 37.94 5.66 37.94 L 17.49 37.94 Z"/>
  </g>
  <g>
    <path id="path-1" style="fill:#1d2088;fill-opacity:1;fill-rule:nonzero;stroke:none" d="M 37.68 54.46 C 37.68 42.65 37.68 42.65 37.68 42.65 C 36.62 43.17 35.31 43.45 34.02 43.45 C 32.69 43.45 31.38 43.17 30.08 42.65 C 30.08 54.46 30.08 54.46 30.08 54.46 C 22.47 52.89 16.18 47.13 14.07 39.76 C 6.19 39.76 6.19 39.76 6.19 39.76 C 8.58 51.32 18.26 60.49 30.08 62.06 C 30.08 66 30.08 66 30.08 66 C 37.68 66 37.68 66 37.68 66 C 37.68 62.06 37.68 62.06 37.68 62.06 C 49.74 60.49 59.19 51.32 61.54 39.76 C 53.94 39.76 53.94 39.76 53.94 39.76 C 51.86 47.13 45.55 52.89 37.68 54.46 Z"/>
    <path id="path-2" style="fill:#1d2088;fill-opacity:1;fill-rule:nonzero;stroke:none" d="M 30.08 13.81 C 30.08 25.35 30.08 25.35 30.08 25.35 C 31.38 24.83 32.69 24.55 34.02 24.55 C 35.31 24.55 36.62 24.83 37.68 25.35 C 37.68 13.81 37.68 13.81 37.68 13.81 C 45.55 15.11 51.86 20.89 53.94 28.49 C 61.54 28.49 61.54 28.49 61.54 28.49 C 59.19 16.68 49.74 7.76 37.68 6.19 C 37.68 2 37.68 2 37.68 2 C 30.08 2 30.08 2 30.08 2 C 30.08 6.19 30.08 6.19 30.08 6.19 C 18.26 7.76 8.58 16.68 6.19 28.49 C 14.07 28.49 14.07 28.49 14.07 28.49 C 16.18 20.89 22.47 15.11 30.08 13.81 Z"/>
    <path id="path-3" style="fill:#1d2088;fill-opacity:1;fill-rule:nonzero;stroke:none" d="M 66 30.34 C 62.07 30.34 62.07 30.34 62.07 30.34 C 50.53 30.34 50.53 30.34 50.53 30.34 C 49.22 24.55 45.03 20.09 39.52 18.25 C 39.52 26.65 39.52 26.65 39.52 26.65 C 41.87 28.24 43.45 31.11 43.45 34 C 43.45 37.16 41.87 39.76 39.52 41.6 C 39.52 50 39.52 50 39.52 50 C 45.03 48.16 49.22 43.45 50.53 37.94 C 62.07 37.94 62.07 37.94 62.07 37.94 C 66 37.94 66 37.94 66 37.94 L 66 30.34 Z"/>
    <path id="path-4" style="fill:#1d2088;fill-opacity:1;fill-rule:nonzero;stroke:none" d="M 17.49 37.94 C 18.78 43.45 23.01 48.16 28.25 50 C 28.25 41.6 28.25 41.6 28.25 41.6 C 26.13 39.76 24.57 37.16 24.57 34 C 24.57 31.11 26.13 28.24 28.25 26.65 C 28.25 18.25 28.25 18.25 28.25 18.25 C 23.01 20.09 18.78 24.55 17.49 30.34 C 5.66 30.34 5.66 30.34 5.66 30.34 C 2 30.34 2 30.34 2 30.34 C 2 37.94 2 37.94 2 37.94 C 5.66 37.94 5.66 37.94 5.66 37.94 L 17.49 37.94 Z"/>
  </g>
</svg>