<?xml version="1.0" encoding="utf-8"?>
<svg viewBox="0 0 68 68" xmlns="http://www.w3.org/2000/svg">
  <path d="M 66 33.93 C 66 51.71 51.64 66 34 66 C 16.36 66 2 51.71 2 33.93 C 2 16.29 16.36 2 34 2 C 51.64 2 66 16.29 66 33.93" style="fill: rgb(55, 195, 239); fill-opacity: 1; stroke-width: 4px; stroke: rgb(255, 255, 255);"/>
  <path d="M 66 33.93 C 66 51.71 51.64 66 34 66 C 16.36 66 2 51.71 2 33.93 C 2 16.29 16.36 2 34 2 C 51.64 2 66 16.29 66 33.93" style="fill: rgb(55, 195, 239); fill-opacity: 1;"/>
  <path d="M 57.96 33.97 C 57.96 47.27 47.3 58 34 58 C 20.77 58 10.04 47.27 10.04 33.97 C 10.04 20.81 20.77 10 34 10 C 47.3 10 57.96 20.81 57.96 33.97" style="fill: rgb(255, 255, 255); fill-opacity: 1;"/>
  <path d="M 14.87 23.09 L 19.21 23.09 L 19.21 32.48 L 27.03 23.09 L 32.44 23.09 L 23.48 33.4 L 32.86 44.85 L 27.17 44.85 L 19.28 34.82 L 19.21 34.82 L 19.21 44.85 L 14.87 44.85 L 14.87 23.09 Z" style="fill: rgb(27, 42, 108); fill-opacity: 1;"/>
  <path d="M 37.34 23.09 L 41.68 23.09 L 41.68 32.48 L 49.57 23.09 L 54.91 23.09 L 45.95 33.4 L 55.19 44.85 L 49.57 44.85 L 41.68 34.82 L 41.68 44.85 L 37.34 44.85 L 37.34 23.09 Z" style="fill: rgb(27, 42, 108); fill-opacity: 1;"/>
</svg>