<?xml version="1.0" encoding="utf-8"?>
<svg viewBox="0 0 270.73 68" xmlns="http://www.w3.org/2000/svg">
  <g transform="matrix(3.794943, 0, 0, 3.794943, -421.912842, -362.3526)">
    <path d="M 162.05 96.17 L 156.44 96.17 L 150.13 112.72 L 155.73 112.72 L 162.05 96.17 Z" style="fill: rgb(20, 54, 125); fill-opacity: 1; stroke-width: 1.05403px; paint-order: fill; stroke-linejoin: round; stroke: rgb(255, 255, 255);"/>
    <path d="M 154.04 96.17 L 152.75 99.64 L 144.14 99.64 L 143.02 102.59 L 150.87 102.59 L 149.56 105.92 L 141.74 105.92 L 140.51 109.16 L 149.16 109.16 L 147.76 112.72 L 134.08 112.72 L 140.4 96.17 L 154.04 96.17 Z" style="fill: rgb(20, 54, 125); fill-opacity: 1; stroke-width: 1.05403px; paint-order: fill; stroke-linejoin: round; stroke: rgb(255, 255, 255);"/>
    <path d="M 125.99 96.17 L 119.62 96.17 L 113.27 112.72 L 119.64 112.72 L 120.86 109.55 L 118.42 102.65 L 125.27 98.05 L 125.99 96.17 Z" style="fill: rgb(20, 54, 125); fill-opacity: 1; stroke-width: 1.05403px; paint-order: fill; stroke-linejoin: round; stroke: rgb(255, 255, 255);"/>
    <path d="M 132.97 112.72 L 125.85 112.72 L 122.48 102.65 L 129.38 102.65 L 132.97 112.72 Z" style="fill: rgb(20, 54, 125); fill-opacity: 1; stroke-width: 1.05403px; paint-order: fill; stroke-linejoin: round; stroke: rgb(255, 255, 255);"/>
    <path d="M 139.19 96.17 L 132.11 96.17 L 122.48 102.66 L 129.38 102.66 L 139.19 96.17 Z" style="fill: rgb(228, 47, 153); fill-opacity: 1; stroke-width: 1.05403px; paint-order: fill; stroke-linejoin: round; stroke: rgb(255, 255, 255);"/>
    <path d="M 175.04 101.29 C 175.04 101.29 174.9 102.21 173.27 106.07 C 173.27 106.07 172.88 106.93 172.5 107.51 C 172.5 107.51 171.7 108.86 169.74 108.99 C 169.74 108.99 168.42 109.11 167.03 109 C 167.03 109 165.2 109.07 165.6 107.38 L 165.94 106.23 C 165.94 106.23 166.89 103.6 167.71 101.87 C 168.54 100.14 169.8 99.94 170.4 99.83 C 170.4 99.83 172.14 99.7 173.68 99.81 C 173.68 99.81 175.37 99.86 175.04 101.29 M 164.05 112.73 C 166.15 112.99 169.69 112.82 169.69 112.82 C 174.22 112.74 175.97 110.52 175.97 110.52 C 176.87 109.7 177.77 107.77 177.77 107.77 C 178.93 105.33 179.92 102.4 179.92 102.4 C 180.44 100.88 180.42 99.78 180.42 99.78 C 180.49 98.64 179.8 97.74 179.8 97.74 C 178.81 96.13 176.03 96.1 176.03 96.1 C 174.01 95.91 170.44 96.08 170.44 96.08 C 166.99 96.17 165.3 97.75 165.3 97.75 C 163.65 99.06 162.79 101.3 162.79 101.3 L 161.88 103.44 C 160.89 105.92 160.33 108.02 160.33 108.02 C 160.33 108.02 159.01 112.22 164.05 112.73" style="fill: rgb(20, 54, 125); fill-opacity: 1; stroke-width: 1.05403px; paint-order: fill; stroke-linejoin: round; stroke: rgb(255, 255, 255);"/>
  </g>
  <g transform="matrix(3.794943, 0, 0, 3.794943, -421.912842, -362.3526)">
    <path d="M 162.05 96.17 L 156.44 96.17 L 150.13 112.72 L 155.73 112.72 L 162.05 96.17 Z" style="fill: rgb(20, 54, 125); fill-opacity: 1;"/>
    <path d="M 154.04 96.17 L 152.75 99.64 L 144.14 99.64 L 143.02 102.59 L 150.87 102.59 L 149.56 105.92 L 141.74 105.92 L 140.51 109.16 L 149.16 109.16 L 147.76 112.72 L 134.08 112.72 L 140.4 96.17 L 154.04 96.17 Z" style="fill: rgb(20, 54, 125); fill-opacity: 1;"/>
    <path d="M 125.99 96.17 L 119.62 96.17 L 113.27 112.72 L 119.64 112.72 L 120.86 109.55 L 118.42 102.65 L 125.27 98.05 L 125.99 96.17 Z" style="fill: rgb(20, 54, 125); fill-opacity: 1;"/>
    <path d="M 132.97 112.72 L 125.85 112.72 L 122.48 102.65 L 129.38 102.65 L 132.97 112.72 Z" style="fill: rgb(20, 54, 125); fill-opacity: 1;"/>
    <path d="M 139.19 96.17 L 132.11 96.17 L 122.48 102.66 L 129.38 102.66 L 139.19 96.17 Z" style="fill: rgb(228, 47, 153); fill-opacity: 1;"/>
    <path d="M 175.04 101.29 C 175.04 101.29 174.9 102.21 173.27 106.07 C 173.27 106.07 172.88 106.93 172.5 107.51 C 172.5 107.51 171.7 108.86 169.74 108.99 C 169.74 108.99 168.42 109.11 167.03 109 C 167.03 109 165.2 109.07 165.6 107.38 L 165.94 106.23 C 165.94 106.23 166.89 103.6 167.71 101.87 C 168.54 100.14 169.8 99.94 170.4 99.83 C 170.4 99.83 172.14 99.7 173.68 99.81 C 173.68 99.81 175.37 99.86 175.04 101.29 M 164.05 112.73 C 166.15 112.99 169.69 112.82 169.69 112.82 C 174.22 112.74 175.97 110.52 175.97 110.52 C 176.87 109.7 177.77 107.77 177.77 107.77 C 178.93 105.33 179.92 102.4 179.92 102.4 C 180.44 100.88 180.42 99.78 180.42 99.78 C 180.49 98.64 179.8 97.74 179.8 97.74 C 178.81 96.13 176.03 96.1 176.03 96.1 C 174.01 95.91 170.44 96.08 170.44 96.08 C 166.99 96.17 165.3 97.75 165.3 97.75 C 163.65 99.06 162.79 101.3 162.79 101.3 L 161.88 103.44 C 160.89 105.92 160.33 108.02 160.33 108.02 C 160.33 108.02 159.01 112.22 164.05 112.73" style="fill: rgb(20, 54, 125); fill-opacity: 1;"/>
  </g>
</svg>