<?xml version="1.0" encoding="UTF-8" standalone="no"?>
<svg
   viewBox="0 0 68 68"
   version="1.1"
   id="svg4"
   sodipodi:docname="Keiyo.svg"
   xml:space="preserve"
   inkscape:version="1.3.2 (091e20e, 2023-11-25, custom)"
   xmlns:inkscape="http://www.inkscape.org/namespaces/inkscape"
   xmlns:sodipodi="http://sodipodi.sourceforge.net/DTD/sodipodi-0.dtd"
   xmlns="http://www.w3.org/2000/svg"
   xmlns:svg="http://www.w3.org/2000/svg"
   xmlns:rdf="http://www.w3.org/1999/02/22-rdf-syntax-ns#"
   xmlns:cc="http://creativecommons.org/ns#"
   xmlns:dc="http://purl.org/dc/elements/1.1/"><defs
     id="defs4" /><sodipodi:namedview
     id="namedview4"
     pagecolor="#ffffff"
     bordercolor="#000000"
     borderopacity="0.25"
     inkscape:showpageshadow="2"
     inkscape:pageopacity="0.0"
     inkscape:pagecheckerboard="0"
     inkscape:deskcolor="#d1d1d1"
     inkscape:zoom="8.9324224"
     inkscape:cx="30.842697"
     inkscape:cy="48.698996"
     inkscape:window-width="1219"
     inkscape:window-height="728"
     inkscape:window-x="1403"
     inkscape:window-y="147"
     inkscape:window-maximized="0"
     inkscape:current-layer="svg4" /><title
     id="title1">jy</title><path
     class="cls-2"
     d="M 59.6 59.6 L 8.4 59.6 L 8.4 8.4 L 59.6 8.4 L 59.6 59.6 Z M 59.6 2 L 8.4 2 C 4.86 1.98 1.98 4.86 2 8.4 L 2 59.6 C 1.98 63.14 4.86 66.02 8.4 66 L 59.6 66 C 63.14 66.02 66.02 63.14 66 59.6 L 66 8.4 C 66.02 4.86 63.14 1.98 59.6 2"
     style="fill: rgb(133, 192, 35); stroke-width: 4px; stroke: rgb(255, 255, 255);"
     id="path1" /><metadata
     id="metadata4"><rdf:RDF><cc:Work
         rdf:about=""><dc:title>jy</dc:title></cc:Work></rdf:RDF></metadata><g
     id="レイヤー_1-2"
     data-name="レイヤー 1"
     transform="matrix(0.60377243,0,0,0.60377321,2.0000349,2.0000398)"><path
       class="cls-1"
       d="M 95.4,0 A 10.54,10.54 0 0 1 106,10.6 V 95.4 A 10.54,10.54 0 0 1 95.4,106 H 10.6 A 10.54,10.54 0 0 1 0,95.4 V 10.6 A 10.54,10.54 0 0 1 10.6,0 h 84.8"
       style="fill:#ffffff"
       id="path1-8" /><rect
       class="cls-1"
       x="10.6"
       y="10.6"
       width="84.800003"
       height="84.800003"
       style="fill:#ffffff"
       id="rect1-7" /><path
       class="cls-2"
       d="M 95.4,95.4 H 10.6 V 10.6 H 95.4 Z M 95.4,0 H 10.6 A 10.54,10.54 0 0 0 0,10.6 V 95.4 A 10.54,10.54 0 0 0 10.6,106 H 95.4 A 10.54,10.54 0 0 0 106,95.4 V 10.6 A 10.54,10.54 0 0 0 95.4,0"
       style="fill:#cf1225"
       id="path2" /><path
       class="cls-3"
       d="m 22.7,67.9 a 11.69,11.69 0 0 0 4.5,0.8 c 6.1,0 6.1,-4.9 6.1,-8.3 V 29.1 h 9.4 V 65 c 0,5 -3.2,12 -12.9,12 a 25.39,25.39 0 0 1 -7.2,-0.9 v -8.2 z"
       style="fill:#231815"
       id="path3" /><polygon
       class="cls-3"
       points="80.7,68.7 80.7,76.1 52.8,76.1 52.8,29.1 80.6,29.1 80.6,36.5 62.3,36.5 62.3,48.1 79,48.1 79,55.5 62.3,55.5 62.3,68.7 "
       style="fill:#231815"
       id="polygon3" /></g></svg>
