<?xml version="1.0" encoding="utf-8"?>
<svg viewBox="0 0 68 68" xmlns="http://www.w3.org/2000/svg">
  <path d="M 15.01 2 L 52.98 2 C 60.18 2 66.01 7.83 66.01 15.02 L 66.01 52.98 C 66.01 60.17 60.18 66 52.98 66 L 15.01 66 C 7.82 65.99 2 60.16 2 52.98 L 2 15.02 C 2 7.84 7.82 2.01 15.01 2 Z" style="fill: rgb(0, 155, 211); stroke-width: 4px; stroke: rgb(255, 255, 255);"/>
  <g transform="matrix(2.084216, 0, 0, 2.084216, -98.665565, -227.893219)">
    <title>To MG</title>
    <path d="M 54.54 110.3 H 72.76 A 6.25 6.25 0 0 1 79.01 116.55 V 134.76 A 6.25 6.25 0 0 1 72.76 141.01 H 54.54 A 6.25 6.25 0 0 1 48.3 134.76 V 116.55 A 6.25 6.25 0 0 1 54.54 110.3 Z" style="stroke-width: 4.87488px; fill: rgb(0, 155, 211);"/>
    <path d="M 54.54 107.86 L 72.76 107.86 C 74.98 107.97 77.46 108.97 78.9 110.41 C 80.34 111.85 81.34 114.33 81.45 116.55 L 81.45 134.76 C 81.34 136.98 80.34 139.46 78.9 140.9 C 77.46 142.34 74.98 143.34 72.76 143.45 L 54.54 143.45 C 52.31 143.34 49.84 142.34 48.4 140.9 C 46.97 139.46 45.97 136.98 45.86 134.76 L 45.86 116.55 C 45.97 114.33 46.97 111.85 48.4 110.41 C 49.84 108.97 52.32 107.97 54.54 107.86 Z M 51.85 113.86 C 51.03 114.68 50.63 115.32 50.74 116.55 L 50.74 134.76 C 50.63 135.99 51.03 136.63 51.85 137.45 C 52.67 138.28 53.32 138.68 54.54 138.57 L 72.76 138.57 C 73.99 138.68 74.63 138.28 75.46 137.46 C 76.28 136.63 76.68 135.99 76.57 134.76 L 76.57 116.55 C 76.68 115.32 76.28 114.68 75.46 113.85 C 74.63 113.03 73.99 112.63 72.76 112.74 L 54.54 112.74 C 53.31 112.63 52.67 113.03 51.85 113.86 Z" style="fill: none;"/>
    <path d="M 54.55 107.86 L 72.76 107.86 C 74.98 107.97 77.46 108.97 78.9 110.41 C 80.34 111.85 81.34 114.33 81.44 116.55 L 81.44 134.76 C 81.34 136.99 80.34 139.47 78.9 140.9 C 77.46 142.34 74.98 143.34 72.76 143.45 L 54.55 143.45 C 52.32 143.34 49.84 142.34 48.4 140.9 C 46.97 139.47 45.97 136.99 45.86 134.76 L 45.86 116.55 C 45.97 114.33 46.97 111.85 48.4 110.41 C 49.84 108.97 52.32 107.97 54.55 107.86 Z M 51.85 113.85 C 51.03 114.68 50.63 115.32 50.74 116.55 L 50.74 134.76 C 50.63 135.99 51.03 136.63 51.85 137.46 C 52.68 138.28 53.32 138.68 54.55 138.57 L 72.76 138.57 C 73.99 138.68 74.63 138.28 75.45 137.46 C 76.28 136.63 76.67 135.99 76.57 134.76 L 76.57 116.55 C 76.67 115.32 76.28 114.68 75.45 113.85 C 74.63 113.03 73.99 112.63 72.76 112.74 L 54.55 112.74 C 53.32 112.63 52.68 113.03 51.85 113.85 Z" style="fill: none;"/>
    <path d="M 54.55 107.86 L 72.76 107.86 C 74.98 107.97 77.46 108.97 78.9 110.41 C 80.34 111.85 81.34 114.33 81.44 116.55 L 81.44 134.76 C 81.34 136.99 80.34 139.47 78.9 140.9 C 77.46 142.34 74.98 143.34 72.76 143.45 L 54.55 143.45 C 52.32 143.34 49.84 142.34 48.4 140.9 C 46.97 139.47 45.97 136.99 45.86 134.76 L 45.86 116.55 C 45.97 114.33 46.97 111.85 48.4 110.41 C 49.84 108.97 52.32 107.97 54.55 107.86 Z M 51.85 113.85 C 51.03 114.68 50.63 115.32 50.74 116.55 L 50.74 134.76 C 50.63 135.99 51.03 136.63 51.85 137.46 C 52.68 138.28 53.32 138.68 54.55 138.57 L 72.76 138.57 C 73.99 138.68 74.63 138.28 75.45 137.46 C 76.28 136.63 76.67 135.99 76.57 134.76 L 76.57 116.55 C 76.67 115.32 76.28 114.68 75.45 113.85 C 74.63 113.03 73.99 112.63 72.76 112.74 L 54.55 112.74 C 53.32 112.63 52.68 113.03 51.85 113.85 Z" style="fill: none;"/>
    <path d="M 63.641 131.267 L 61.493 131.267 C 61.493 131.267 61.213 122.987 61.272 122.106 L 61.213 122.106 C 61.091 122.798 58.425 131.267 58.425 131.267 L 56.495 131.267 C 56.495 131.267 53.815 122.95 53.663 122.106 L 53.721 122.106 C 53.784 123.218 53.323 131.267 53.323 131.267 L 51.441 131.267 L 51.995 119.991 L 55.025 119.991 L 57.167 126.674 C 57.338 127.209 57.463 127.746 57.541 128.286 L 57.584 128.286 C 57.717 127.662 57.855 127.12 58.002 126.659 L 60.146 119.991 L 63.148 119.991 L 63.641 131.267 Z" style="line-height: 25.7705px; white-space: pre; stroke: rgb(255, 255, 255); fill: rgb(255, 255, 255); stroke-width: 0.6px;"/>
    <path d="M 75.865 130.757 C 74.599 131.426 73.188 131.761 71.634 131.761 C 69.837 131.761 68.381 131.217 67.268 130.13 C 66.155 129.043 65.598 127.603 65.598 125.813 C 65.598 123.984 66.207 122.483 67.424 121.311 C 68.642 120.138 70.19 119.551 72.067 119.551 C 73.417 119.551 74.554 119.744 75.475 120.129 L 75.475 122.147 C 74.542 121.542 73.431 121.24 72.143 121.24 C 70.849 121.24 69.787 121.655 68.959 122.485 C 68.131 123.314 67.717 124.388 67.717 125.706 C 67.717 127.062 68.074 128.129 68.786 128.907 C 69.498 129.684 70.465 130.073 71.686 130.073 C 72.522 130.073 73.245 129.916 73.856 129.602 L 73.856 126.794 L 71.295 126.794 L 71.295 125.146 L 75.865 125.146 L 75.865 130.757 Z" style="white-space: pre; fill: rgb(255, 255, 255); stroke: rgb(255, 255, 255); stroke-width: 0.595854px;"/>
  </g>
</svg>