<?xml version="1.0" encoding="UTF-8" standalone="no"?>
<svg
   viewBox="0 0 68 68"
   version="1.1"
   id="svg4"
   sodipodi:docname="Saikyo.svg"
   xml:space="preserve"
   inkscape:version="1.3.2 (091e20e, 2023-11-25, custom)"
   xmlns:inkscape="http://www.inkscape.org/namespaces/inkscape"
   xmlns:sodipodi="http://sodipodi.sourceforge.net/DTD/sodipodi-0.dtd"
   xmlns="http://www.w3.org/2000/svg"
   xmlns:svg="http://www.w3.org/2000/svg"><defs
     id="defs4" /><sodipodi:namedview
     id="namedview4"
     pagecolor="#ffffff"
     bordercolor="#000000"
     borderopacity="0.25"
     inkscape:showpageshadow="2"
     inkscape:pageopacity="0.0"
     inkscape:pagecheckerboard="0"
     inkscape:deskcolor="#d1d1d1"
     inkscape:zoom="6.3161765"
     inkscape:cx="47.180442"
     inkscape:cy="41.005821"
     inkscape:window-width="1212"
     inkscape:window-height="728"
     inkscape:window-x="1403"
     inkscape:window-y="147"
     inkscape:window-maximized="0"
     inkscape:current-layer="svg4" /><title
     id="title1">jy</title><path
     class="cls-2"
     d="M 59.6 59.6 L 8.4 59.6 L 8.4 8.4 L 59.6 8.4 L 59.6 59.6 Z M 59.6 2 L 8.4 2 C 4.86 1.98 1.98 4.86 2 8.4 L 2 59.6 C 1.98 63.14 4.86 66.02 8.4 66 L 59.6 66 C 63.14 66.02 66.02 63.14 66 59.6 L 66 8.4 C 66.02 4.86 63.14 1.98 59.6 2"
     style="fill: rgb(133, 192, 35); stroke-width: 4px; stroke: rgb(255, 255, 255);"
     id="path1" /><g
     id="レイヤー_1-2-0"
     data-name="レイヤー 1"
     transform="matrix(0.603772,0,0,0.60457867,2.00008,1.9915293)"
     style="display:inline"><path
       class="cls-1"
       d="M 95.4,0 A 10.54,10.54 0 0 1 106,10.6 V 95.4 A 10.54,10.54 0 0 1 95.4,106 H 10.6 A 10.54,10.54 0 0 1 0,95.4 V 10.6 A 10.54,10.54 0 0 1 10.6,0 h 84.8"
       style="fill:#ffffff"
       id="path1-2" /><rect
       class="cls-1"
       x="10.6"
       y="10.6"
       width="84.800003"
       height="84.800003"
       style="fill:#ffffff"
       id="rect1" /><path
       class="cls-2"
       d="M 95.4,95.4 H 10.6 V 10.6 H 95.4 Z M 95.4,0 H 10.6 A 10.54,10.54 0 0 0 0,10.6 V 95.4 A 10.54,10.54 0 0 0 10.6,106 H 95.4 A 10.54,10.54 0 0 0 106,95.4 V 10.6 A 10.54,10.54 0 0 0 95.4,0"
       style="fill:#00ac84"
       id="path2-6" /><path
       class="cls-3"
       d="m 17.1,67.9 a 11.69,11.69 0 0 0 4.5,0.8 c 6.1,0 6.1,-4.9 6.1,-8.3 V 29.1 h 9.4 V 65 c 0,5 -3.2,12 -12.9,12 A 25.39,25.39 0 0 1 17,76.1 v -8.2 z"
       style="fill:#231815"
       id="path3-2" /><path
       class="cls-3"
       d="m 60.7,29.1 h 10.6 l 18.4,47 H 79.3 l -4,-10.8 H 56.2 l -4.1,10.8 h -9.8 z m 5.2,9.5 H 65.8 L 59,58 h 13.7 z"
       style="fill:#231815"
       id="path4-5" /></g></svg>
