<?xml version="1.0" encoding="utf-8"?>
<svg viewBox="0 0 66 66" xmlns="http://www.w3.org/2000/svg">
  <g>
    <path class="st0" d="M 41 16.59 C 38.19 16.59 35.53 17.01 33 17.99 C 28.79 19.53 25.14 22.06 22.33 25.43 C 18.96 29.64 16.86 34.83 16.86 40.59 C 16.86 46.34 18.96 51.67 22.33 55.74 C 23.18 55.88 24.16 56.02 25 56.02 C 27.95 56.02 30.61 55.18 33 53.78 C 28.51 51.11 25.56 46.2 25.56 40.59 C 25.56 34.97 28.51 30.06 33 27.39 C 35.39 25.99 38.05 25.15 41 25.15 C 41.98 25.15 42.82 25.29 43.67 25.43 C 50.96 26.69 56.44 33.01 56.44 40.59 C 56.44 48.16 50.96 54.48 43.67 55.74 C 40.86 59.11 37.21 61.78 33 63.18 C 35.53 64.02 38.19 64.59 41 64.59 C 54.19 64.59 65 53.78 65 40.59 C 65 27.25 54.19 16.59 41 16.59 Z" style="fill: rgb(51, 102, 204); stroke-width: 2px; stroke: rgb(255, 255, 255);"/>
    <path d="M 43.67 25.29 C 42.82 25.15 41.84 25.01 41 25.01 C 38.05 25.01 35.39 25.85 33 27.25 C 37.49 29.92 40.44 34.83 40.44 40.45 C 40.44 46.06 37.49 50.97 33 53.64 C 30.61 55.04 27.95 55.88 25 55.88 C 24.02 55.88 23.18 55.74 22.33 55.6 C 15.04 54.34 9.56 48.02 9.56 40.45 C 9.56 32.87 15.04 26.55 22.33 25.29 C 25.14 21.92 28.79 19.25 33 17.85 C 30.47 17.01 27.81 16.45 25 16.45 C 11.81 16.59 1 27.25 1 40.59 C 1 53.78 11.81 64.59 25 64.59 C 27.81 64.59 30.47 64.16 33 63.18 C 37.21 61.64 40.86 59.11 43.67 55.74 C 47.04 51.53 49.14 46.34 49.14 40.59 C 49 34.83 47.04 29.5 43.67 25.29 Z" fill="#6cf" style="stroke-width: 2px; stroke: rgb(255, 255, 255);"/>
    <path d="M 53.77 2.97 C 52.93 0.73 46.61 0.87 39.74 3.53 C 37.07 4.52 34.82 5.64 33 6.9 C 31.18 5.64 28.79 4.52 26.26 3.53 C 19.39 1.01 13.07 0.73 12.23 2.97 C 11.39 5.22 16.3 9.15 23.18 11.81 C 26.96 13.22 30.89 13.92 33 13.92 C 35.11 13.92 39.32 13.08 42.82 11.81 C 49.7 9.29 54.61 5.22 53.77 2.97 Z" fill="#3c6" style="stroke-width: 2px; stroke: rgb(255, 255, 255);"/>
  </g>
  <path class="st0" d="M 41 16.59 C 38.19 16.59 35.53 17.01 33 17.99 C 28.79 19.53 25.14 22.06 22.33 25.43 C 18.96 29.64 16.86 34.83 16.86 40.59 C 16.86 46.34 18.96 51.67 22.33 55.74 C 23.18 55.88 24.16 56.02 25 56.02 C 27.95 56.02 30.61 55.18 33 53.78 C 28.51 51.11 25.56 46.2 25.56 40.59 C 25.56 34.97 28.51 30.06 33 27.39 C 35.39 25.99 38.05 25.15 41 25.15 C 41.98 25.15 42.82 25.29 43.67 25.43 C 50.96 26.69 56.44 33.01 56.44 40.59 C 56.44 48.16 50.96 54.48 43.67 55.74 C 40.86 59.11 37.21 61.78 33 63.18 C 35.53 64.02 38.19 64.59 41 64.59 C 54.19 64.59 65 53.78 65 40.59 C 65 27.25 54.19 16.59 41 16.59 Z" style="fill: rgb(51, 102, 204);"/>
  <path d="M 43.67 25.29 C 42.82 25.15 41.84 25.01 41 25.01 C 38.05 25.01 35.39 25.85 33 27.25 C 37.49 29.92 40.44 34.83 40.44 40.45 C 40.44 46.06 37.49 50.97 33 53.64 C 30.61 55.04 27.95 55.88 25 55.88 C 24.02 55.88 23.18 55.74 22.33 55.6 C 15.04 54.34 9.56 48.02 9.56 40.45 C 9.56 32.87 15.04 26.55 22.33 25.29 C 25.14 21.92 28.79 19.25 33 17.85 C 30.47 17.01 27.81 16.45 25 16.45 C 11.81 16.59 1 27.25 1 40.59 C 1 53.78 11.81 64.59 25 64.59 C 27.81 64.59 30.47 64.16 33 63.18 C 37.21 61.64 40.86 59.11 43.67 55.74 C 47.04 51.53 49.14 46.34 49.14 40.59 C 49 34.83 47.04 29.5 43.67 25.29 Z" fill="#6cf"/>
  <path d="M 53.77 2.97 C 52.93 0.73 46.61 0.87 39.74 3.53 C 37.07 4.52 34.82 5.64 33 6.9 C 31.18 5.64 28.79 4.52 26.26 3.53 C 19.39 1.01 13.07 0.73 12.23 2.97 C 11.39 5.22 16.3 9.15 23.18 11.81 C 26.96 13.22 30.89 13.92 33 13.92 C 35.11 13.92 39.32 13.08 42.82 11.81 C 49.7 9.29 54.61 5.22 53.77 2.97 Z" fill="#3c6"/>
</svg>