<?xml version="1.0" encoding="utf-8"?>
<svg viewBox="0 0 68 68" xmlns="http://www.w3.org/2000/svg">
  <path d="M 66 34 C 66 42.58 62.21 51.04 56.62 56.62 C 51.04 62.21 42.58 66 34 66 C 25.42 66 16.96 62.21 11.38 56.62 C 5.79 51.04 2 42.58 2 34 C 2 25.42 5.79 16.96 11.38 11.36 C 16.96 5.79 25.42 2 34 2 C 42.58 2 51.04 5.79 56.62 11.36 C 62.21 16.96 66 25.42 66 34 Z M 51.46 16.54 C 46.78 11.87 41.08 9.31 34 9.31 C 26.92 9.31 21.22 11.87 16.54 16.54 C 11.87 21.22 9.31 26.92 9.31 34 C 9.31 41.08 11.87 46.78 16.54 51.44 C 21.22 56.13 26.92 58.69 34 58.69 C 41.08 58.69 46.78 56.13 51.46 51.44 C 56.13 46.78 58.69 41.08 58.69 34 C 58.69 26.92 56.13 21.22 51.46 16.54 Z" style="fill: rgb(232, 82, 152); stroke-width: 4px; stroke: rgb(255, 255, 255);"/>
  <g transform="matrix(1, 0, 0, 1, -66.639999, -428.76001)">
    <title>Si Ke</title>
    <circle style="fill: rgb(255, 255, 255); stroke-width: 4px;" cx="100.64" cy="462.76" r="28.34"/>
    <path d="M 132.64 462.76 C 132.64 471.34 128.85 479.8 123.26 485.38 C 117.68 490.97 109.22 494.76 100.64 494.76 C 92.06 494.76 83.6 490.97 78.02 485.38 C 72.43 479.8 68.64 471.34 68.64 462.76 C 68.64 454.18 72.43 445.72 78.02 440.12 C 83.6 434.55 92.06 430.76 100.64 430.76 C 109.22 430.76 117.68 434.55 123.26 440.12 C 128.85 445.72 132.64 454.18 132.64 462.76 Z M 118.1 445.3 C 113.42 440.63 107.72 438.07 100.64 438.07 C 93.56 438.07 87.86 440.63 83.18 445.3 C 78.51 449.98 75.95 455.68 75.95 462.76 C 75.95 469.84 78.51 475.54 83.18 480.2 C 87.86 484.89 93.56 487.45 100.64 487.45 C 107.72 487.45 113.42 484.89 118.1 480.2 C 122.77 475.54 125.33 469.84 125.33 462.76 C 125.33 455.68 122.77 449.98 118.1 445.3 Z" style="fill: rgb(232, 82, 152);"/>
    <path d="M 85.2 475.73 L 85.2 470.78 C 85.53 471.19 85.93 471.55 86.4 471.87 C 86.87 472.2 87.36 472.47 87.88 472.69 C 88.4 472.91 88.92 473.09 89.44 473.21 C 89.96 473.33 90.44 473.39 90.88 473.39 C 92.42 473.39 93.56 473.05 94.31 472.38 C 95.06 471.71 95.43 470.73 95.43 469.45 C 95.43 468.76 95.31 468.17 95.06 467.66 C 94.81 467.16 94.46 466.7 94.01 466.28 C 93.56 465.86 93.03 465.46 92.42 465.08 C 91.82 464.69 91.16 464.29 90.47 463.87 C 89.72 463.35 89.03 462.81 88.38 462.28 C 87.74 461.74 87.18 461.14 86.71 460.49 C 86.23 459.84 85.86 459.1 85.59 458.28 C 85.32 457.46 85.18 456.49 85.18 455.39 C 85.18 454.03 85.41 452.85 85.88 451.84 C 86.34 450.84 86.96 450.01 87.72 449.36 C 88.48 448.7 89.34 448.22 90.32 447.9 C 91.29 447.58 92.28 447.43 93.29 447.43 C 95.59 447.43 97.26 447.77 98.31 448.46 L 98.31 453.21 C 97.07 452.02 95.46 451.43 93.5 451.43 C 92.96 451.43 92.42 451.49 91.89 451.63 C 91.35 451.76 90.87 451.99 90.45 452.3 C 90.02 452.61 89.68 453 89.41 453.49 C 89.15 453.97 89.01 454.56 89.01 455.24 C 89.01 455.89 89.11 456.45 89.32 456.92 C 89.52 457.4 89.82 457.82 90.22 458.22 C 90.61 458.61 91.09 458.99 91.66 459.36 C 92.22 459.73 92.88 460.13 93.63 460.56 C 94.39 461.09 95.11 461.64 95.79 462.22 C 96.47 462.79 97.07 463.43 97.59 464.14 C 98.1 464.84 98.51 465.61 98.81 466.47 C 99.11 467.32 99.26 468.3 99.26 469.39 C 99.26 470.86 99.04 472.1 98.59 473.11 C 98.14 474.12 97.54 474.94 96.77 475.57 C 96.01 476.2 95.14 476.66 94.15 476.94 C 93.16 477.23 92.11 477.37 91.01 477.37 C 90.64 477.37 90.18 477.33 89.65 477.26 C 89.11 477.18 88.56 477.08 88 476.94 C 87.44 476.79 86.91 476.62 86.41 476.42 C 85.91 476.22 85.5 475.99 85.2 475.73 Z M 117.16 476.88 L 104.99 476.88 L 104.99 447.91 L 108.64 447.91 L 108.64 472.82 L 117.16 472.82 L 117.16 476.88 Z" style="white-space: pre; stroke: rgb(232, 82, 152); fill: rgb(232, 82, 152);"/>
  </g>
</svg>