<?xml version="1.0" encoding="utf-8"?>
<svg viewBox="0 0 68 68" xmlns="http://www.w3.org/2000/svg">
  <g transform="matrix(1, 0, 0, 1, 2, 2)">
    <path d="M 18.24 36.24 L 18.24 32.48 C 18.24 30.4 16.56 28.72 14.48 28.72 L 10.72 28.72 L 10.72 36.24 L 18.24 36.24 Z" class="g1a" style="fill: rgb(196, 14, 24); stroke-width: 4px; stroke: rgb(255, 255, 255);"/>
    <path d="M 45.8 24.96 L 45.8 28.72 C 45.8 30.8 47.48 32.48 49.56 32.48 L 53.32 32.48 L 53.32 24.96 L 45.8 24.96 Z" class="g1a" style="fill: rgb(196, 14, 24); stroke-width: 4px; stroke: rgb(255, 255, 255);"/>
    <path d="M 42.16 13.84 C 36.04 13.84 31.04 18.8 31.04 24.96 L 31.04 36.24 C 31.04 39.76 28.16 42.64 24.64 42.64 C 21.12 42.64 18.24 39.76 18.24 36.24 L 10.72 36.24 C 10.72 43.92 16.96 50.16 24.64 50.16 C 32.32 50.16 38.56 43.92 38.56 36.24 L 38.56 24.96 C 38.56 22.96 40.16 21.36 42.16 21.36 C 44.16 21.36 45.8 22.96 45.8 24.96 L 53.32 24.96 C 53.32 18.8 48.32 13.84 42.16 13.84 Z" class="g4" style="fill: rgb(232, 82, 152); stroke-width: 4px; stroke: rgb(255, 255, 255);"/>
    <path d="M 10.72 28.72 L 3.76 28.72 C 1.68 28.72 0 30.4 0 32.48 C 0 34.56 1.68 36.24 3.76 36.24 L 10.72 36.24 L 10.72 28.72 Z" class="g4" style="fill: rgb(232, 82, 152); stroke-width: 4px; stroke: rgb(255, 255, 255);"/>
    <path d="M 53.32 32.48 L 60.28 32.48 C 62.32 32.48 64 30.8 64 28.72 C 64 26.64 62.32 24.96 60.28 24.96 L 53.32 24.96 L 53.32 32.48 Z" class="g4" style="fill: rgb(232, 82, 152); stroke-width: 4px; stroke: rgb(255, 255, 255);"/>
  </g>
  <g transform="matrix(1, 0, 0, 1, 2, 2)">
    <path d="M 18.24 36.24 L 18.24 32.48 C 18.24 30.4 16.56 28.72 14.48 28.72 L 10.72 28.72 L 10.72 36.24 L 18.24 36.24 Z" class="g1a" style="fill: rgb(196, 14, 24);"/>
    <path d="M 45.8 24.96 L 45.8 28.72 C 45.8 30.8 47.48 32.48 49.56 32.48 L 53.32 32.48 L 53.32 24.96 L 45.8 24.96 Z" class="g1a" style="fill: rgb(196, 14, 24);"/>
    <path d="M 42.16 13.84 C 36.04 13.84 31.04 18.8 31.04 24.96 L 31.04 36.24 C 31.04 39.76 28.16 42.64 24.64 42.64 C 21.12 42.64 18.24 39.76 18.24 36.24 L 10.72 36.24 C 10.72 43.92 16.96 50.16 24.64 50.16 C 32.32 50.16 38.56 43.92 38.56 36.24 L 38.56 24.96 C 38.56 22.96 40.16 21.36 42.16 21.36 C 44.16 21.36 45.8 22.96 45.8 24.96 L 53.32 24.96 C 53.32 18.8 48.32 13.84 42.16 13.84 Z" class="g4" style="fill: rgb(232, 82, 152);"/>
    <path d="M 10.72 28.72 L 3.76 28.72 C 1.68 28.72 0 30.4 0 32.48 C 0 34.56 1.68 36.24 3.76 36.24 L 10.72 36.24 L 10.72 28.72 Z" class="g4" style="fill: rgb(232, 82, 152);"/>
    <path d="M 53.32 32.48 L 60.28 32.48 C 62.32 32.48 64 30.8 64 28.72 C 64 26.64 62.32 24.96 60.28 24.96 L 53.32 24.96 L 53.32 32.48 Z" class="g4" style="fill: rgb(232, 82, 152);"/>
  </g>
</svg>