<?xml version="1.0" encoding="utf-8"?>
<svg viewBox="0 0 68 40.3" xmlns="http://www.w3.org/2000/svg">
  <g transform="matrix(1, 0, 0, 1, 2, -11.85)">
    <path d="M 18.24 36.24 L 18.24 32.48 C 18.24 30.4 16.56 28.72 14.48 28.72 L 10.72 28.72 L 10.72 36.24 L 18.24 36.24 Z" class="g1a" style="fill: rgb(196, 14, 24); stroke-width: 4px;"/>
    <path d="M 8.72 26.72 L 14.48 26.72 C 15.93 26.81 17.62 27.47 18.55 28.41 C 19.49 29.34 20.15 31.03 20.24 32.48 L 20.24 38.24 L 8.72 38.24 Z M 16.24 34.24 L 16.24 32.48 C 16.33 31.85 16.15 31.66 15.73 31.23 C 15.3 30.81 15.11 30.63 14.48 30.72 L 12.72 30.72 L 12.72 34.24 Z" style="fill: rgb(255, 255, 255);"/>
    <path d="M 45.8 24.96 L 45.8 28.72 C 45.8 30.8 47.48 32.48 49.56 32.48 L 53.32 32.48 L 53.32 24.96 L 45.8 24.96 Z" class="g1a" style="fill: rgb(196, 14, 24); stroke-width: 4px;"/>
    <path d="M 55.32 34.48 L 49.56 34.48 C 48.11 34.39 46.42 33.73 45.49 32.79 C 44.55 31.86 43.89 30.17 43.8 28.72 L 43.8 22.96 L 55.32 22.96 Z M 47.8 26.96 L 47.8 28.72 C 47.71 29.35 47.89 29.54 48.31 29.97 C 48.74 30.39 48.93 30.57 49.56 30.48 L 51.32 30.48 L 51.32 26.96 Z" style="fill: rgb(255, 255, 255);"/>
    <path d="M 42.16 13.84 C 36.04 13.84 31.04 18.8 31.04 24.96 L 31.04 36.24 C 31.04 39.76 28.16 42.64 24.64 42.64 C 21.12 42.64 18.24 39.76 18.24 36.24 L 10.72 36.24 C 10.72 43.92 16.96 50.16 24.64 50.16 C 32.32 50.16 38.56 43.92 38.56 36.24 L 38.56 24.96 C 38.56 22.96 40.16 21.36 42.16 21.36 C 44.16 21.36 45.8 22.96 45.8 24.96 L 53.32 24.96 C 53.32 18.8 48.32 13.84 42.16 13.84 Z" class="g4" style="fill: rgb(232, 82, 152); stroke-width: 4px;"/>
    <path d="M 43.49 26.96 L 43.8 24.96 C 43.89 24.37 43.73 24.23 43.33 23.83 C 42.92 23.43 42.76 23.36 42.16 23.36 C 41.57 23.36 41.42 23.43 41.02 23.82 C 40.63 24.22 40.47 24.37 40.56 24.96 L 40.56 36.24 C 40.47 40.49 38.67 44.72 35.89 47.49 C 33.12 50.27 28.89 52.16 24.64 52.16 C 20.39 52.16 16.16 50.27 13.39 47.49 C 10.61 44.72 8.81 40.49 8.72 36.24 L 8.68 34.24 L 20.37 34.24 L 20.24 36.24 C 20.15 37.59 20.62 38.44 21.53 39.35 C 22.44 40.26 23.29 40.64 24.64 40.64 C 25.99 40.64 26.84 40.26 27.75 39.35 C 28.66 38.44 29.13 37.59 29.04 36.24 L 29.04 24.96 C 29.13 21.47 30.63 17.94 32.89 15.67 C 35.16 13.41 38.69 11.84 42.16 11.84 C 45.65 11.84 49.19 13.41 51.46 15.67 C 53.73 17.93 55.23 21.47 55.32 24.96 L 55.37 26.96 Z M 48.64 18.51 C 46.87 16.75 44.83 15.84 42.16 15.84 C 39.51 15.84 37.48 16.75 35.72 18.51 C 33.95 20.26 32.95 22.29 33.04 24.96 L 33.04 36.24 C 32.95 38.41 31.98 40.76 30.57 42.17 C 29.16 43.58 26.81 44.64 24.64 44.64 C 22.47 44.64 20.12 43.58 18.71 42.17 C 17.3 40.76 16.98 39.74 16.56 38.24 L 12.84 38.24 C 13.2 40.76 13.95 42.4 16.21 44.67 C 18.48 46.93 21.21 48.16 24.64 48.16 C 28.07 48.16 30.8 46.93 33.07 44.67 C 35.33 42.4 36.65 39.67 36.56 36.24 L 36.56 24.96 C 36.65 23.55 37.29 21.9 38.2 21 C 39.1 20.09 40.75 19.36 42.16 19.36 C 43.56 19.36 45.22 20.09 46.13 20.99 C 47.05 21.89 47.02 22.2 47.33 22.96 L 51.17 22.96 C 50.82 21.23 50.41 20.27 48.64 18.51 Z" style="fill: rgb(255, 255, 255);"/>
    <path d="M 10.72 28.72 L 3.76 28.72 C 1.68 28.72 0 30.4 0 32.48 C 0 34.56 1.68 36.24 3.76 36.24 L 10.72 36.24 L 10.72 28.72 Z" class="g4" style="fill: rgb(232, 82, 152); stroke-width: 4px;"/>
    <path d="M 3.76 38.24 C 2.31 38.15 0.62 37.49 -0.31 36.55 C -1.25 35.62 -2 33.93 -2 32.48 C -2 31.03 -1.25 29.34 -0.31 28.41 C 0.62 27.47 2.31 26.81 3.76 26.72 L 12.72 26.72 L 12.72 38.24 Z M 8.72 30.72 L 3.76 30.72 C 3.13 30.63 2.94 30.81 2.51 31.23 C 2.09 31.66 2 31.85 2 32.48 C 2 33.11 2.09 33.3 2.51 33.73 C 2.94 34.15 3.13 34.33 3.76 34.24 L 8.72 34.24 Z" style="fill: rgb(255, 255, 255);"/>
    <path d="M 53.32 32.48 L 60.28 32.48 C 62.32 32.48 64 30.8 64 28.72 C 64 26.64 62.32 24.96 60.28 24.96 L 53.32 24.96 L 53.32 32.48 Z" class="g4" style="fill: rgb(232, 82, 152); stroke-width: 4px;"/>
    <path d="M 60.28 22.96 C 61.71 23.05 63.4 23.72 64.32 24.65 C 65.25 25.58 66 27.27 66 28.72 C 66 30.17 65.25 31.86 64.32 32.79 C 63.4 33.72 61.71 34.39 60.28 34.48 L 51.32 34.48 L 51.32 22.96 Z M 55.32 30.48 L 60.28 30.48 C 60.89 30.57 61.06 30.4 61.49 29.97 C 61.91 29.54 62 29.35 62 28.72 C 62 28.09 61.91 27.9 61.49 27.47 C 61.06 27.04 60.89 26.87 60.28 26.96 L 55.32 26.96 Z" style="fill: rgb(255, 255, 255);"/>
  </g>
  <g transform="matrix(1, 0, 0, 1, 2, -11.85)">
    <path d="M 18.24 36.24 L 18.24 32.48 C 18.24 30.4 16.56 28.72 14.48 28.72 L 10.72 28.72 L 10.72 36.24 L 18.24 36.24 Z" class="g1a" style="fill: rgb(196, 14, 24);"/>
    <path d="M 45.8 24.96 L 45.8 28.72 C 45.8 30.8 47.48 32.48 49.56 32.48 L 53.32 32.48 L 53.32 24.96 L 45.8 24.96 Z" class="g1a" style="fill: rgb(196, 14, 24);"/>
    <path d="M 42.16 13.84 C 36.04 13.84 31.04 18.8 31.04 24.96 L 31.04 36.24 C 31.04 39.76 28.16 42.64 24.64 42.64 C 21.12 42.64 18.24 39.76 18.24 36.24 L 10.72 36.24 C 10.72 43.92 16.96 50.16 24.64 50.16 C 32.32 50.16 38.56 43.92 38.56 36.24 L 38.56 24.96 C 38.56 22.96 40.16 21.36 42.16 21.36 C 44.16 21.36 45.8 22.96 45.8 24.96 L 53.32 24.96 C 53.32 18.8 48.32 13.84 42.16 13.84 Z" class="g4" style="fill: rgb(232, 82, 152);"/>
    <path d="M 10.72 28.72 L 3.76 28.72 C 1.68 28.72 0 30.4 0 32.48 C 0 34.56 1.68 36.24 3.76 36.24 L 10.72 36.24 L 10.72 28.72 Z" class="g4" style="fill: rgb(232, 82, 152);"/>
    <path d="M 53.32 32.48 L 60.28 32.48 C 62.32 32.48 64 30.8 64 28.72 C 64 26.64 62.32 24.96 60.28 24.96 L 53.32 24.96 L 53.32 32.48 Z" class="g4" style="fill: rgb(232, 82, 152);"/>
  </g>
</svg>