<?xml version="1.0" encoding="utf-8"?>
<svg viewBox="0 0 68 62.69" xmlns="http://www.w3.org/2000/svg">
  <g id="g-1" transform="matrix(1.752495, 0, 0, 1.752495, -29.71196, 152.784149)">
    <path d="M 37.03 -67.77 C 37.03 -67.88 36.95 -67.98 36.83 -67.99 C 25.63 -68.14 22.09 -73.34 36.38 -75.51 C 36.5 -75.53 36.59 -75.63 36.59 -75.76 L 36.59 -85.95 C 36.59 -86.07 36.48 -86.14 36.36 -86.12 C 10.79 -81.3 13.11 -66.12 36.82 -66.12 C 36.94 -66.12 37.02 -66.22 37.02 -66.33 L 37.02 -67.76 L 37.03 -67.77 Z" style="fill: rgb(228, 0, 56); stroke-width: 2.28246px; stroke: rgb(255, 255, 255);"/>
    <path d="M 35.67 -70.83 C 35.67 -70.72 35.75 -70.62 35.87 -70.61 C 47.07 -70.46 50.61 -65.26 36.33 -63.09 C 36.21 -63.07 36.12 -62.97 36.12 -62.84 L 36.12 -52.64 C 36.12 -52.52 36.23 -52.45 36.35 -52.47 C 61.92 -57.29 59.6 -72.47 35.89 -72.47 C 35.77 -72.47 35.69 -72.37 35.69 -72.26 L 35.69 -70.83 L 35.67 -70.83 Z" style="fill: rgb(2, 159, 233); stroke-width: 2.28246px; stroke: rgb(255, 255, 255);"/>
  </g>
  <g id="_レイヤー_1-2" transform="matrix(1.752495, 0, 0, 1.752495, -29.71196, 152.784149)">
    <path d="M 37.03 -67.77 C 37.03 -67.88 36.95 -67.98 36.83 -67.99 C 25.63 -68.14 22.09 -73.34 36.38 -75.51 C 36.5 -75.53 36.59 -75.63 36.59 -75.76 L 36.59 -85.95 C 36.59 -86.07 36.48 -86.14 36.36 -86.12 C 10.79 -81.3 13.11 -66.12 36.82 -66.12 C 36.94 -66.12 37.02 -66.22 37.02 -66.33 L 37.02 -67.76 L 37.03 -67.77 Z" style="fill:#e40038;"/>
    <path d="M 35.67 -70.83 C 35.67 -70.72 35.75 -70.62 35.87 -70.61 C 47.07 -70.46 50.61 -65.26 36.33 -63.09 C 36.21 -63.07 36.12 -62.97 36.12 -62.84 L 36.12 -52.64 C 36.12 -52.52 36.23 -52.45 36.35 -52.47 C 61.92 -57.29 59.6 -72.47 35.89 -72.47 C 35.77 -72.47 35.69 -72.37 35.69 -72.26 L 35.69 -70.83 L 35.67 -70.83 Z" style="fill:#029fe9;"/>
  </g>
</svg>