<?xml version="1.0" encoding="UTF-8" standalone="no"?>
<svg
   viewBox="0 0 68 68"
   version="1.1"
   id="svg4"
   sodipodi:docname="Shonanshinjuku.svg"
   xml:space="preserve"
   inkscape:version="1.3.2 (091e20e, 2023-11-25, custom)"
   xmlns:inkscape="http://www.inkscape.org/namespaces/inkscape"
   xmlns:sodipodi="http://sodipodi.sourceforge.net/DTD/sodipodi-0.dtd"
   xmlns="http://www.w3.org/2000/svg"
   xmlns:svg="http://www.w3.org/2000/svg"
   xmlns:rdf="http://www.w3.org/1999/02/22-rdf-syntax-ns#"
   xmlns:cc="http://creativecommons.org/ns#"><defs
     id="defs4" /><sodipodi:namedview
     id="namedview4"
     pagecolor="#a74d4d"
     bordercolor="#000000"
     borderopacity="0.25"
     inkscape:showpageshadow="2"
     inkscape:pageopacity="0.0"
     inkscape:pagecheckerboard="0"
     inkscape:deskcolor="#d1d1d1"
     inkscape:zoom="13.882353"
     inkscape:cx="44.913136"
     inkscape:cy="38.069915"
     inkscape:window-width="1920"
     inkscape:window-height="1017"
     inkscape:window-x="1358"
     inkscape:window-y="-8"
     inkscape:window-maximized="1"
     inkscape:current-layer="svg4" /><path
     class="cls-2"
     d="M 59.6,59.6 H 8.4 V 8.4 H 59.6 Z M 59.6,2 H 8.4 C 4.86,1.98 1.98,4.86 2,8.4 v 51.2 c -0.02,3.54 2.86,6.42 6.4,6.4 h 51.2 c 3.54,0.02 6.42,-2.86 6.4,-6.4 V 8.4 C 66.02,4.86 63.14,1.98 59.6,2"
     style="display:inline;fill:#85c023;stroke:#ffffff;stroke-width:4px"
     id="path1" /><metadata
     id="metadata4"><rdf:RDF><cc:Work
         rdf:about="" /></rdf:RDF></metadata><g
     id="レイヤー_1-2-7"
     data-name="レイヤー 1"
     transform="matrix(0.6025335,0,0,0.60377363,2.0823875,2.0000079)"
     style="display:inline"><path
       class="cls-1"
       d="M 95.4,0 A 10.54,10.54 0 0 1 106,10.6 V 95.4 A 10.54,10.54 0 0 1 95.4,106 H 10.6 A 10.54,10.54 0 0 1 0,95.4 V 10.6 A 10.54,10.54 0 0 1 10.6,0 h 84.8"
       style="fill:#ffffff"
       id="path1-4" /><rect
       class="cls-1"
       x="10.6"
       y="10.6"
       width="84.800003"
       height="84.800003"
       style="fill:#ffffff"
       id="rect1" /><path
       class="cls-2"
       d="M 95.4,95.4 H 10.6 V 10.6 H 95.4 Z M 95.4,0 H 10.6 A 10.54,10.54 0 0 0 0,10.6 V 95.4 A 10.54,10.54 0 0 0 10.6,106 H 95.4 A 10.54,10.54 0 0 0 106,95.4 V 10.6 A 10.54,10.54 0 0 0 95.4,0"
       style="fill:#de0515"
       id="path2-5" /><path
       class="cls-3"
       d="m 22.7,67.9 a 11.69,11.69 0 0 0 4.5,0.8 c 6.1,0 6.1,-4.9 6.1,-8.3 V 29.1 h 9.4 V 65 c 0,5 -3.2,12 -12.9,12 a 25.39,25.39 0 0 1 -7.2,-0.9 v -8.2 z"
       style="fill:#231815"
       id="path3-5" /><path
       class="cls-3"
       d="m 78.1,37.8 a 24.28,24.28 0 0 0 -9.6,-2 c -3.2,0 -7.4,1.4 -7.4,6.5 0,8.1 20.6,4.7 20.6,20.5 C 81.7,73.1 73.5,77 64.1,77 59,77 56.7,76.3 52,75.2 l 0.9,-8.5 a 21.9,21.9 0 0 0 10.6,2.9 c 3.6,0 8.3,-1.8 8.3,-6.1 0,-9 -20.6,-5.3 -20.6,-20.8 0,-10.5 8.2,-14.3 16.4,-14.3 a 33.73,33.73 0 0 1 11.2,1.7 z"
       style="fill:#231815"
       id="path4" /></g></svg>
