<?xml version="1.0" encoding="utf-8"?>
<svg viewBox="0 0 66 66" xmlns="http://www.w3.org/2000/svg">
  <g transform="matrix(5.837552, 0, 0, -5.837552, 44.094242, 21.298223)">
    <path d="M 0 0 C -1.424 0.427 -2.776 0.905 -2.612 1.744 C -2.416 2.753 0.16 2.49 1.651 1.833 L 1.667 1.852 C 1.509 2.167 1.314 2.349 0.905 2.53 C -0.056 2.954 -1.097 3.258 -2.367 3.41 C -4.239 3.636 -5.654 3.297 -5.924 2.397 C -6.27 1.247 -4.638 0.115 -2.982 -0.467 C -1.194 -1.095 0.702 -1.162 1.926 -1.811 C 2.59 -2.164 2.876 -2.902 2.354 -3.823 L 2.383 -3.828 C 2.936 -3.392 3.223 -2.925 3.207 -2.276 C 3.182 -1.334 2.361 -0.71 0 0" style="fill: rgb(237, 131, 42); fill-opacity: 1; stroke-width: 0.342609px; stroke: rgb(255, 255, 255);"/>
    <path d="M 2 -2.46 C 1.99 -2.94 0.97 -3.72 -0.24 -4.28 C -1.96 -5.09 -3.64 -5.11 -3.99 -4.36 C -4.35 -3.59 -3.24 -2.33 -1.53 -1.53 C -1.15 -1.35 -0.77 -1.21 -0.4 -1.11 C -0.66 -1.06 -0.93 -1 -1.2 -0.95 C -1.89 -1.16 -2.63 -1.46 -3.36 -1.87 C -5.96 -3.33 -7.53 -5.49 -6.85 -6.7 C -6.17 -7.91 -3.51 -7.7 -0.91 -6.24 C -0.65 -6.09 -0.39 -5.94 -0.15 -5.78 C 1.46 -4.71 2.4 -3.26 2.02 -2.46 L 2 -2.46 Z" style="fill: rgb(0, 106, 183); fill-opacity: 1; stroke-width: 0.342609px; stroke: rgb(255, 255, 255);"/>
  </g>
  <g transform="matrix(5.837552, 0, 0, -5.837552, 44.094242, 21.298223)">
    <path d="M 0 0 C -1.424 0.427 -2.776 0.905 -2.612 1.744 C -2.416 2.753 0.16 2.49 1.651 1.833 L 1.667 1.852 C 1.509 2.167 1.314 2.349 0.905 2.53 C -0.056 2.954 -1.097 3.258 -2.367 3.41 C -4.239 3.636 -5.654 3.297 -5.924 2.397 C -6.27 1.247 -4.638 0.115 -2.982 -0.467 C -1.194 -1.095 0.702 -1.162 1.926 -1.811 C 2.59 -2.164 2.876 -2.902 2.354 -3.823 L 2.383 -3.828 C 2.936 -3.392 3.223 -2.925 3.207 -2.276 C 3.182 -1.334 2.361 -0.71 0 0" style="fill: rgb(237, 131, 42); fill-opacity: 1;"/>
    <path d="M 2 -2.46 C 1.99 -2.94 0.97 -3.72 -0.24 -4.28 C -1.96 -5.09 -3.64 -5.11 -3.99 -4.36 C -4.35 -3.59 -3.24 -2.33 -1.53 -1.53 C -1.15 -1.35 -0.77 -1.21 -0.4 -1.11 C -0.66 -1.06 -0.93 -1 -1.2 -0.95 C -1.89 -1.16 -2.63 -1.46 -3.36 -1.87 C -5.96 -3.33 -7.53 -5.49 -6.85 -6.7 C -6.17 -7.91 -3.51 -7.7 -0.91 -6.24 C -0.65 -6.09 -0.39 -5.94 -0.15 -5.78 C 1.46 -4.71 2.4 -3.26 2.02 -2.46 L 2 -2.46 Z" style="fill: rgb(0, 106, 183); fill-opacity: 1;"/>
  </g>
</svg>