<?xml version="1.0" encoding="utf-8"?>
<svg viewBox="0 0 66 66" xmlns="http://www.w3.org/2000/svg">
  <path d="M 33 1 C 15.34 1 1 15.34 1 33 C 1 33.01 1 33.01 1 33.01 C 18.21 33.52 32.03 47.65 32.04 64.99 C 32.36 65 32.68 65 33 65 C 33.32 65 33.64 65 33.96 64.99 C 33.97 47.65 47.79 33.52 65 33.01 C 65 33.01 65 33.01 65 33 C 65 15.34 50.66 1 33 1 Z" style="fill: rgb(25, 147, 50); stroke-width: 2px; stroke: rgb(255, 255, 255);"/>
  <path d="M 33 1 C 15.34 1 1 15.34 1 33 C 1 33.01 1 33.01 1 33.01 C 18.21 33.52 32.03 47.65 32.04 64.99 C 32.36 65 32.68 65 33 65 C 33.32 65 33.64 65 33.96 64.99 C 33.97 47.65 47.79 33.52 65 33.01 C 65 33.01 65 33.01 65 33 C 65 15.34 50.66 1 33 1 Z" style="fill:#199332"/>
</svg>