<?xml version="1.0" encoding="utf-8"?>
<svg viewBox="0 0 68 68" xmlns="http://www.w3.org/2000/svg">
  <path d="M 59.56 2 L 8.44 2 C 4.84 2 2 4.93 2 8.44 L 2 59.64 C 2 63.16 4.84 66 8.44 66 L 59.56 66 C 63.16 66 66 63.16 66 59.64 L 66 8.44 C 66 4.93 63.16 2 59.56 2" style="fill: rgb(6, 59, 136); fill-opacity: 1; stroke-width: 4px; stroke: rgb(255, 255, 255);"/>
  <path d="M 59.56 2 L 8.44 2 C 4.84 2 2 4.93 2 8.44 L 2 59.64 C 2 63.16 4.84 66 8.44 66 L 59.56 66 C 63.16 66 66 63.16 66 59.64 L 66 8.44 C 66 4.93 63.16 2 59.56 2" style="fill: rgb(6, 59, 136); fill-opacity: 1;"/>
  <path d="M 59.56 59.6 L 8.44 59.6 L 8.44 8.4 L 59.56 8.4 L 59.56 59.6 Z" style="fill: rgb(255, 255, 255); fill-opacity: 1;"/>
  <path d="M 11.37 22.71 L 18.9 22.71 L 22.66 37.6 L 22.75 37.6 L 26.76 22.71 L 34.04 22.71 L 34.04 45.21 L 29.36 45.21 L 29.44 27.89 L 29.36 27.89 L 24.76 45.21 L 20.32 45.21 L 15.97 27.89 L 15.89 27.89 L 16.05 45.21 L 11.37 45.21 L 11.37 22.71 Z" style="fill-opacity: 1;"/>
  <path d="M 46.93 41.11 C 50.44 41.11 51.78 37.6 51.78 33.92 C 51.78 30.07 50.44 26.72 46.93 26.72 C 43.5 26.72 42.16 30.07 42.16 33.92 C 42.16 37.6 43.5 41.11 46.93 41.11 M 46.93 22.29 C 54.04 22.29 57.72 26.72 57.72 33.92 C 57.72 41.11 53.95 45.55 46.93 45.55 C 39.98 45.55 36.22 41.11 36.22 33.92 C 36.22 26.72 39.9 22.29 46.93 22.29" style="fill-opacity: 1;"/>
</svg>