<?xml version="1.0" encoding="utf-8"?>
<svg viewBox="0 0 68 68" xmlns="http://www.w3.org/2000/svg">
  <path d="M 15.02 1.99 L 52.98 1.99 C 60.17 1.99 66 7.83 66 15.02 L 66 52.97 C 66 60.17 60.17 66 52.98 66 L 15.02 66 C 7.83 66 2 60.17 2 52.97 L 2 15.02 C 2 7.83 7.83 1.99 15.02 1.99 Z" style="fill: rgb(218, 0, 65); stroke-width: 4px; stroke: rgb(255, 255, 255);"/>
  <g transform="matrix(2.084216, 0, 0, 2.084216, -90.647583, -147.23613)">
    <title>To TY</title>
    <path d="M 50.7 71.6 H 68.91 A 6.25 6.25 0 0 1 75.16 77.85 V 96.06 A 6.25 6.25 0 0 1 68.91 102.31 H 50.7 A 6.25 6.25 0 0 1 44.45 96.06 V 77.85 A 6.25 6.25 0 0 1 50.7 71.6 Z" style="stroke-width: 4.87488px; fill: rgb(218, 0, 65);"/>
    <path d="M 58.72 82.602 L 55.103 82.602 L 55.103 93.019 L 53.014 93.019 L 53.014 82.602 L 49.406 82.602 L 49.406 80.893 L 58.72 80.893 L 58.72 82.602 Z M 70.205 80.893 L 66.078 88.613 L 66.078 93.019 L 63.989 93.019 L 63.989 88.656 L 59.968 80.893 L 62.347 80.893 L 64.823 86.094 C 64.852 86.156 64.94 86.39 65.087 86.796 L 65.113 86.796 C 65.165 86.615 65.262 86.381 65.403 86.094 L 67.992 80.893 L 70.205 80.893 Z" style="fill: rgb(255, 255, 255); line-height: 31.1633px; white-space: pre; stroke: rgb(255, 255, 255); stroke-width: 0.700322px;"/>
  </g>
</svg>