<?xml version="1.0" encoding="utf-8"?>
<svg viewBox="0 0 146.84 68" xmlns="http://www.w3.org/2000/svg">
  <path d="M 51.33 66 L 49.34 66 L 49.62 64.86 L 56.14 54.66 L 57.26 53.26 L 57.57 52.7 L 64.35 43.63 L 70.03 37.39 L 69.75 36.83 L 66.89 33.16 L 56.42 19.84 L 56.14 19.55 L 56.14 19.27 L 72.29 19.27 L 72.85 19.84 L 79.35 28.06 L 79.66 28.34 L 81.06 27.2 L 83.61 25.21 L 86.72 23.25 L 88.14 22.38 L 89.26 21.54 L 89.85 21.26 L 95.22 17.85 L 102.87 14.18 L 111.63 10.49 L 119.3 8.24 L 121.26 7.66 L 126.08 6.25 L 128.63 5.97 L 129.77 5.67 L 135.43 4.83 L 135.43 4.55 L 135.71 4.55 L 131.18 4.55 L 117.31 5.67 L 102.03 7.66 L 90.41 9.36 L 79.07 11.35 L 64.63 15.02 L 51.33 19.27 L 50.48 19.55 L 45.39 21.26 L 41.98 22.66 L 41.98 22.94 L 41.7 22.94 L 41.7 65.72 L 41.42 66 L 27.53 66 L 27.25 65.72 L 27.25 29.47 L 26.97 29.47 L 17.62 34.28 L 17.06 34.84 L 13.95 36.27 L 5.75 41.36 L 5.16 41.92 L 4.32 41.92 L 4.6 23.81 L 5.16 23.25 L 6.31 22.66 L 12.53 19.55 L 23.58 15.02 L 33.21 11.63 L 44.53 8.52 L 55.02 5.97 L 68.32 3.99 L 81.9 2.84 L 98.05 2 L 107.96 2 L 110.51 2.28 L 122.97 2.28 L 124.11 2.56 L 140.24 3.43 L 142.23 3.71 L 142.51 3.71 L 142.51 3.99 L 133.44 6.82 L 126.36 9.64 L 126.08 9.92 L 124.11 10.79 L 117.87 13.62 L 109.95 18.43 L 101.44 24.37 L 101.16 24.65 L 97.49 27.48 L 91.53 32.57 L 90.97 33.44 L 88.7 35.71 L 87.02 37.39 L 87.02 37.67 L 87.86 38.82 L 99.18 53.26 L 99.48 53.26 L 99.48 53.54 L 99.76 53.54 L 99.76 54.1 L 109.09 65.72 L 109.09 66 L 92.68 66 L 80.5 50.43 L 80.22 50.15 L 78.79 48.45 L 78.51 47.88 L 78.23 47.88 L 77.39 49.01 L 71.99 56.65 L 67.18 65.16 L 66.89 65.72 L 66.89 66 L 51.33 66 Z" class="g1n" style="fill: rgb(1, 65, 130); stroke-width: 4px; stroke: rgb(255, 255, 255);"/>
  <path d="M 51.33 66 L 49.34 66 L 49.62 64.86 L 56.14 54.66 L 57.26 53.26 L 57.57 52.7 L 64.35 43.63 L 70.03 37.39 L 69.75 36.83 L 66.89 33.16 L 56.42 19.84 L 56.14 19.55 L 56.14 19.27 L 72.29 19.27 L 72.85 19.84 L 79.35 28.06 L 79.66 28.34 L 81.06 27.2 L 83.61 25.21 L 86.72 23.25 L 88.14 22.38 L 89.26 21.54 L 89.85 21.26 L 95.22 17.85 L 102.87 14.18 L 111.63 10.49 L 119.3 8.24 L 121.26 7.66 L 126.08 6.25 L 128.63 5.97 L 129.77 5.67 L 135.43 4.83 L 135.43 4.55 L 135.71 4.55 L 131.18 4.55 L 117.31 5.67 L 102.03 7.66 L 90.41 9.36 L 79.07 11.35 L 64.63 15.02 L 51.33 19.27 L 50.48 19.55 L 45.39 21.26 L 41.98 22.66 L 41.98 22.94 L 41.7 22.94 L 41.7 65.72 L 41.42 66 L 27.53 66 L 27.25 65.72 L 27.25 29.47 L 26.97 29.47 L 17.62 34.28 L 17.06 34.84 L 13.95 36.27 L 5.75 41.36 L 5.16 41.92 L 4.32 41.92 L 4.6 23.81 L 5.16 23.25 L 6.31 22.66 L 12.53 19.55 L 23.58 15.02 L 33.21 11.63 L 44.53 8.52 L 55.02 5.97 L 68.32 3.99 L 81.9 2.84 L 98.05 2 L 107.96 2 L 110.51 2.28 L 122.97 2.28 L 124.11 2.56 L 140.24 3.43 L 142.23 3.71 L 142.51 3.71 L 142.51 3.99 L 133.44 6.82 L 126.36 9.64 L 126.08 9.92 L 124.11 10.79 L 117.87 13.62 L 109.95 18.43 L 101.44 24.37 L 101.16 24.65 L 97.49 27.48 L 91.53 32.57 L 90.97 33.44 L 88.7 35.71 L 87.02 37.39 L 87.02 37.67 L 87.86 38.82 L 99.18 53.26 L 99.48 53.26 L 99.48 53.54 L 99.76 53.54 L 99.76 54.1 L 109.09 65.72 L 109.09 66 L 92.68 66 L 80.5 50.43 L 80.22 50.15 L 78.79 48.45 L 78.51 47.88 L 78.23 47.88 L 77.39 49.01 L 71.99 56.65 L 67.18 65.16 L 66.89 65.72 L 66.89 66 L 51.33 66 Z" class="g1n" style="fill: rgb(1, 65, 130);"/>
</svg>