<?xml version="1.0" encoding="UTF-8" standalone="no"?>
<svg
   viewBox="0 0 68 68"
   version="1.1"
   id="svg4"
   sodipodi:docname="Utsunomiya_Takasaki_UTL.svg"
   xml:space="preserve"
   inkscape:version="1.3.2 (091e20e, 2023-11-25, custom)"
   xmlns:inkscape="http://www.inkscape.org/namespaces/inkscape"
   xmlns:sodipodi="http://sodipodi.sourceforge.net/DTD/sodipodi-0.dtd"
   xmlns="http://www.w3.org/2000/svg"
   xmlns:svg="http://www.w3.org/2000/svg"
   xmlns:rdf="http://www.w3.org/1999/02/22-rdf-syntax-ns#"
   xmlns:cc="http://creativecommons.org/ns#"><defs
     id="defs4" /><sodipodi:namedview
     id="namedview4"
     pagecolor="#a74d4d"
     bordercolor="#000000"
     borderopacity="0.25"
     inkscape:showpageshadow="2"
     inkscape:pageopacity="0.0"
     inkscape:pagecheckerboard="0"
     inkscape:deskcolor="#d1d1d1"
     inkscape:zoom="6.9411765"
     inkscape:cx="0.79237288"
     inkscape:cy="17.648305"
     inkscape:window-width="1920"
     inkscape:window-height="1017"
     inkscape:window-x="1358"
     inkscape:window-y="-8"
     inkscape:window-maximized="1"
     inkscape:current-layer="svg4" /><path
     class="cls-2"
     d="M 59.6,59.6 H 8.4 V 8.4 H 59.6 Z M 59.6,2 H 8.4 C 4.86,1.98 1.98,4.86 2,8.4 v 51.2 c -0.02,3.54 2.86,6.42 6.4,6.4 h 51.2 c 3.54,0.02 6.42,-2.86 6.4,-6.4 V 8.4 C 66.02,4.86 63.14,1.98 59.6,2"
     style="display:inline;fill:#85c023;stroke:#ffffff;stroke-width:4px"
     id="path1" /><metadata
     id="metadata4"><rdf:RDF><cc:Work
         rdf:about="" /></rdf:RDF></metadata><g
     id="レイヤー_1-2"
     data-name="レイヤー 1"
     transform="matrix(0.60377358,0,0,0.60377261,2.0000002,2.0000103)"
     style="display:inline"><path
       class="cls-1"
       d="M 95.4,0 A 10.54,10.54 0 0 1 106,10.6 V 95.4 A 10.54,10.54 0 0 1 95.4,106 H 10.6 A 10.54,10.54 0 0 1 0,95.4 V 10.6 A 10.54,10.54 0 0 1 10.6,0 h 84.8"
       style="fill:#ffffff"
       id="path1-3" /><rect
       class="cls-1"
       x="10.6"
       y="10.6"
       width="84.800003"
       height="84.800003"
       style="fill:#ffffff"
       id="rect1-0" /><path
       class="cls-2"
       d="M 95.4,95.4 H 10.6 V 10.6 H 95.4 Z M 95.4,0 H 10.6 A 10.54,10.54 0 0 0 0,10.6 V 95.4 A 10.54,10.54 0 0 0 10.6,106 H 95.4 A 10.54,10.54 0 0 0 106,95.4 V 10.6 A 10.54,10.54 0 0 0 95.4,0"
       style="fill:#ff9845"
       id="path2" /><path
       class="cls-3"
       d="m 17.1,67.9 a 11.69,11.69 0 0 0 4.5,0.8 c 6.1,0 6.1,-4.9 6.1,-8.3 V 29.1 h 9.4 V 65 c 0,5 -3.2,12 -12.9,12 A 25.39,25.39 0 0 1 17,76.1 v -8.2 z"
       style="fill:#231815"
       id="path3" /><path
       class="cls-3"
       d="m 46.9,29.1 h 9.4 v 27.1 c 0,8 2.6,13.3 9.8,13.3 7.2,0 9.8,-5.3 9.8,-13.3 V 29.1 h 9.4 v 30 C 85.3,71.7 78.2,76.9 66.1,76.9 54,76.9 46.9,71.7 46.9,59.1 Z"
       style="fill:#231815"
       id="path4" /></g></svg>
