<?xml version="1.0" encoding="utf-8"?>
<svg viewBox="0 0 68 50.5" xmlns="http://www.w3.org/2000/svg">
  <defs>
    <linearGradient id="gradient-1" x1="61.93" y1="40.23" x2="146.74" y2="125.03" gradientUnits="userSpaceOnUse" gradientTransform="matrix(0.451562, 0, 0, 0.451562, 55.477711, -137.672535)">
      <stop offset="0" stop-color="#fabe00"/>
      <stop offset="1" stop-color="#e9aa00"/>
    </linearGradient>
  </defs>
  <g id="Layer_2" data-name="Layer 2" transform="matrix(1, 0, 0, 1, -59.880428, 133.804764)">
    <g id="symbol">
      <path d="M 127.88 -86.79 L 127.88 -85.4 C 127.8 -84.97 127.54 -84.17 127.25 -83.89 C 126.97 -83.6 126.17 -83.34 125.74 -83.26 L 93.11 -83.26 C 86.82 -83.27 68.62 -86.1 66.06 -86.62 C 65.45 -86.75 63.93 -87.02 62.62 -87.84 C 61.36 -88.64 59.88 -90.57 59.88 -93 C 59.88 -96.38 65.1 -102.21 70.57 -108.62 C 75.55 -114.46 80.97 -120.07 86.65 -125.25 C 89.2 -127.3 90.65 -127.69 92.72 -128.13 L 120.15 -133.79 L 120.25 -133.8 C 120.84 -133.83 121.89 -133.72 122.24 -133.42 C 122.57 -133.14 122.89 -132.28 123 -131.8 L 123 -129.95 C 122.86 -129.39 122.17 -128.39 121.72 -127.99 C 108.8 -122.46 104.28 -120.39 102.14 -119.34 C 101.13 -118.9 101.04 -118.74 100.01 -117.26 C 99.05 -115.91 97.74 -113.96 95.57 -110.4 C 91.93 -104.48 90.85 -103.2 91.05 -102.31 C 90.94 -101.23 90.92 -101.48 92.13 -100.89 C 93.69 -100.14 96.51 -99.3 101.53 -97.51 C 122.2 -90.17 126.53 -88.78 126.53 -88.78 C 126.8 -88.63 127.29 -88.29 127.48 -88.04 C 127.65 -87.8 127.82 -87.16 127.88 -86.79 Z M 118.61 -87.26 C 114.84 -88.57 109.03 -90.61 100.19 -93.75 C 95.28 -95.49 92.23 -96.4 90.39 -97.29 C 88.19 -98.36 87.23 -100.16 87.05 -102.23 C 87.19 -104.28 88.57 -106.64 92.15 -112.5 C 94.38 -116.12 95.75 -118.19 96.75 -119.58 C 97.98 -121.3 98.79 -122.08 100.36 -122.92 C 101.96 -123.71 104.88 -125.06 111.41 -127.9 L 93.53 -124.21 C 91.38 -123.75 90.84 -123.82 89.29 -122.25 C 83.71 -117.15 78.51 -111.78 73.61 -106.02 C 68.1 -99.57 63.88 -95.04 63.88 -93 C 63.88 -91.82 64.05 -91.67 64.76 -91.23 C 65.42 -90.81 66.19 -90.67 66.86 -90.54 C 69.32 -90.04 87.12 -87.25 93.11 -87.26 Z" style="fill: rgb(255, 255, 255);"/>
    </g>
  </g>
  <g id="g-1" data-name="Layer 2" transform="matrix(1, 0, 0, 1, -59.879574, 133.809479)">
    <g id="g-2">
      <path d="M 125.79 -86.92 C 125.79 -86.92 121.56 -88.28 100.86 -95.63 C 90.93 -99.16 89.12 -99.12 89.05 -102.27 C 89.02 -103.74 90.25 -105.56 93.86 -111.45 C 96.06 -115.04 97.4 -117.05 98.38 -118.42 C 99.51 -120.02 99.96 -120.49 101.25 -121.13 C 103.41 -122.19 107.99 -124.29 120.93 -129.83 C 120.97 -129.85 121 -129.9 121 -129.95 L 121 -131.8 C 121 -131.87 120.94 -131.92 120.88 -131.9 L 93.12 -126.17 C 91.01 -125.72 90.02 -125.56 87.97 -123.75 C 82.34 -118.61 77.03 -113.12 72.09 -107.32 C 66.6 -100.89 61.88 -95.71 61.88 -93 C 61.88 -89.39 65.18 -88.84 66.46 -88.58 C 68.97 -88.07 86.97 -85.26 93.11 -85.26 L 125.74 -85.26 C 125.82 -85.26 125.88 -85.32 125.88 -85.4 L 125.88 -86.79 C 125.88 -86.85 125.84 -86.9 125.79 -86.92 Z" fill="url(#gradient-1)"/>
    </g>
  </g>
</svg>