<?xml version="1.0" encoding="UTF-8" standalone="no"?>
<svg
   viewBox="0 0 68 68"
   version="1.1"
   id="svg4"
   sodipodi:docname="Yokosuka.svg"
   xml:space="preserve"
   inkscape:version="1.3.2 (091e20e, 2023-11-25, custom)"
   xmlns:inkscape="http://www.inkscape.org/namespaces/inkscape"
   xmlns:sodipodi="http://sodipodi.sourceforge.net/DTD/sodipodi-0.dtd"
   xmlns="http://www.w3.org/2000/svg"
   xmlns:svg="http://www.w3.org/2000/svg"
   xmlns:rdf="http://www.w3.org/1999/02/22-rdf-syntax-ns#"
   xmlns:cc="http://creativecommons.org/ns#"
   xmlns:dc="http://purl.org/dc/elements/1.1/"><defs
     id="defs4" /><sodipodi:namedview
     id="namedview4"
     pagecolor="#a74d4d"
     bordercolor="#000000"
     borderopacity="0.25"
     inkscape:showpageshadow="2"
     inkscape:pageopacity="0.0"
     inkscape:pagecheckerboard="0"
     inkscape:deskcolor="#d1d1d1"
     inkscape:zoom="4.908153"
     inkscape:cx="7.4366061"
     inkscape:cy="39.627942"
     inkscape:window-width="1920"
     inkscape:window-height="1017"
     inkscape:window-x="1358"
     inkscape:window-y="-8"
     inkscape:window-maximized="1"
     inkscape:current-layer="svg4" /><title
     id="title1">jy</title><path
     class="cls-2"
     d="M 59.6 59.6 L 8.4 59.6 L 8.4 8.4 L 59.6 8.4 L 59.6 59.6 Z M 59.6 2 L 8.4 2 C 4.86 1.98 1.98 4.86 2 8.4 L 2 59.6 C 1.98 63.14 4.86 66.02 8.4 66 L 59.6 66 C 63.14 66.02 66.02 63.14 66 59.6 L 66 8.4 C 66.02 4.86 63.14 1.98 59.6 2"
     style="fill: rgb(133, 192, 35); stroke-width: 4px; stroke: rgb(255, 255, 255);"
     id="path1" /><g
     id="レイヤー_1-2-4"
     data-name="レイヤー 1"
     transform="matrix(0.603772,0,0,0.603772,2.00008,2.00008)"
     style="display:inline"><rect
       class="cls-1"
       x="10.6"
       y="10.6"
       width="84.800003"
       height="84.800003"
       style="fill:#ffffff"
       id="rect1" /><path
       class="cls-2"
       d="M 95.4,95.4 H 10.6 V 10.6 H 95.4 Z M 95.4,0 H 10.6 A 10.54,10.54 0 0 0 0,10.6 V 95.4 A 10.54,10.54 0 0 0 10.6,106 H 95.4 A 10.54,10.54 0 0 0 106,95.4 V 10.6 A 10.54,10.54 0 0 0 95.4,0"
       style="fill:#0074be"
       id="path1-8" /><path
       class="cls-3"
       d="m 15.2,67.9 a 11.69,11.69 0 0 0 4.5,0.8 c 6.1,0 6.1,-4.9 6.1,-8.3 V 29.1 h 9.4 V 65 c 0,5 -3.2,12 -12.9,12 a 25.39,25.39 0 0 1 -7.2,-0.9 v -8.2 z"
       style="fill:#231815"
       id="path2-8" /><path
       class="cls-3"
       d="m 66.1,28.3 c 14.8,0 23,10 23,24.2 0,14.2 -8.2,24.4 -23,24.4 -15.1,0 -23,-10 -23,-24.4 0,-14.4 8,-24.2 23,-24.2 m 0,41.2 c 9.6,0 13.2,-8.6 13.2,-17 0,-8.4 -3.8,-16.8 -13.2,-16.8 -9.4,0 -13.2,8.5 -13.2,16.8 0,8.5 3.6,17 13.2,17"
       style="fill:#231815"
       id="path3-1" /></g><metadata
     id="metadata4"><rdf:RDF><cc:Work
         rdf:about=""><dc:title>jy</dc:title></cc:Work></rdf:RDF></metadata></svg>
