<?xml version="1.0" encoding="utf-8"?>
<svg viewBox="0 0 68 68" xmlns="http://www.w3.org/2000/svg">
  <path d="M 66 34.01 C 66 51.69 51.69 66 33.99 66 C 16.31 66 2 51.69 2 34.01 C 2 16.31 16.31 2 33.99 2 C 51.69 2 66 16.31 66 34.01" style="fill: rgb(8, 148, 212); fill-opacity: 1; stroke-width: 4px; stroke: rgb(255, 255, 255);"/>
  <path d="M 66 34.01 C 66 51.69 51.69 66 33.99 66 C 16.31 66 2 51.69 2 34.01 C 2 16.31 16.31 2 33.99 2 C 51.69 2 66 16.31 66 34.01" style="fill: rgb(8, 148, 212); fill-opacity: 1;"/>
  <path d="M 47.66 35.27 C 47.49 39.38 45.29 43.35 42.09 45.03 C 39.07 46.62 36.62 46.97 32.92 46.97 C 29.3 46.97 26.94 46.62 24.16 45.03 C 21.21 43.35 19.45 39.38 19.61 35.27 L 20.36 21.03 L 28.7 21.03 L 27.86 37.11 C 27.78 38.71 28.21 39.98 29.21 41.07 C 30.14 42.08 31.57 42.08 33.25 42.17 C 34.6 42.08 36.12 42.08 37.38 41.07 C 38.56 39.73 39.07 38.46 39.14 37.11 L 39.91 21.03 L 48.41 21.03 L 47.66 35.27 Z" style="fill: rgb(255, 255, 255); fill-opacity: 1;"/>
  <path d="M 64.28 34.05 C 64.28 42.29 60.83 49.96 55.35 55.35 C 49.96 60.83 42.3 64.28 33.96 64.28 C 25.72 64.28 18.05 60.83 12.66 55.35 C 7.18 49.96 3.73 42.29 3.73 34.05 C 3.73 25.71 7.18 18.05 12.66 12.66 C 18.05 7.18 25.72 3.73 33.96 3.73 C 42.3 3.73 49.96 7.18 55.35 12.66 C 60.83 18.05 64.28 25.71 64.28 34.05 Z M 54.34 13.67 C 49.12 8.36 41.97 5.24 33.96 5.24 C 25.97 5.24 18.9 8.36 13.68 13.67 C 8.37 18.89 5.24 26.04 5.24 34.05 C 5.24 42.04 8.37 49.11 13.68 54.33 C 18.9 59.64 25.97 62.77 33.96 62.77 C 41.97 62.77 49.12 59.64 54.34 54.33 C 59.65 49.11 62.77 42.04 62.77 34.05 C 62.77 26.04 59.65 18.89 54.34 13.67 Z" style="fill: rgb(255, 255, 255);"/>
</svg>