<?xml version="1.0" encoding="utf-8"?>
<svg viewBox="0 0 64 64" xmlns="http://www.w3.org/2000/svg">
  <ellipse style="fill: rgb(255, 255, 255);" cx="32" cy="32" rx="30" ry="30"/>
  <path d="M 32 0 C 14.34 0 0 14.34 0 32 C 0 49.66 14.34 64 32 64 C 49.66 64 64 49.66 64 32 C 64 14.34 49.66 0 32 0 M 50 37.81 C 52.09 42.67 51.13 47.86 49.21 52.26 C 48.48 52.15 47.75 52.32 47.13 52.77 C 46.5 53.22 46.11 53.84 46 54.57 C 41.2 55.03 36.01 54.41 32 50.91 C 28.05 54.41 22.86 55.08 18.06 54.57 C 17.89 53.9 17.5 53.22 16.93 52.77 C 16.31 52.32 15.58 52.2 14.84 52.26 C 12.92 47.86 11.96 42.72 14 37.87 C 9.48 35.16 7.22 30.42 6.21 25.68 C 6.83 25.34 7.34 24.78 7.56 24.04 C 7.79 23.37 7.73 22.57 7.39 21.95 C 11.01 18.74 15.63 16.2 20.88 16.71 C 22.01 11.51 25.85 7.96 30.02 5.47 C 30.53 5.98 31.27 6.32 32 6.32 C 32.73 6.32 33.41 5.98 33.98 5.47 C 38.1 7.96 41.93 11.51 43.12 16.65 C 48.37 16.2 52.99 18.74 56.61 21.9 C 56.27 22.57 56.21 23.31 56.44 24.04 C 56.66 24.78 57.17 25.28 57.79 25.68 C 56.78 30.36 54.52 35.1 50 37.81" style="fill: rgb(244, 71, 122); fill-opacity: 1;"/>
  <path d="M 17.61 38.83 C 18.23 39.05 19.41 39.62 21.05 39.62 C 23.31 39.62 25.06 38.55 25.06 36.74 C 25.06 34.65 23.14 33.98 21.22 33.3 C 18.96 32.51 15.58 31.32 15.58 27.26 C 15.58 23.82 18.23 20.83 22.52 20.83 C 24.66 20.83 26.47 21.62 26.86 21.84 C 27.48 22.29 27.65 22.74 27.65 23.31 C 27.65 24.32 26.92 25.17 26.13 25.17 C 25.9 25.17 25.28 24.95 24.89 24.78 C 24.16 24.49 23.42 24.32 22.57 24.32 C 20.37 24.32 19.36 25.79 19.36 27.03 C 19.36 28.84 20.88 29.35 22.63 29.97 C 25.51 30.98 28.9 32.11 28.9 36.4 C 28.9 40.35 25.79 43.12 21.22 43.12 C 20.37 43.12 18.17 43.01 15.97 41.93 C 15.63 41.76 14.9 41.31 14.9 40.35 C 14.9 39.51 15.46 38.49 16.54 38.49 C 16.82 38.49 17.1 38.6 17.61 38.83" style="fill: rgb(44, 46, 53); fill-opacity: 1;"/>
  <path d="M 43.12 34.31 L 39.84 25.06 L 36.57 34.31 L 43.12 34.31 Z M 35.44 37.53 L 34.14 41.26 C 33.69 42.55 33.47 43.12 32.23 43.12 C 31.49 43.12 30.08 42.72 30.08 41.54 C 30.08 41.14 30.25 40.69 30.48 40.01 L 36.68 23.53 C 37.19 22.18 37.7 20.88 39.9 20.88 C 42.05 20.88 42.55 22.24 43.01 23.53 L 49.27 40.01 C 49.55 40.86 49.66 41.2 49.66 41.54 C 49.66 42.72 48.31 43.12 47.46 43.12 C 46.22 43.12 46.05 42.5 45.6 41.26 L 44.3 37.53 L 35.44 37.53 Z" style="fill: rgb(44, 46, 53); fill-opacity: 1;"/>
</svg>