<?xml version="1.0" encoding="utf-8"?>
<svg viewBox="350.56 80.324 42.964 40.473" xmlns="http://www.w3.org/2000/svg">
  <g transform="matrix(1, 0, 0, 1, 286.237689, -351.236267)">
    <title>TM Gi</title>
    <circle style="stroke-width: 9px; fill: rgb(255, 255, 255); stroke: rgb(255, 149, 0);" cx="86.116" cy="452.108" r="13"/>
    <path d="M 89.508 457.029 Q 87.882 457.944 86.161 457.944 Q 84.015 457.944 82.689 456.487 Q 81.363 455.029 81.363 452.663 Q 81.363 450.276 82.792 448.679 Q 84.22 447.082 86.607 447.082 Q 87.992 447.082 89.295 447.639 L 89.295 448.43 Q 87.867 447.741 86.505 447.741 Q 84.52 447.741 83.315 449.096 Q 82.11 450.451 82.11 452.553 Q 82.11 454.765 83.242 456.021 Q 84.374 457.278 86.293 457.278 Q 87.713 457.278 88.783 456.662 L 88.783 453.198 L 86.307 453.198 L 86.307 452.539 L 89.508 452.539 Z" style="stroke: rgb(0, 0, 0); stroke-miterlimit: 3; stroke-width: 2px; white-space: pre;"/>
  </g>
</svg>