<?xml version="1.0" encoding="utf-8"?>
<svg viewBox="0 0 64 64" xmlns="http://www.w3.org/2000/svg">
  <defs>
    <linearGradient id="グラデーション再現" x1="61.93" y1="40.23" x2="146.74" y2="125.03" gradientUnits="userSpaceOnUse" gradientTransform="matrix(0.451562, 0, 0, 0.451562, 55.477711, -137.672535)">
      <stop offset="0" stop-color="#fabe00"/>
      <stop offset="1" stop-color="#e9aa00"/>
    </linearGradient>
  </defs>
  <g id="Layer_2" data-name="Layer 2" transform="matrix(1, 0, 0, 1, -61.880856, 140.585281)">
    <g id="symbol">
      <path d="M 125.79 -86.92 C 125.79 -86.92 121.56 -88.28 100.86 -95.63 C 90.93 -99.16 89.12 -99.12 89.05 -102.27 C 89.02 -103.74 90.25 -105.56 93.86 -111.45 C 96.06 -115.04 97.4 -117.05 98.38 -118.42 C 99.51 -120.02 99.96 -120.49 101.25 -121.13 C 103.41 -122.19 107.99 -124.29 120.93 -129.83 C 120.97 -129.85 121 -129.9 121 -129.95 L 121 -131.8 C 121 -131.87 120.94 -131.92 120.88 -131.9 L 93.12 -126.17 C 91.01 -125.72 90.02 -125.56 87.97 -123.75 C 82.34 -118.61 77.03 -113.12 72.09 -107.32 C 66.6 -100.89 61.88 -95.71 61.88 -93 C 61.88 -89.39 65.18 -88.84 66.46 -88.58 C 68.97 -88.07 86.97 -85.26 93.11 -85.26 L 125.74 -85.26 C 125.82 -85.26 125.88 -85.32 125.88 -85.4 L 125.88 -86.79 C 125.88 -86.85 125.84 -86.9 125.79 -86.92 Z" fill="url(#グラデーション再現)"/>
    </g>
  </g>
</svg>