<?xml version="1.0" encoding="utf-8"?>
<svg viewBox="0 0 35 35" xmlns="http://www.w3.org/2000/svg">
  <g transform="matrix(1, 0, 0, 1, -68.639999, -430.759003)">
    <title>Ke Ho</title>
    <circle style="fill: rgb(255, 255, 255); stroke-width: 4px; stroke: rgb(0, 163, 251);" cx="86.14" cy="448.259" r="15.5"/>
    <path d="M 77.276 440.54 L 78.748 440.54 L 78.748 446.829 L 83.998 446.829 L 83.998 440.54 L 85.471 440.54 L 85.471 455.478 L 83.998 455.478 L 83.998 448.489 L 78.748 448.489 L 78.748 455.478 L 77.276 455.478 L 77.276 440.54 Z M 88.156 444.471 C 88.156 443.364 88.455 442.403 89.053 441.588 C 89.651 440.773 90.568 440.365 91.806 440.365 C 93.129 440.365 94.132 440.831 94.815 441.763 C 95.412 442.578 95.711 443.539 95.711 444.646 L 94.239 444.646 C 94.239 443.947 94.068 443.365 93.726 442.899 C 93.343 442.375 92.745 442.113 91.934 442.113 C 91.038 442.113 90.419 442.346 90.078 442.811 C 89.779 443.219 89.629 443.685 89.629 444.209 C 89.629 444.733 89.715 445.112 89.885 445.346 C 90.098 445.636 90.482 445.927 91.038 446.219 C 92.019 446.801 93.129 447.47 94.366 448.227 C 94.708 448.402 95.028 448.693 95.326 449.102 C 95.796 449.742 96.031 450.499 96.031 451.372 C 96.031 452.537 95.733 453.527 95.135 454.343 C 94.495 455.216 93.449 455.653 91.998 455.653 C 90.59 455.653 89.501 455.129 88.733 454.08 C 88.178 453.323 87.901 452.217 87.901 450.762 L 89.373 450.762 C 89.373 451.809 89.544 452.566 89.885 453.032 C 90.355 453.673 91.08 453.993 92.062 453.993 C 92.958 453.993 93.62 453.702 94.047 453.12 C 94.388 452.653 94.558 452.188 94.558 451.722 C 94.558 451.197 94.431 450.761 94.175 450.412 C 93.961 450.12 93.62 449.829 93.151 449.537 C 92.723 449.247 92.168 448.898 91.485 448.489 C 90.717 448.024 90.098 447.646 89.629 447.354 C 89.288 447.179 88.989 446.917 88.733 446.568 C 88.348 446.044 88.156 445.345 88.156 444.471 Z" style="fill: rgb(0, 163, 251); stroke: rgb(0, 163, 251); white-space: pre; stroke-width: 0.831528px;"/>
  </g>
</svg>