<?xml version="1.0" encoding="utf-8"?>
<svg viewBox="0 0 64 64" xmlns="http://www.w3.org/2000/svg">
  <g transform="matrix(1.802817, 0, 0, 1.802817, -396.824005, -363.416412)">
    <title>Izuhakone Daiyuzan</title>
    <circle style="fill: rgb(49, 109, 187);" transform="matrix(1, 0, 0, 0.999999, -55.136707, -166.167084)" cx="293" cy="385.5" r="17.75"/>
    <path d="M 227.163 228.915 L 227.163 209.588 L 231.065 209.588 L 231.065 228.915 Z M 234.769 209.588 L 241.901 209.588 Q 244.314 209.588 245.579 209.957 Q 247.28 210.458 248.493 211.737 Q 249.706 213.016 250.338 214.868 Q 250.971 216.72 250.971 219.436 Q 250.971 221.822 250.378 223.549 Q 249.653 225.659 248.308 226.964 Q 247.293 227.953 245.566 228.506 Q 244.274 228.915 242.112 228.915 L 234.769 228.915 Z M 238.671 212.857 L 238.671 225.659 L 241.585 225.659 Q 243.219 225.659 243.944 225.474 Q 244.894 225.237 245.52 224.67 Q 246.146 224.103 246.542 222.804 Q 246.937 221.506 246.937 219.265 Q 246.937 217.023 246.542 215.824 Q 246.146 214.624 245.434 213.952 Q 244.722 213.279 243.628 213.042 Q 242.811 212.857 240.424 212.857 Z" style="fill: rgb(255, 255, 255); white-space: pre;"/>
  </g>
</svg>