<?xml version="1.0" encoding="utf-8"?>
<svg viewBox="0 0 64 64" xmlns="http://www.w3.org/2000/svg">
  <g transform="matrix(1.828572, 0, 0, 1.828572, -1018.270203, -429.498932)">
    <title>Ke Ke</title>
    <circle style="stroke-width: 3.99999px; fill: rgb(255, 255, 255);" transform="matrix(1, 0, 0, 1.000003, -391.133667, -190.119232)" cx="965.5" cy="442.5" r="15.5"/>
    <path d="M 983 442.5 C 983 447.19 980.93 451.82 977.87 454.87 C 974.82 457.93 970.19 460 965.5 460 C 960.81 460 956.18 457.93 953.13 454.87 C 950.07 451.82 948 447.19 948 442.5 C 948 437.81 950.07 433.18 953.13 430.13 C 956.18 427.07 960.81 425 965.5 425 C 970.19 425 974.82 427.07 977.87 430.13 C 980.93 433.18 983 437.81 983 442.5 Z M 975.05 432.95 C 972.49 430.4 969.37 429 965.5 429 C 961.63 429 958.51 430.4 955.95 432.95 C 953.4 435.51 952 438.63 952 442.5 C 952 446.37 953.4 449.49 955.95 452.05 C 958.51 454.6 961.63 456 965.5 456 C 969.37 456 972.49 454.6 975.05 452.05 C 977.6 449.49 979 446.37 979 442.5 C 979 438.63 977.6 435.51 975.05 432.95 Z" style="fill: rgb(0, 150, 224);" transform="matrix(1, 0, 0, 1.0000029802322388, -391.1336669921875, -190.11923217773438)"/>
    <path d="M 573.58 258.71 L 570.65 258.71 L 565.94 252.92 C 565.76 252.7 565.66 252.56 565.62 252.48 L 565.58 252.48 L 565.58 258.71 L 563.33 258.71 L 563.33 246.06 L 565.58 246.06 L 565.58 252 L 565.62 252 C 565.69 251.87 565.8 251.73 565.94 251.57 L 570.48 246.06 L 573.18 246.06 L 567.86 252.13 L 573.58 258.71 Z M 585.4 258.71 L 582.47 258.71 L 577.76 252.92 C 577.58 252.7 577.47 252.56 577.44 252.48 L 577.4 252.48 L 577.4 258.71 L 575.15 258.71 L 575.15 246.06 L 577.4 246.06 L 577.4 252 L 577.44 252 C 577.51 251.87 577.62 251.73 577.76 251.57 L 582.3 246.06 L 584.99 246.06 L 579.67 252.13 L 585.4 258.71 Z" style="white-space: pre;"/>
  </g>
</svg>