<?xml version="1.0" encoding="utf-8"?>
<svg viewBox="0 0 64 64" xmlns="http://www.w3.org/2000/svg">
  <path d="M 64 31.93 C 64 49.71 49.64 64 32 64 C 14.36 64 0 49.71 0 31.93 C 0 14.29 14.36 0 32 0 C 49.64 0 64 14.29 64 31.93" style="fill: rgb(55, 195, 239); fill-opacity: 1;"/>
  <path d="M 55.96 31.97 C 55.96 45.27 45.3 56 32 56 C 18.77 56 8.04 45.27 8.04 31.97 C 8.04 18.81 18.77 8 32 8 C 45.3 8 55.96 18.81 55.96 31.97" style="fill: rgb(255, 255, 255); fill-opacity: 1;"/>
  <path d="M 12.87 21.09 L 17.21 21.09 L 17.21 30.48 L 25.03 21.09 L 30.44 21.09 L 21.48 31.4 L 30.86 42.85 L 25.17 42.85 L 17.28 32.82 L 17.21 32.82 L 17.21 42.85 L 12.87 42.85 L 12.87 21.09 Z" style="fill: rgb(27, 42, 108); fill-opacity: 1;"/>
  <path d="M 35.34 21.09 L 39.68 21.09 L 39.68 30.48 L 47.57 21.09 L 52.91 21.09 L 43.95 31.4 L 53.19 42.85 L 47.57 42.85 L 39.68 32.82 L 39.68 42.85 L 35.34 42.85 L 35.34 21.09 Z" style="fill: rgb(27, 42, 108); fill-opacity: 1;"/>
</svg>