<?xml version="1.0" encoding="utf-8"?>
<svg viewBox="0 0 35 35" xmlns="http://www.w3.org/2000/svg">
  <g transform="matrix(1, 0, 0, 1, -320.795715, -96.903046)">
    <title>Ke KO</title>
    <circle style="stroke-width: 2px; stroke: rgb(198, 0, 118); fill: rgb(255, 255, 255);" transform="matrix(1, 0, 0, 1.000002, -51.204273, -263.097717)" cx="389.5" cy="377.5" r="16.5"/>
    <path d="M 337.589 120.796 L 334.16 120.796 L 328.642 115.025 C 328.436 114.808 328.31 114.662 328.266 114.585 L 328.221 114.585 L 328.221 120.796 L 325.589 120.796 L 325.589 108.181 L 328.221 108.181 L 328.221 114.11 L 328.266 114.11 C 328.354 113.981 328.48 113.838 328.642 113.68 L 333.961 108.181 L 337.113 108.181 L 330.887 114.234 L 337.589 120.796 Z" style="white-space: pre; stroke-width: 0.458263px; stroke: rgb(198, 0, 118); fill: rgb(198, 0, 118);"/>
    <rect x="339.604" y="108.891" width="10.5" height="10.95" style="stroke: rgb(198, 0, 118); stroke-width: 2.8px; fill: rgb(255, 255, 255);" rx="3.772" ry="3.772"/>
  </g>
</svg>