<?xml version="1.0" encoding="utf-8"?>
<svg viewBox="430.88 124.53 35 35" xmlns="http://www.w3.org/2000/svg">
  <g transform="matrix(1, 0, 0, 1, 362.243011, -306.22702)">
    <title>Ke Ke</title>
    <circle style="fill: rgb(255, 255, 255); stroke-width: 4px;" cx="86.14" cy="448.259" r="15.5"/>
    <path d="M 103.64 448.26 C 103.64 452.95 101.57 457.58 98.51 460.63 C 95.46 463.69 90.83 465.76 86.14 465.76 C 81.45 465.76 76.82 463.69 73.77 460.63 C 70.71 457.58 68.64 452.95 68.64 448.26 C 68.64 443.57 70.71 438.94 73.77 435.88 C 76.82 432.83 81.45 430.76 86.14 430.76 C 90.83 430.76 95.46 432.83 98.51 435.88 C 101.57 438.94 103.64 443.57 103.64 448.26 Z M 95.69 438.71 C 93.13 436.16 90.01 434.76 86.14 434.76 C 82.27 434.76 79.15 436.16 76.59 438.71 C 74.04 441.27 72.64 444.39 72.64 448.26 C 72.64 452.13 74.04 455.25 76.59 457.8 C 79.15 460.36 82.27 461.76 86.14 461.76 C 90.01 461.76 93.13 460.36 95.69 457.8 C 98.24 455.25 99.64 452.13 99.64 448.26 C 99.64 444.39 98.24 441.27 95.69 438.71 Z" style="fill: rgb(1, 102, 179);"/>
    <path d="M 82.87 457.127 L 77.245 450.811 Q 77.088 450.636 77.024 450.507 L 76.987 450.507 L 76.987 457.127 L 76.075 457.127 L 76.075 443.923 L 76.987 443.923 L 76.987 450.148 L 77.024 450.148 Q 77.134 449.954 77.263 449.825 L 82.603 443.923 L 83.791 443.923 L 78 450.323 L 84.15 457.127 Z M 87.592 456.657 L 87.592 455.617 Q 89.01 456.519 90.464 456.519 Q 92.011 456.519 92.812 455.879 Q 93.613 455.239 93.613 454.089 Q 93.613 453.076 93.075 452.473 Q 92.536 451.869 90.741 450.829 Q 88.733 449.66 88.199 448.872 Q 87.665 448.085 87.665 447.054 Q 87.665 445.654 88.752 444.678 Q 89.838 443.702 91.652 443.702 Q 92.831 443.702 94.009 444.098 L 94.009 445.056 Q 92.849 444.531 91.533 444.531 Q 90.188 444.531 89.401 445.212 Q 88.614 445.894 88.614 446.943 Q 88.614 447.956 89.152 448.555 Q 89.691 449.153 91.477 450.185 Q 93.328 451.234 93.94 452.049 Q 94.553 452.864 94.553 453.923 Q 94.553 455.442 93.498 456.4 Q 92.444 457.357 90.52 457.357 Q 89.838 457.357 88.95 457.145 Q 88.061 456.934 87.592 456.657 Z" transform="matrix(0.943801, 0, 0, 1.101102, 5.844236, -47.737545)" style="stroke: rgb(1, 102, 179); stroke-miterlimit: 3; stroke-width: 2px; white-space: pre;"/>
  </g>
</svg>