<?xml version="1.0" encoding="utf-8"?>
<svg viewBox="310.709 83.437 45.455 40.473" xmlns="http://www.w3.org/2000/svg">
  <g transform="matrix(1, 0, 0, 1, 245.764462, -348.538052)">
    <title>TM Ma</title>
    <circle style="stroke-width: 9px; fill: rgb(255, 255, 255); stroke: rgb(246, 46, 54);" cx="86.116" cy="452.108" r="13"/>
    <path d="M 90.152 456.922 L 90.152 449.963 Q 90.152 449.71 90.227 448.521 L 90.2 448.521 Q 89.988 449.074 89.844 449.375 L 86.358 456.922 L 86.139 456.922 L 82.639 449.416 Q 82.468 449.054 82.318 448.493 L 82.284 448.493 Q 82.332 449.15 82.332 449.799 L 82.332 456.922 L 81.655 456.922 L 81.655 447.119 L 82.284 447.119 L 85.941 455.015 Q 85.975 455.083 86.016 455.199 Q 86.057 455.316 86.105 455.432 Q 86.173 455.609 86.249 455.828 L 86.29 455.828 L 86.365 455.609 Q 86.372 455.582 86.597 454.96 L 90.2 447.119 L 90.801 447.119 L 90.801 456.922 Z" style="stroke: rgb(0, 0, 0); stroke-miterlimit: 3; stroke-width: 2px; white-space: pre;"/>
  </g>
</svg>