<?xml version="1.0" encoding="utf-8"?>
<svg viewBox="0 0 35 35" xmlns="http://www.w3.org/2000/svg">
  <g transform="matrix(1, 0, 0, 1, -260.524445, -90.588669)">
    <title>Tokyu Minatomirai</title>
    <circle style="fill: rgb(26, 85, 161);" transform="matrix(1, 0, 0, 1.000001, 96.524437, -22.411451)" cx="181.5" cy="130.5" r="17.5"/>
    <path style="stroke-width: 0.1px; stroke: rgb(255, 255, 255); fill: rgb(255, 255, 255);" d="M 265.425 118.043 L 266.573 107.29 C 266.617 106.924 266.56 106.639 266.111 106.638 L 261.597 107.02 C 266.704 104.099 272.305 104.757 279.305 107.085 C 283.121 108.354 283.694 108.338 286.667 108.922 C 284.122 108.417 279.995 106.929 278.471 106.171 L 281.066 97.665 L 288.516 97.665 L 289.631 109.112 C 290.96 109.161 293.603 108.767 294.308 108.623 C 294.213 109.125 289.831 110.611 289.794 110.581 L 290.529 118.004 L 283.731 118.031 L 283.078 110.037 L 282.545 109.928 L 279.978 118.004 L 276.063 118.031 L 273.153 108.922 L 272.365 118.058 L 265.425 118.043 Z"/>
    <path style="stroke-width: 0.1px; fill: rgb(255, 255, 255); stroke: rgb(255, 255, 255);" d="M 266.953 103.899 C 271.439 103.803 274.654 104.875 277.53 105.798 L 274.986 97.672 L 267.609 97.661 L 266.953 103.899 Z"/>
  </g>
</svg>