<?xml version="1.0" encoding="utf-8"?>
<svg viewBox="0 0 64 64" xmlns="http://www.w3.org/2000/svg">
  <rect x="4" y="4" width="56" height="56" style="fill: rgb(255, 255, 255);"/>
  <path d="M 53.25 63.97 L 10.75 63.97 C 4.81 63.97 0 59.62 0 54.24 L 0 9.82 C 0 4.39 4.81 0.03 10.75 0.03 L 53.25 0.03 C 59.19 0.03 64 4.39 64 9.82 L 64 54.24 C 64 59.62 59.19 63.97 53.25 63.97 M 10.75 5.41 C 7.81 5.41 5.38 7.39 5.38 9.82 L 5.38 54.24 C 5.38 56.67 7.81 58.6 10.75 58.6 L 53.25 58.6 C 56.19 58.6 58.62 56.67 58.62 54.24 L 58.62 9.82 C 58.62 7.39 56.19 5.41 53.25 5.41 L 10.75 5.41 Z" style="fill: rgb(249, 57, 149); fill-opacity: 1;"/>
  <path d="M 54.61 54.81 L 9.39 54.81 L 9.39 9.14 L 54.61 9.14 L 54.61 54.81 Z M 11.37 52.77 L 52.57 52.77 L 52.57 11.18 L 11.37 11.18 L 11.37 52.77 Z" style="fill: rgb(105, 194, 74); fill-opacity: 1;"/>
  <path d="M 15.28 20.01 L 20.43 20.01 L 28.41 38.79 L 28.46 38.79 L 28.46 20.01 L 32.42 20.01 L 32.42 43.89 L 27.16 43.89 L 19.3 25.27 L 19.18 25.27 L 19.18 43.89 L 15.28 43.89 L 15.28 20.01 Z" style="fill: rgb(44, 46, 53); fill-opacity: 1;"/>
  <path d="M 40.86 23.51 L 35.54 23.51 L 35.54 20.01 L 50.53 20.01 L 50.53 23.51 L 45.21 23.51 L 45.21 43.89 L 40.86 43.89 L 40.86 23.51 Z" style="fill: rgb(44, 46, 53); fill-opacity: 1;"/>
</svg>