<?xml version="1.0" encoding="utf-8"?>
<svg viewBox="0 0 35 35" xmlns="http://www.w3.org/2000/svg">
  <g transform="matrix(0.872822, 0, 0, 0.872822, 524.738342, -318.135864)">
    <title>Od OT</title>
    <rect x="-598.906" y="366.697" width="35.517" height="35.688" style="stroke-width: 4.87488px; fill: rgb(255, 255, 255); stroke: rgb(0, 133, 206);" rx="15.579" ry="15.579"/>
    <path d="M -592.264 384.546 C -592.264 383.294 -592.076 382.242 -591.701 381.391 C -591.422 380.764 -591.04 380.203 -590.557 379.704 C -590.072 379.206 -589.542 378.837 -588.967 378.596 C -588.199 378.272 -587.316 378.111 -586.314 378.111 C -584.502 378.111 -583.051 378.673 -581.964 379.797 C -580.876 380.921 -580.331 382.485 -580.331 384.488 C -580.331 386.473 -580.871 388.028 -581.951 389.149 C -583.031 390.271 -584.473 390.831 -586.281 390.831 C -588.11 390.831 -589.565 390.273 -590.645 389.157 C -591.724 388.042 -592.264 386.504 -592.264 384.546 Z M -589.704 384.462 C -589.704 385.856 -589.382 386.912 -588.74 387.63 C -588.096 388.349 -587.279 388.708 -586.289 388.708 C -585.299 388.708 -584.487 388.352 -583.852 387.638 C -583.216 386.924 -582.899 385.856 -582.899 384.429 C -582.899 383.019 -583.208 381.967 -583.827 381.274 C -584.444 380.581 -585.265 380.234 -586.289 380.234 C -587.313 380.234 -588.138 380.584 -588.765 381.286 C -589.39 381.989 -589.704 383.047 -589.704 384.462 Z M -575.626 390.622 L -575.626 380.401 L -579.276 380.401 L -579.276 378.32 L -569.5 378.32 L -569.5 380.401 L -573.142 380.401 L -573.142 390.622 L -575.626 390.622 Z" style="fill: rgb(0, 133, 206); white-space: pre; stroke-width: 0.25px; stroke: rgb(0, 133, 206);"/>
  </g>
</svg>