<?xml version="1.0" encoding="utf-8"?>
<svg viewBox="0 0 64 64" xmlns="http://www.w3.org/2000/svg">
  <g transform="matrix(1.58416, 0, 0, 1.58416, 952.634644, -577.046204)">
    <title>Od OE</title>
    <rect x="-598.91" y="366.7" width="35.52" height="35.52" style="stroke-width: 4.87488px; fill: rgb(255, 255, 255);" rx="15.58" ry="15.58"/>
    <path d="M -583.33 364.26 L -578.97 364.26 C -574.17 364.37 -569.36 366.41 -566.23 369.54 C -563.1 372.67 -561.06 377.48 -560.95 382.28 L -560.95 386.64 C -561.06 391.44 -563.1 396.25 -566.23 399.38 C -569.36 402.51 -574.17 404.55 -578.97 404.66 L -583.33 404.66 C -588.13 404.55 -592.94 402.51 -596.07 399.38 C -599.2 396.25 -601.24 391.44 -601.35 386.64 L -601.35 382.28 C -601.24 377.48 -599.2 372.67 -596.07 369.54 C -592.94 366.41 -588.13 364.37 -583.33 364.26 Z M -592.62 372.99 C -595.14 375.5 -596.58 378.48 -596.47 382.28 L -596.47 386.64 C -596.58 390.44 -595.14 393.42 -592.62 395.93 C -590.11 398.45 -587.13 399.89 -583.33 399.78 L -578.97 399.78 C -575.17 399.89 -572.19 398.45 -569.68 395.93 C -567.16 393.42 -565.72 390.44 -565.83 386.64 L -565.83 382.28 C -565.72 378.48 -567.16 375.5 -569.68 372.99 C -572.19 370.47 -575.17 369.03 -578.97 369.14 L -583.33 369.14 C -587.13 369.03 -590.11 370.47 -592.62 372.99 Z" style="fill: rgb(0, 133, 206);"/>
    <path d="M -592.76 384.54 C -592.76 383.28 -592.58 382.23 -592.2 381.38 C -591.92 380.75 -591.54 380.19 -591.06 379.69 C -590.57 379.2 -590.04 378.83 -589.47 378.59 C -588.7 378.26 -587.81 378.1 -586.81 378.1 C -585 378.1 -583.55 378.66 -582.46 379.79 C -581.37 380.91 -580.83 382.47 -580.83 384.48 C -580.83 386.46 -581.37 388.02 -582.45 389.14 C -583.53 390.26 -584.97 390.82 -586.78 390.82 C -588.61 390.82 -590.06 390.26 -591.14 389.15 C -592.22 388.03 -592.76 386.49 -592.76 384.54 Z M -590.2 384.45 C -590.2 385.84 -589.88 386.9 -589.24 387.62 C -588.6 388.34 -587.78 388.7 -586.79 388.7 C -585.8 388.7 -584.99 388.34 -584.35 387.63 C -583.72 386.91 -583.4 385.84 -583.4 384.42 C -583.4 383.01 -583.71 381.96 -584.33 381.26 C -584.94 380.57 -585.77 380.22 -586.79 380.22 C -587.81 380.22 -588.64 380.57 -589.26 381.28 C -589.89 381.98 -590.2 383.04 -590.2 384.45 Z M -578.89 390.61 L -578.89 378.31 L -569.77 378.31 L -569.77 380.39 L -576.41 380.39 L -576.41 383.12 L -570.23 383.12 L -570.23 385.19 L -576.41 385.19 L -576.41 388.54 L -569.54 388.54 L -569.54 390.61 L -578.89 390.61 Z" style="fill: rgb(0, 133, 206); white-space: pre; stroke-width: 0.25px; stroke: rgb(0, 133, 206);"/>
  </g>
</svg>