<?xml version="1.0" encoding="utf-8"?>
<svg viewBox="0 0 64 64" xmlns="http://www.w3.org/2000/svg">
  <g transform="matrix(1.58455, 0, 0, 1.57791, 952.853088, -574.769348)" style="">
    <title>Od OH</title>
    <rect x="-598.906" y="366.697" width="35.517" height="35.688" style="stroke-width: 4.87488px; fill: rgb(255, 255, 255);" rx="15.579" ry="15.579"/>
    <path d="M -583.33 364.26 L -578.97 364.26 C -574.17 364.37 -569.35 366.41 -566.23 369.54 C -563.1 372.66 -561.06 377.48 -560.95 382.28 L -560.95 386.81 C -561.06 391.61 -563.1 396.42 -566.23 399.55 C -569.35 402.67 -574.17 404.72 -578.97 404.82 L -583.33 404.82 C -588.13 404.72 -592.94 402.67 -596.07 399.55 C -599.19 396.42 -601.24 391.61 -601.34 386.81 L -601.34 382.28 C -601.24 377.48 -599.19 372.66 -596.07 369.54 C -592.94 366.41 -588.13 364.37 -583.33 364.26 Z M -592.62 372.98 C -595.13 375.5 -596.57 378.47 -596.47 382.28 L -596.47 386.81 C -596.57 390.61 -595.13 393.59 -592.62 396.1 C -590.11 398.61 -587.13 400.05 -583.33 399.95 L -578.97 399.95 C -575.16 400.05 -572.19 398.61 -569.68 396.1 C -567.16 393.59 -565.72 390.61 -565.83 386.81 L -565.83 382.28 C -565.72 378.47 -567.16 375.5 -569.68 372.98 C -572.19 370.47 -575.16 369.03 -578.97 369.13 L -583.33 369.13 C -587.13 369.03 -590.11 370.47 -592.62 372.98 Z" style="fill: rgb(0, 133, 206);"/>
    <path d="M -593 384.61 C -593 383.36 -592.81 382.31 -592.44 381.46 C -592.16 380.83 -591.78 380.27 -591.29 379.77 C -590.81 379.27 -590.28 378.91 -589.7 378.66 C -588.94 378.34 -588.05 378.18 -587.05 378.18 C -585.24 378.18 -583.79 378.74 -582.7 379.87 C -581.61 380.99 -581.07 382.55 -581.07 384.56 C -581.07 386.54 -581.61 388.1 -582.69 389.22 C -583.77 390.34 -585.21 390.9 -587.02 390.9 C -588.85 390.9 -590.3 390.34 -591.38 389.23 C -592.46 388.11 -593 386.57 -593 384.61 Z M -590.44 384.53 C -590.44 385.92 -590.12 386.98 -589.48 387.7 C -588.83 388.42 -588.02 388.78 -587.03 388.78 C -586.04 388.78 -585.22 388.42 -584.59 387.71 C -583.95 386.99 -583.64 385.92 -583.64 384.5 C -583.64 383.09 -583.95 382.04 -584.56 381.34 C -585.18 380.65 -586 380.3 -587.03 380.3 C -588.05 380.3 -588.88 380.65 -589.5 381.35 C -590.13 382.06 -590.44 383.12 -590.44 384.53 Z M -579.12 390.69 L -579.12 378.39 L -576.64 378.39 L -576.64 383.23 L -571.77 383.23 L -571.77 378.39 L -569.29 378.39 L -569.29 390.69 L -571.77 390.69 L -571.77 385.31 L -576.64 385.31 L -576.64 390.69 L -579.12 390.69 Z" style="fill: rgb(0, 133, 206); white-space: pre; stroke: rgb(0, 133, 206); stroke-width: 0.25px;"/>
  </g>
</svg>