<?xml version="1.0" encoding="utf-8"?>
<svg viewBox="0 0 64 64" xmlns="http://www.w3.org/2000/svg">
  <path d="M 64 31.96 C 64 49.62 49.62 64 31.96 64 C 14.3 64 0 49.62 0 31.96 C 0 14.3 14.3 0 31.96 0 C 49.62 0 64 14.3 64 31.96" style="fill: rgb(117, 213, 213); fill-opacity: 1;"/>
  <path d="M 56.14 32 C 56.14 45.37 45.38 56.13 32.01 56.13 C 18.64 56.13 7.87 45.37 7.87 32 C 7.87 18.71 18.64 7.86 32.01 7.86 C 45.38 7.86 56.14 18.71 56.14 32" style="fill: rgb(255, 255, 255); fill-opacity: 1;"/>
  <path d="M 53.66 32 C 53.66 43.94 43.9 53.61 31.96 53.61 C 20.02 53.61 10.34 43.94 10.34 32 C 10.34 20.06 20.02 10.38 31.96 10.38 C 43.9 10.38 53.66 20.06 53.66 32" style="fill: rgb(11, 54, 156); fill-opacity: 1;"/>
  <path d="M 32.04 23.63 L 27.33 23.63 L 27.33 30.36 L 32.04 30.36 C 34.23 30.36 35.66 28.93 35.66 26.99 C 35.66 24.98 34.23 23.63 32.04 23.63 M 35.91 44.82 L 30.87 34.56 L 27.33 34.56 L 27.33 44.82 L 22.29 44.82 L 22.29 19.17 L 32.3 19.17 C 37.59 19.17 40.62 22.7 40.62 26.99 C 40.62 30.61 38.43 32.8 36 33.72 L 41.71 44.82 L 35.91 44.82 Z" style="fill: rgb(255, 255, 255); fill-opacity: 1;"/>
</svg>