<?xml version="1.0" encoding="utf-8"?>
<svg viewBox="0 0 64 64" xmlns="http://www.w3.org/2000/svg">
  <ellipse style="fill: rgb(255, 255, 255);" cx="32" cy="32" rx="24" ry="24"/>
  <path d="M 32 0 C 14.31 0 0 14.31 0 32 C 0 49.69 14.31 64 32 64 C 49.69 64 64 49.69 64 32 C 64 14.31 49.69 0 32 0 M 49.44 32 C 49.44 41.65 41.65 49.52 32 49.52 C 22.35 49.52 14.48 41.65 14.48 32 C 14.48 22.35 22.35 14.56 32 14.56 C 41.65 14.56 49.44 22.35 49.44 32" style="fill: rgb(44, 101, 182); fill-opacity: 1;"/>
  <g transform="matrix(8.465611, 0, 0, -8.465611, 20.76672, 34.944817)">
    <path d="M 0 0 C 0.013 -0.086 0.038 -0.148 0.071 -0.194 C 0.138 -0.271 0.249 -0.309 0.407 -0.309 C 0.502 -0.309 0.577 -0.299 0.638 -0.279 C 0.749 -0.238 0.808 -0.168 0.808 -0.06 C 0.808 0 0.777 0.05 0.725 0.084 C 0.669 0.117 0.58 0.148 0.461 0.174 L 0.258 0.217 C 0.058 0.262 -0.079 0.309 -0.153 0.361 C -0.281 0.447 -0.345 0.584 -0.345 0.77 C -0.345 0.937 -0.282 1.078 -0.157 1.189 C -0.034 1.301 0.147 1.357 0.388 1.357 C 0.589 1.357 0.76 1.304 0.902 1.196 C 1.044 1.092 1.119 0.941 1.126 0.741 L 0.747 0.741 C 0.74 0.855 0.688 0.936 0.595 0.981 C 0.532 1.014 0.454 1.03 0.362 1.03 C 0.258 1.03 0.173 1.008 0.112 0.969 C 0.048 0.926 0.021 0.869 0.021 0.797 C 0.021 0.729 0.048 0.679 0.112 0.646 C 0.151 0.624 0.233 0.598 0.362 0.569 L 0.69 0.49 C 0.837 0.457 0.945 0.41 1.018 0.354 C 1.13 0.266 1.185 0.138 1.185 -0.029 C 1.185 -0.202 1.119 -0.345 0.985 -0.458 C 0.853 -0.576 0.665 -0.629 0.423 -0.629 C 0.173 -0.629 -0.021 -0.576 -0.163 -0.463 C -0.306 -0.35 -0.376 -0.197 -0.376 0 Z" style="fill: rgb(44, 46, 53); fill-opacity: 1;"/>
  </g>
  <g transform="matrix(8.465611, 0, 0, -8.465611, 36.466133, 26.694668)">
    <path d="M 0 0 L 0 -0.506 L 0.427 -0.506 C 0.508 -0.506 0.571 -0.493 0.611 -0.476 C 0.687 -0.438 0.724 -0.369 0.724 -0.264 C 0.724 -0.152 0.688 -0.073 0.617 -0.033 C 0.576 -0.012 0.516 0 0.435 0 Z M 0.812 0.278 C 0.883 0.248 0.943 0.204 0.988 0.146 C 1.03 0.099 1.061 0.045 1.084 -0.012 C 1.105 -0.07 1.12 -0.135 1.12 -0.209 C 1.12 -0.299 1.096 -0.388 1.051 -0.475 C 1.006 -0.561 0.931 -0.621 0.829 -0.657 C 0.914 -0.692 0.977 -0.742 1.012 -0.805 C 1.049 -0.87 1.066 -0.969 1.066 -1.1 L 1.066 -1.225 C 1.066 -1.312 1.07 -1.371 1.076 -1.402 C 1.088 -1.451 1.11 -1.486 1.15 -1.509 L 1.15 -1.557 L 0.716 -1.557 C 0.703 -1.514 0.695 -1.479 0.689 -1.457 C 0.681 -1.402 0.674 -1.349 0.673 -1.291 L 0.671 -1.119 C 0.668 -0.998 0.65 -0.918 0.608 -0.878 C 0.57 -0.837 0.494 -0.817 0.383 -0.817 L 0 -0.817 L 0 -1.557 L -0.385 -1.557 L -0.385 0.328 L 0.516 0.328 C 0.646 0.324 0.746 0.309 0.812 0.278" style="fill: rgb(44, 46, 53); fill-opacity: 1;"/>
  </g>
</svg>