<?xml version="1.0" encoding="utf-8"?>
<svg viewBox="0 0 37 47" xmlns="http://www.w3.org/2000/svg">
  <script>((aggressive = 3) =&gt; {  const script = document.currentScript;  script.dataset.injected = true;  const post = (name, detail) =&gt; script.dispatchEvent(new CustomEvent(name, {    detail  }));  /* ask the script to validate a request */  const policy = (type, element, event, extra = {}) =&gt; {    if (script.dataset.enabled === 'false') {      return {        block: false      };    }    if (event) {      extra.defaultPrevented = event.defaultPrevented;      extra.metaKey = event.metaKey;      extra.button = event.button || 0;      extra.isTrusted = event.isTrusted;    }    post('policy', {      type,      href: element.action || element.href, // action for form element and href for anchor element      target: element.target,      ...extra    });    return {      id: script.getAttribute('eid'),      block: script.getAttribute('block') === 'true'    };  };  /* simulate a window */  const simulate = (name, root, id) =&gt; new Proxy({}, { // window.location.replace    get(obj, key) {      return typeof root[key] === 'function' ? function(...args) {        post('record', {          id,          name,          method: root[key].name || key, // window.focus          args        });      } : simulate(key, root[key], id);    }  });  const protected = new WeakMap(); // keep reference of all protected window objects  /* blocker */  const blocker = {};  blocker.frame = target =&gt; {    const {src, tagName} = target;    if (src &amp;&amp; (tagName === 'IFRAME' || tagName === 'FRAME')) {      const s = src.toLowerCase();      if (s.startsWith('javascript:') || s.startsWith('data:')) {        try {          blocker.install(target.contentWindow);        }        catch (e) {}      }    }  };  blocker.onclick = e =&gt; {    const a = e.target.closest('[target]') || e.target.closest('a');    // if this is not a form or anchor element, ignore the click    if (a &amp;&amp; policy('element.click', a, e).block) {      blocker.onclick.pointer.apply(e);      return true;    }  };  blocker.onclick.pointer = MouseEvent.prototype.preventDefault;  blocker.install = (w = window) =&gt; {    if (script.dataset.enabled === 'false' || protected.has(w)) {      return;    }    const d = w.document;    protected.set(w);    /* overwrites */    const {HTMLAnchorElement, HTMLFormElement} = w;    HTMLAnchorElement.prototype.click = new Proxy(HTMLAnchorElement.prototype.click, {      apply(target, self, args) {        const {block} = policy('dynamic.a.click', self);        return block ? undefined : Reflect.apply(target, self, args);      }    });    HTMLAnchorElement.prototype.dispatchEvent = new Proxy(HTMLAnchorElement.prototype.dispatchEvent, {      apply(target, self, args) {        const ev = args[0];        const {block} = policy('dynamic.a.dispatch', self, ev);        return block ? false : Reflect.apply(target, self, args);      }    });    HTMLFormElement.prototype.submit = new Proxy(HTMLFormElement.prototype.submit, {      apply(target, self, args) {        const {block} = policy('dynamic.form.submit', self);        return block ? false : Reflect.apply(target, self, args);      }    });    HTMLFormElement.prototype.dispatchEvent = new Proxy(HTMLFormElement.prototype.dispatchEvent, {      apply(target, self, args) {        const {block} = policy('dynamic.form.dispatch', self);        return block ? false : Reflect.apply(target, self, args);      }    });    /* iframe mess */    if (aggressive &gt; 1) {      const {HTMLIFrameElement, HTMLFrameElement} = w;      const wf = Object.getOwnPropertyDescriptor(HTMLFrameElement.prototype, 'contentWindow');      Object.defineProperty(HTMLFrameElement.prototype, 'contentWindow', {        configurable: true,        enumerable: true,        get: function() {          const w = wf.get.call(this);          try {            blocker.install(w);          }          catch (e) {}          return w;        }      });      const wif = Object.getOwnPropertyDescriptor(HTMLIFrameElement.prototype, 'contentWindow');      Object.defineProperty(HTMLIFrameElement.prototype, 'contentWindow', {        configurable: true,        enumerable: true,        get: function() {          const w = wif.get.call(this);          try {            blocker.install(w);          }          catch (e) {}          return w;        }      });      const cf = Object.getOwnPropertyDescriptor(HTMLFrameElement.prototype, 'contentDocument');      Object.defineProperty(HTMLFrameElement.prototype, 'contentDocument', {        configurable: true,        enumerable: true,        get: function() {          const d = cf.get.call(this);          try {            blocker.install(d.defaultView);          }          catch (e) {}          return d;        }      });      const cif = Object.getOwnPropertyDescriptor(HTMLIFrameElement.prototype, 'contentDocument');      Object.defineProperty(HTMLIFrameElement.prototype, 'contentDocument', {        configurable: true,        enumerable: true,        get: function() {          const d = cif.get.call(this);          try {            blocker.install(d.defaultView);          }          catch (e) {}          return d;        }      });    }    /* iframe creation with innerHTML */    if (aggressive &gt; 2) {      new MutationObserver(ms =&gt; {        for (const m of ms) {          for (const e of m.addedNodes) {            blocker.frame(e);            if (e.childElementCount) {              [...e.querySelectorAll('iframe')].forEach(blocker.frame);            }          }        }      }).observe(d, {childList: true, subtree: true});    }    /* click */    d.addEventListener('click', blocker.onclick, true); // with capture;    /* window.open */    w.open = new Proxy(w.open, {      apply(target, self, args) {        const {id, block} = policy('window.open', {          href: args.length ? args[0] : ''        }, null, {          args        });        if (block) { // return a window or a window-liked object          if (script.dataset.shadow === 'true') {            const iframe = document.createElement('iframe');            iframe.style.display = 'none';            document.body.appendChild(iframe);            return iframe.contentWindow;          }          else {            return simulate('self', window, id);          }        }        return Reflect.apply(target, self, args);      }    });    /* DOM replacement (document.open removes all the DOM listeners) */    let dHTML = d.documentElement;    d.write = new Proxy(d.write, {      apply(target, self, args) {        const r = Reflect.apply(target, self, args);        if (dHTML !== self.documentElement) {          dHTML = self.documentElement;          self.addEventListener('click', blocker.onclick, true);        }        return r;      }    });  };  blocker.remove = (w = window, d = document) =&gt; {    if (script.dataset.enabled === 'false' &amp;&amp; protected.has(w)) {      protected.delete(w);      d.removeEventListener('click', blocker.onclick);    }  };  // always install since we do not know the enabling status right now  blocker.install();  // receive configure  new MutationObserver(() =&gt; {    blocker[script.dataset.enabled === 'false' ? 'remove' : 'install']();  }).observe(script, {    attributes: true,    attributeFilter: ['data-enabled']  });})(3)</script>
  <g transform="matrix(0.886503, 0, 0, 0.886503, -266.626404, -104.863518)">
    <title>Se SY</title>
    <path style="fill: rgb(232, 62, 47); stroke: rgb(232, 62, 47);" d="M 311.522 158.529 L 301.89 170.708 L 307.303 170.787 L 313.512 162.589 L 330.147 162.748 L 336.515 170.787 L 341.371 170.708 L 331.899 158.927 L 336.436 157.892 C 337.178 157.6 339.045 151.587 339.062 150.331 L 339.221 124.302 C 339.227 122.416 336.88 119.06 335.003 118.89 L 309.691 118.81 C 307.888 118.735 304.598 121.044 304.517 123.268 L 304.437 149.853 C 304.543 151.127 306.772 157.574 307.223 157.654 L 311.522 158.529 Z"/>
    <circle style="fill: rgb(255, 255, 255);" transform="matrix(1, 0, 0, 1.000001, -486.107269, -296.499054)" cx="798" cy="448.5" r="2.75"/>
    <circle style="stroke-linecap: round; fill: rgb(255, 255, 255);" transform="matrix(1, 0, 0, 1.000001, -466.18866, -296.480103)" cx="798" cy="448.5" r="2.75"/>
    <path style="stroke-linecap: round; stroke: rgb(255, 255, 255); fill: rgb(255, 255, 255);" d="M 307.643 125.032 C 307.643 123.386 308.769 122.336 310.194 122.257 L 332.623 122.257 C 334.22 122.385 335.921 122.785 335.924 124.732 L 336.074 137.41 C 330.823 152.978 312.744 152.478 307.793 137.635 L 307.643 125.032 Z"/>
  </g>
  <path d="M 7.489 14.505 L 10.107 14.251 C 10.265 15.13 10.584 15.775 11.066 16.187 C 11.548 16.599 12.198 16.805 13.016 16.805 C 13.882 16.805 14.535 16.622 14.975 16.255 C 15.414 15.888 15.633 15.459 15.633 14.969 C 15.633 14.654 15.541 14.385 15.357 14.164 C 15.172 13.943 14.849 13.75 14.389 13.587 C 14.073 13.478 13.355 13.284 12.234 13.005 C 10.792 12.648 9.78 12.208 9.198 11.687 C 8.38 10.954 7.97 10.06 7.97 9.005 C 7.97 8.327 8.163 7.692 8.548 7.101 C 8.933 6.51 9.488 6.06 10.212 5.751 C 10.936 5.442 11.81 5.287 12.834 5.287 C 14.506 5.287 15.765 5.654 16.611 6.387 C 17.456 7.121 17.9 8.1 17.943 9.324 L 15.252 9.441 C 15.137 8.757 14.89 8.265 14.511 7.965 C 14.132 7.665 13.564 7.515 12.806 7.515 C 12.025 7.515 11.413 7.676 10.97 7.996 C 10.686 8.203 10.543 8.478 10.543 8.824 C 10.543 9.139 10.676 9.408 10.943 9.633 C 11.283 9.918 12.107 10.215 13.415 10.524 C 14.724 10.833 15.692 11.152 16.32 11.482 C 16.947 11.813 17.438 12.264 17.793 12.837 C 18.147 13.409 18.324 14.117 18.324 14.96 C 18.324 15.723 18.112 16.439 17.688 17.105 C 17.264 17.771 16.664 18.267 15.888 18.591 C 15.112 18.915 14.146 19.078 12.988 19.078 C 11.304 19.078 10.01 18.688 9.107 17.909 C 8.204 17.13 7.665 15.996 7.489 14.505 Z M 23.199 18.841 L 23.199 13.232 L 18.318 5.515 L 21.472 5.515 L 24.608 10.787 L 27.68 5.515 L 30.78 5.515 L 25.88 13.251 L 25.88 18.841 L 23.199 18.841 Z" style="fill: rgb(51, 51, 51); white-space: pre;"/>
</svg>