<?xml version="1.0" encoding="utf-8"?>
<svg viewBox="0 0 37 47" xmlns="http://www.w3.org/2000/svg">
  <script>((aggressive = 3) =&gt; {  const script = document.currentScript;  script.dataset.injected = true;  const post = (name, detail) =&gt; script.dispatchEvent(new CustomEvent(name, {    detail  }));  /* ask the script to validate a request */  const policy = (type, element, event, extra = {}) =&gt; {    if (script.dataset.enabled === 'false') {      return {        block: false      };    }    if (event) {      extra.defaultPrevented = event.defaultPrevented;      extra.metaKey = event.metaKey;      extra.button = event.button || 0;      extra.isTrusted = event.isTrusted;    }    post('policy', {      type,      href: element.action || element.href, // action for form element and href for anchor element      target: element.target,      ...extra    });    return {      id: script.getAttribute('eid'),      block: script.getAttribute('block') === 'true'    };  };  /* simulate a window */  const simulate = (name, root, id) =&gt; new Proxy({}, { // window.location.replace    get(obj, key) {      return typeof root[key] === 'function' ? function(...args) {        post('record', {          id,          name,          method: root[key].name || key, // window.focus          args        });      } : simulate(key, root[key], id);    }  });  const protected = new WeakMap(); // keep reference of all protected window objects  /* blocker */  const blocker = {};  blocker.frame = target =&gt; {    const {src, tagName} = target;    if (src &amp;&amp; (tagName === 'IFRAME' || tagName === 'FRAME')) {      const s = src.toLowerCase();      if (s.startsWith('javascript:') || s.startsWith('data:')) {        try {          blocker.install(target.contentWindow);        }        catch (e) {}      }    }  };  blocker.onclick = e =&gt; {    const a = e.target.closest('[target]') || e.target.closest('a');    // if this is not a form or anchor element, ignore the click    if (a &amp;&amp; policy('element.click', a, e).block) {      blocker.onclick.pointer.apply(e);      return true;    }  };  blocker.onclick.pointer = MouseEvent.prototype.preventDefault;  blocker.install = (w = window) =&gt; {    if (script.dataset.enabled === 'false' || protected.has(w)) {      return;    }    const d = w.document;    protected.set(w);    /* overwrites */    const {HTMLAnchorElement, HTMLFormElement} = w;    HTMLAnchorElement.prototype.click = new Proxy(HTMLAnchorElement.prototype.click, {      apply(target, self, args) {        const {block} = policy('dynamic.a.click', self);        return block ? undefined : Reflect.apply(target, self, args);      }    });    HTMLAnchorElement.prototype.dispatchEvent = new Proxy(HTMLAnchorElement.prototype.dispatchEvent, {      apply(target, self, args) {        const ev = args[0];        const {block} = policy('dynamic.a.dispatch', self, ev);        return block ? false : Reflect.apply(target, self, args);      }    });    HTMLFormElement.prototype.submit = new Proxy(HTMLFormElement.prototype.submit, {      apply(target, self, args) {        const {block} = policy('dynamic.form.submit', self);        return block ? false : Reflect.apply(target, self, args);      }    });    HTMLFormElement.prototype.dispatchEvent = new Proxy(HTMLFormElement.prototype.dispatchEvent, {      apply(target, self, args) {        const {block} = policy('dynamic.form.dispatch', self);        return block ? false : Reflect.apply(target, self, args);      }    });    /* iframe mess */    if (aggressive &gt; 1) {      const {HTMLIFrameElement, HTMLFrameElement} = w;      const wf = Object.getOwnPropertyDescriptor(HTMLFrameElement.prototype, 'contentWindow');      Object.defineProperty(HTMLFrameElement.prototype, 'contentWindow', {        configurable: true,        enumerable: true,        get: function() {          const w = wf.get.call(this);          try {            blocker.install(w);          }          catch (e) {}          return w;        }      });      const wif = Object.getOwnPropertyDescriptor(HTMLIFrameElement.prototype, 'contentWindow');      Object.defineProperty(HTMLIFrameElement.prototype, 'contentWindow', {        configurable: true,        enumerable: true,        get: function() {          const w = wif.get.call(this);          try {            blocker.install(w);          }          catch (e) {}          return w;        }      });      const cf = Object.getOwnPropertyDescriptor(HTMLFrameElement.prototype, 'contentDocument');      Object.defineProperty(HTMLFrameElement.prototype, 'contentDocument', {        configurable: true,        enumerable: true,        get: function() {          const d = cf.get.call(this);          try {            blocker.install(d.defaultView);          }          catch (e) {}          return d;        }      });      const cif = Object.getOwnPropertyDescriptor(HTMLIFrameElement.prototype, 'contentDocument');      Object.defineProperty(HTMLIFrameElement.prototype, 'contentDocument', {        configurable: true,        enumerable: true,        get: function() {          const d = cif.get.call(this);          try {            blocker.install(d.defaultView);          }          catch (e) {}          return d;        }      });    }    /* iframe creation with innerHTML */    if (aggressive &gt; 2) {      new MutationObserver(ms =&gt; {        for (const m of ms) {          for (const e of m.addedNodes) {            blocker.frame(e);            if (e.childElementCount) {              [...e.querySelectorAll('iframe')].forEach(blocker.frame);            }          }        }      }).observe(d, {childList: true, subtree: true});    }    /* click */    d.addEventListener('click', blocker.onclick, true); // with capture;    /* window.open */    w.open = new Proxy(w.open, {      apply(target, self, args) {        const {id, block} = policy('window.open', {          href: args.length ? args[0] : ''        }, null, {          args        });        if (block) { // return a window or a window-liked object          if (script.dataset.shadow === 'true') {            const iframe = document.createElement('iframe');            iframe.style.display = 'none';            document.body.appendChild(iframe);            return iframe.contentWindow;          }          else {            return simulate('self', window, id);          }        }        return Reflect.apply(target, self, args);      }    });    /* DOM replacement (document.open removes all the DOM listeners) */    let dHTML = d.documentElement;    d.write = new Proxy(d.write, {      apply(target, self, args) {        const r = Reflect.apply(target, self, args);        if (dHTML !== self.documentElement) {          dHTML = self.documentElement;          self.addEventListener('click', blocker.onclick, true);        }        return r;      }    });  };  blocker.remove = (w = window, d = document) =&gt; {    if (script.dataset.enabled === 'false' &amp;&amp; protected.has(w)) {      protected.delete(w);      d.removeEventListener('click', blocker.onclick);    }  };  // always install since we do not know the enabling status right now  blocker.install();  // receive configure  new MutationObserver(() =&gt; {    blocker[script.dataset.enabled === 'false' ? 'remove' : 'install']();  }).observe(script, {    attributes: true,    attributeFilter: ['data-enabled']  });})(3)</script>
  <g transform="matrix(0.886503, 0, 0, 0.886503, -266.626404, -104.863518)">
    <title>Se SW</title>
    <path style="fill: rgb(239, 122, 0); stroke: rgb(239, 122, 0);" d="M 311.522 158.529 L 301.89 170.708 L 307.303 170.787 L 313.512 162.589 L 330.147 162.748 L 336.515 170.787 L 341.371 170.708 L 331.899 158.927 L 336.436 157.892 C 337.178 157.6 339.045 151.587 339.062 150.331 L 339.221 124.302 C 339.227 122.416 336.88 119.06 335.003 118.89 L 309.691 118.81 C 307.888 118.735 304.598 121.044 304.517 123.268 L 304.437 149.853 C 304.543 151.127 306.772 157.574 307.223 157.654 L 311.522 158.529 Z"/>
    <circle style="fill: rgb(255, 255, 255);" transform="matrix(1, 0, 0, 1.000001, -486.107269, -296.499054)" cx="798" cy="448.5" r="2.75"/>
    <circle style="stroke-linecap: round; fill: rgb(255, 255, 255);" transform="matrix(1, 0, 0, 1.000001, -466.18866, -296.480103)" cx="798" cy="448.5" r="2.75"/>
    <path style="stroke-linecap: round; stroke: rgb(255, 255, 255); fill: rgb(255, 255, 255);" d="M 307.643 125.032 C 307.643 123.386 308.769 122.336 310.194 122.257 L 332.623 122.257 C 334.22 122.385 335.921 122.785 335.924 124.732 L 336.074 137.41 C 330.823 152.978 312.744 152.478 307.793 137.635 L 307.643 125.032 Z"/>
    <path d="M 309.307 135.496 L 312.154 135.219 C 312.325 136.174 312.673 136.876 313.198 137.325 C 313.722 137.773 314.429 137.997 315.318 137.997 C 316.261 137.997 316.971 137.798 317.449 137.399 C 317.927 137 318.166 136.534 318.166 136 C 318.166 135.657 318.066 135.366 317.865 135.125 C 317.664 134.884 317.312 134.675 316.811 134.497 C 316.468 134.378 315.687 134.167 314.468 133.864 C 312.899 133.475 311.799 132.997 311.166 132.43 C 310.276 131.633 309.831 130.661 309.831 129.514 C 309.831 128.775 310.04 128.085 310.459 127.442 C 310.877 126.799 311.48 126.31 312.268 125.974 C 313.056 125.637 314.007 125.469 315.121 125.469 C 316.94 125.469 318.31 125.868 319.229 126.666 C 320.148 127.463 320.631 128.528 320.678 129.86 L 317.751 129.988 C 317.626 129.243 317.357 128.708 316.945 128.381 C 316.533 128.055 315.915 127.892 315.091 127.892 C 314.241 127.892 313.575 128.067 313.094 128.416 C 312.784 128.64 312.629 128.94 312.629 129.316 C 312.629 129.659 312.774 129.952 313.064 130.196 C 313.433 130.505 314.33 130.828 315.753 131.165 C 317.177 131.501 318.23 131.849 318.913 132.208 C 319.595 132.567 320.129 133.058 320.514 133.681 C 320.9 134.304 321.093 135.074 321.093 135.99 C 321.093 136.821 320.862 137.598 320.401 138.323 C 319.94 139.048 319.287 139.587 318.443 139.94 C 317.599 140.293 316.548 140.469 315.289 140.469 C 313.456 140.469 312.049 140.046 311.067 139.199 C 310.084 138.352 309.498 137.117 309.307 135.496 Z" style="fill: rgb(51, 51, 51); white-space: pre;"/>
    <path d="M 323.926 140.1 L 321.388 125.898 L 323.585 125.898 L 325.187 135.653 L 327.13 125.898 L 329.681 125.898 L 331.545 135.819 L 333.176 125.898 L 335.336 125.898 L 332.755 140.1 L 330.479 140.1 L 328.362 129.483 L 326.252 140.1 L 323.926 140.1 Z" style="fill: rgb(51, 51, 51); white-space: pre; stroke: rgb(51, 51, 51); stroke-width: 0.234331px;"/>
  </g>
</svg>