<?xml version="1.0" encoding="utf-8"?>
<svg viewBox="0 0 64 64" xmlns="http://www.w3.org/2000/svg">
  <path class="st0" d="M 40 15.59 C 37.19 15.59 34.53 16.01 32 16.99 C 27.79 18.53 24.14 21.06 21.33 24.43 C 17.96 28.64 15.86 33.83 15.86 39.59 C 15.86 45.34 17.96 50.67 21.33 54.74 C 22.18 54.88 23.16 55.02 24 55.02 C 26.95 55.02 29.61 54.18 32 52.78 C 27.51 50.11 24.56 45.2 24.56 39.59 C 24.56 33.97 27.51 29.06 32 26.39 C 34.39 24.99 37.05 24.15 40 24.15 C 40.98 24.15 41.82 24.29 42.67 24.43 C 49.96 25.69 55.44 32.01 55.44 39.59 C 55.44 47.16 49.96 53.48 42.67 54.74 C 39.86 58.11 36.21 60.78 32 62.18 C 34.53 63.02 37.19 63.59 40 63.59 C 53.19 63.59 64 52.78 64 39.59 C 64 26.25 53.19 15.59 40 15.59 Z" style="fill: rgb(51, 102, 204);"/>
  <path d="M 42.67 24.29 C 41.82 24.15 40.84 24.01 40 24.01 C 37.05 24.01 34.39 24.85 32 26.25 C 36.49 28.92 39.44 33.83 39.44 39.45 C 39.44 45.06 36.49 49.97 32 52.64 C 29.61 54.04 26.95 54.88 24 54.88 C 23.02 54.88 22.18 54.74 21.33 54.6 C 14.04 53.34 8.56 47.02 8.56 39.45 C 8.56 31.87 14.04 25.55 21.33 24.29 C 24.14 20.92 27.79 18.25 32 16.85 C 29.47 16.01 26.81 15.45 24 15.45 C 10.81 15.59 0 26.25 0 39.59 C 0 52.78 10.81 63.59 24 63.59 C 26.81 63.59 29.47 63.16 32 62.18 C 36.21 60.64 39.86 58.11 42.67 54.74 C 46.04 50.53 48.14 45.34 48.14 39.59 C 48 33.83 46.04 28.5 42.67 24.29 Z" fill="#6cf"/>
  <path d="M 52.77 1.97 C 51.93 -0.27 45.61 -0.13 38.74 2.53 C 36.07 3.52 33.82 4.64 32 5.9 C 30.18 4.64 27.79 3.52 25.26 2.53 C 18.39 0.01 12.07 -0.27 11.23 1.97 C 10.39 4.22 15.3 8.15 22.18 10.81 C 25.96 12.22 29.89 12.92 32 12.92 C 34.11 12.92 38.32 12.08 41.82 10.81 C 48.7 8.29 53.61 4.22 52.77 1.97 Z" fill="#3c6"/>
</svg>