<?xml version="1.0" encoding="utf-8"?>
<svg viewBox="340.598 108.344 38.605 36.115" xmlns="http://www.w3.org/2000/svg">
  <g transform="matrix(1, 0, 0, 1, 273.784393, -326.122101)">
    <title>To Si</title>
    <circle style="stroke-width: 9px; fill: rgb(255, 255, 255); stroke: rgb(176, 193, 36);" cx="86.116" cy="452.108" r="13"/>
    <path d="M 83.336 457.387 L 83.336 456.56 Q 84.464 457.278 85.621 457.278 Q 86.852 457.278 87.489 456.769 Q 88.126 456.26 88.126 455.344 Q 88.126 454.538 87.698 454.059 Q 87.269 453.579 85.841 452.751 Q 84.244 451.821 83.819 451.195 Q 83.395 450.569 83.395 449.748 Q 83.395 448.635 84.259 447.859 Q 85.123 447.082 86.566 447.082 Q 87.504 447.082 88.441 447.397 L 88.441 448.159 Q 87.518 447.741 86.471 447.741 Q 85.401 447.741 84.775 448.283 Q 84.149 448.825 84.149 449.66 Q 84.149 450.466 84.578 450.942 Q 85.006 451.418 86.427 452.239 Q 87.899 453.073 88.386 453.722 Q 88.873 454.37 88.873 455.212 Q 88.873 456.421 88.035 457.182 Q 87.196 457.944 85.665 457.944 Q 85.123 457.944 84.416 457.776 Q 83.71 457.607 83.336 457.387 Z" style="stroke: rgb(0, 0, 0); stroke-miterlimit: 3; stroke-width: 2px; white-space: pre;"/>
  </g>
</svg>