<?xml version="1.0" encoding="utf-8"?>
<svg viewBox="0 0 64 64" xmlns="http://www.w3.org/2000/svg">
  <g transform="matrix(4.873591, 0, 0, 4.873591, -157.78009, -75.453423)">
    <g transform="matrix(1, 0, 0, -1, 45.506504, 26.428101)">
      <path d="M 0 0 C 0 -1.203 -0.984 -2.188 -2.187 -2.188 L -10.942 -2.188 C -12.148 -2.188 -13.132 -1.203 -13.132 0 L -13.132 8.757 C -13.132 9.96 -12.148 10.946 -10.942 10.946 L -2.187 10.946 C -0.984 10.946 0 9.96 0 8.757 Z" style="fill: rgb(0, 104, 183); fill-opacity: 1;"/>
    </g>
    <g transform="matrix(1, 0, 0, -1, 45.506504, 26.428101)">
      <path d="M 0 0 C 0 -1.203 -0.984 -2.188 -2.187 -2.188 L -10.942 -2.188 C -12.148 -2.188 -13.132 -1.203 -13.132 0 L -13.132 8.757 C -13.132 9.96 -12.148 10.946 -10.942 10.946 L -2.187 10.946 C -0.984 10.946 0 9.96 0 8.757 L 0 0 Z" style="fill: none; stroke-opacity: 1; stroke-miterlimit: 4; stroke-width: 0.438px; stroke-dashoffset: 0px;"/>
    </g>
    <g transform="matrix(1, 0, 0, -1, 37.567104, 20.035494)">
      <path d="M 0 0 C -0.255 0.104 -0.977 0.348 -1.743 0.348 C -2.364 0.348 -2.802 0.086 -2.802 -0.297 C -2.802 -1.373 0.511 -1.343 0.511 -2.944 C 0.511 -4.018 -0.631 -4.441 -2.049 -4.441 C -2.845 -4.441 -3.618 -4.308 -3.834 -4.249 L -3.834 -3.454 C -3.516 -3.59 -2.701 -3.907 -1.875 -3.907 C -1.141 -3.907 -0.611 -3.686 -0.611 -3.166 C -0.611 -1.994 -3.924 -2.068 -3.924 -0.475 C -3.924 0.354 -3.079 0.836 -1.62 0.836 C -0.968 0.836 -0.275 0.74 0 0.703 Z" style="fill: rgb(255, 255, 255); fill-opacity: 1;"/>
    </g>
    <g transform="matrix(1, 0, 0, -1, 38.81081, 21.83728)">
      <path d="M 0 0 C 0 1.534 0.765 2.638 2.742 2.638 C 4.72 2.638 5.495 1.534 5.495 0 C 5.495 -1.536 4.72 -2.639 2.742 -2.639 C 0.765 -2.639 0 -1.536 0 0 M 2.742 -2.195 C 4.118 -2.195 4.301 -0.905 4.301 0 C 4.301 0.902 4.118 2.194 2.742 2.194 C 1.367 2.194 1.194 0.902 1.194 0 C 1.194 -0.905 1.367 -2.195 2.742 -2.195" style="fill: rgb(255, 255, 255); fill-opacity: 1;"/>
    </g>
    <g transform="matrix(1, 0, 0, -1, 33.127209, 25.616486)">
      <path d="M 0 0 L 11.626 0" style="fill: none; stroke: rgb(243, 151, 0); stroke-opacity: 1; stroke-miterlimit: 4; stroke-width: 0.438px; stroke-dashoffset: 0px;"/>
    </g>
  </g>
</svg>