<?xml version="1.0" encoding="utf-8"?>
<svg viewBox="0 0 35 35" xmlns="http://www.w3.org/2000/svg">
  <g transform="matrix(0.872822, 0, 0, 0.872822, 524.738342, -318.135864)">
    <title>TO Sk</title>
    <rect x="-598.906" y="366.697" width="35.517" height="35.688" style="stroke-width: 4.87488px; fill: rgb(255, 255, 255); stroke: rgb(34, 107, 184);" rx="9.317" ry="9.317"/>
    <path d="M -582.575 379.608 L -586.961 379.608 L -586.961 392.722 L -589.494 392.722 L -589.494 379.608 L -593.869 379.608 L -593.869 377.458 L -582.575 377.458 Z M -579.26 392.115 L -579.26 389.507 Q -578.908 389.827 -578.424 390.082 Q -577.94 390.338 -577.397 390.513 Q -576.854 390.689 -576.311 390.785 Q -575.768 390.88 -575.31 390.88 Q -573.714 390.88 -572.931 390.348 Q -572.149 389.816 -572.149 388.805 Q -572.149 388.262 -572.41 387.863 Q -572.671 387.464 -573.139 387.134 Q -573.607 386.804 -574.241 386.5 Q -574.874 386.197 -575.598 385.867 Q -576.375 385.452 -577.045 385.026 Q -577.716 384.6 -578.211 384.084 Q -578.706 383.568 -578.988 382.918 Q -579.27 382.269 -579.27 381.396 Q -579.27 380.321 -578.786 379.528 Q -578.302 378.735 -577.509 378.219 Q -576.716 377.703 -575.704 377.452 Q -574.693 377.202 -573.639 377.202 Q -571.244 377.202 -570.148 377.745 L -570.148 380.247 Q -571.446 379.31 -573.49 379.31 Q -574.054 379.31 -574.613 379.416 Q -575.172 379.523 -575.614 379.768 Q -576.056 380.012 -576.332 380.396 Q -576.609 380.779 -576.609 381.322 Q -576.609 381.833 -576.396 382.205 Q -576.183 382.578 -575.773 382.886 Q -575.364 383.195 -574.773 383.488 Q -574.182 383.781 -573.405 384.121 Q -572.607 384.536 -571.899 384.994 Q -571.191 385.452 -570.653 386.005 Q -570.116 386.559 -569.802 387.235 Q -569.488 387.911 -569.488 388.773 Q -569.488 389.933 -569.956 390.731 Q -570.425 391.53 -571.218 392.03 Q -572.011 392.53 -573.043 392.754 Q -574.076 392.977 -575.225 392.977 Q -575.608 392.977 -576.167 392.919 Q -576.726 392.86 -577.312 392.749 Q -577.897 392.637 -578.419 392.477 Q -578.94 392.317 -579.26 392.115 Z" style="stroke-width: 0.696411px; white-space: pre;"/>
    <path d="M -586.613 379.956 L -586.613 393.07 L -589.842 393.07 L -589.842 379.956 L -594.217 379.956 L -594.217 377.11 L -582.227 377.11 L -582.227 379.956 Z M -582.923 377.806 L -593.521 377.806 L -593.521 379.26 L -589.146 379.26 L -589.146 392.374 L -587.309 392.374 L -587.309 379.26 L -582.923 379.26 Z M -579.608 388.714 L -579.026 389.249 C -578.81 389.448 -578.566 389.615 -578.261 389.774 C -577.953 389.938 -577.638 390.07 -577.29 390.182 C -576.939 390.296 -576.601 390.381 -576.251 390.442 C -575.903 390.504 -575.599 390.532 -575.31 390.532 C -574.284 390.532 -573.589 390.389 -573.127 390.06 C -572.663 389.771 -572.497 389.4 -572.497 388.805 C -572.497 388.489 -572.556 388.275 -572.701 388.054 C -572.856 387.817 -573.052 387.621 -573.34 387.419 C -573.639 387.208 -573.98 387.011 -574.391 386.814 C -574.812 386.613 -575.281 386.393 -575.762 386.174 C -576.286 385.894 -576.779 385.608 -577.232 385.32 C -577.695 385.024 -578.117 384.685 -578.462 384.325 C -578.813 383.959 -579.105 383.517 -579.307 383.057 C -579.507 382.586 -579.618 382.01 -579.618 381.396 C -579.618 380.636 -579.432 379.918 -579.083 379.347 C -578.74 378.785 -578.26 378.292 -577.699 377.927 C -577.145 377.567 -576.488 377.29 -575.788 377.114 C -575.093 376.943 -574.363 376.854 -573.639 376.854 C -572.016 376.854 -570.775 377.055 -569.993 377.433 L -569.8 377.527 L -569.8 380.937 L -570.352 380.529 C -571.162 379.931 -572.174 379.658 -573.49 379.658 C -573.85 379.658 -574.191 379.69 -574.548 379.758 C -574.895 379.823 -575.178 379.921 -575.446 380.073 C -575.71 380.214 -575.893 380.373 -576.05 380.6 C -576.209 380.803 -576.261 381.01 -576.261 381.322 C -576.261 381.622 -576.217 381.83 -576.094 382.032 C -575.974 382.25 -575.813 382.425 -575.563 382.608 C -575.306 382.804 -575 382.987 -574.618 383.176 C -574.229 383.369 -573.759 383.587 -573.244 383.812 C -572.705 384.093 -572.189 384.392 -571.71 384.702 C -571.222 385.017 -570.777 385.38 -570.403 385.763 C -570.027 386.154 -569.708 386.611 -569.486 387.088 C -569.26 387.575 -569.14 388.163 -569.14 388.773 C -569.14 389.587 -569.325 390.328 -569.656 390.907 C -569.994 391.473 -570.469 391.969 -571.032 392.325 C -571.588 392.675 -572.254 392.937 -572.97 393.094 C -573.677 393.246 -574.441 393.325 -575.225 393.325 C -575.491 393.325 -575.824 393.305 -576.204 393.265 C -576.584 393.225 -576.98 393.166 -577.377 393.091 C -577.776 393.014 -578.164 392.919 -578.521 392.81 C -578.886 392.697 -579.208 392.557 -579.446 392.409 L -579.608 392.309 Z M -578.317 392.144 C -577.978 392.248 -577.628 392.334 -577.247 392.407 C -576.863 392.48 -576.496 392.534 -576.131 392.573 C -575.765 392.611 -575.47 392.629 -575.225 392.629 C -574.477 392.629 -573.786 392.559 -573.116 392.414 C -572.456 392.273 -571.905 392.052 -571.404 391.735 C -570.91 391.424 -570.544 391.054 -570.256 390.555 C -569.963 390.07 -569.836 389.506 -569.836 388.773 C -569.836 388.233 -569.925 387.796 -570.118 387.382 C -570.315 386.958 -570.563 386.595 -570.903 386.247 C -571.247 385.892 -571.632 385.582 -572.088 385.286 C -572.553 384.986 -573.034 384.706 -573.555 384.435 C -574.072 384.209 -574.529 383.997 -574.928 383.8 C -575.334 383.598 -575.695 383.38 -575.982 383.164 C -576.279 382.937 -576.534 382.658 -576.698 382.378 C -576.858 382.084 -576.957 381.703 -576.957 381.322 C -576.957 380.91 -576.825 380.5 -576.614 380.192 C -576.404 379.907 -576.108 379.647 -575.782 379.463 C -575.461 379.288 -575.076 379.152 -574.678 379.074 C -574.29 379.001 -573.882 378.962 -573.49 378.962 C -572.08 378.962 -571.33 379.195 -570.496 379.629 L -570.496 377.968 C -571.182 377.683 -572.069 377.55 -573.639 377.55 C -574.321 377.55 -574.967 377.627 -575.62 377.79 C -576.269 377.949 -576.816 378.183 -577.319 378.511 C -577.816 378.834 -578.186 379.214 -578.489 379.709 C -578.785 380.195 -578.922 380.723 -578.922 381.396 C -578.922 381.946 -578.845 382.384 -578.669 382.779 C -578.495 383.185 -578.269 383.521 -577.96 383.843 C -577.645 384.171 -577.29 384.46 -576.858 384.732 C -576.418 385.012 -575.952 385.283 -575.444 385.555 C -574.963 385.774 -574.514 385.983 -574.091 386.186 C -573.656 386.395 -573.263 386.62 -572.938 386.849 C -572.602 387.087 -572.312 387.377 -572.119 387.672 C -571.916 387.983 -571.801 388.397 -571.801 388.805 C -571.801 389.558 -572.156 390.216 -572.735 390.636 C -573.317 391.016 -574.208 391.228 -575.31 391.228 C -575.632 391.228 -575.995 391.193 -576.371 391.128 C -576.745 391.061 -577.131 390.965 -577.504 390.844 C -577.88 390.723 -578.25 390.567 -578.586 390.39 C -578.926 390.209 -578.807 390.268 -578.912 390.201 L -578.912 391.914 C -578.751 391.996 -578.646 392.044 -578.317 392.144 Z" style=""/>
  </g>
</svg>