<?xml version="1.0" encoding="utf-8"?>
<svg viewBox="0 0 35 35" xmlns="http://www.w3.org/2000/svg">
  <g transform="matrix(0.872822, 0, 0, 0.872822, 524.738342, -318.135864)">
    <title>TO TD</title>
    <rect x="-598.906" y="366.697" width="35.517" height="35.688" style="stroke-width: 4.87488px; fill: rgb(255, 255, 255); stroke: rgb(65, 179, 229);" rx="7.331" ry="7.331"/>
    <path d="M -589.623 391.544 L -589.623 379.293 L -593.998 379.293 L -593.998 376.798 L -582.28 376.798 L -582.28 379.293 L -586.646 379.293 L -586.646 391.544 Z M -580.372 376.798 L -574.931 376.798 Q -573.09 376.798 -572.124 377.08 Q -570.827 377.462 -569.901 378.438 Q -568.976 379.413 -568.493 380.827 Q -568.01 382.24 -568.01 384.312 Q -568.01 386.132 -568.463 387.45 Q -569.016 389.06 -570.042 390.055 Q -570.817 390.81 -572.134 391.232 Q -573.12 391.544 -574.77 391.544 L -580.372 391.544 Z M -577.395 379.293 L -577.395 389.06 L -575.172 389.06 Q -573.925 389.06 -573.371 388.919 Q -572.647 388.738 -572.169 388.305 Q -571.692 387.873 -571.39 386.882 Q -571.088 385.891 -571.088 384.181 Q -571.088 382.471 -571.39 381.556 Q -571.692 380.64 -572.235 380.128 Q -572.778 379.615 -573.613 379.433 Q -574.236 379.293 -576.057 379.293 Z" style="white-space: pre;"/>
  </g>
</svg>