<?xml version="1.0" encoding="utf-8"?>
<svg viewBox="0 0 35 35" xmlns="http://www.w3.org/2000/svg">
  <g transform="matrix(0.872822, 0, 0, 0.872822, 524.738342, -318.135864)">
    <title>TO TJ</title>
    <rect x="-598.906" y="366.697" width="35.517" height="35.688" style="stroke-width: 4.87488px; fill: rgb(255, 255, 255); stroke: rgb(16, 66, 142);" rx="8.052" ry="8.052"/>
    <path d="M -593.177 377.331 L -580.386 377.331 L -580.386 378.914 L -585.709 378.914 L -585.709 391.583 L -587.855 391.583 L -587.855 378.914 L -593.177 378.914 L -593.177 377.331 Z" style="white-space: pre; stroke: rgb(0, 0, 0); stroke-width: 1.14571px;"/>
    <path d="M -571.265 377.331 L -569.117 377.331 L -569.117 387.583 C -569.117 388.86 -569.553 389.888 -570.425 390.667 C -571.235 391.389 -572.479 391.75 -574.16 391.75 C -575.84 391.75 -577.086 391.389 -577.894 390.667 C -578.951 389.721 -579.481 388.193 -579.481 386.083 L -577.334 386.083 C -577.334 387.693 -577.023 388.777 -576.4 389.332 C -575.902 389.778 -575.186 389.999 -574.253 389.999 C -573.257 389.999 -572.542 389.805 -572.105 389.416 C -571.545 388.917 -571.265 388.278 -571.265 387.499 L -571.265 377.331 Z" style="white-space: pre; stroke: rgb(0, 0, 0); stroke-width: 1.14571px;"/>
  </g>
</svg>