<?xml version="1.0" encoding="utf-8"?>
<svg viewBox="0 0 35 35" xmlns="http://www.w3.org/2000/svg">
  <g transform="matrix(1.13979, 0, 0, 1.13979, -50.66551, -81.611664)">
    <title>To TY</title>
    <rect x="44.452" y="71.603" width="30.707" height="30.707" style="stroke-width: 4.87488px; fill: rgb(218, 0, 65);" rx="6.246" ry="6.246"/>
    <path d="M 58.72 82.602 L 55.103 82.602 L 55.103 93.019 L 53.014 93.019 L 53.014 82.602 L 49.406 82.602 L 49.406 80.893 L 58.72 80.893 L 58.72 82.602 Z M 70.205 80.893 L 66.078 88.613 L 66.078 93.019 L 63.989 93.019 L 63.989 88.656 L 59.968 80.893 L 62.347 80.893 L 64.823 86.094 C 64.852 86.156 64.94 86.39 65.087 86.796 L 65.113 86.796 C 65.165 86.615 65.262 86.381 65.403 86.094 L 67.992 80.893 L 70.205 80.893 Z" style="fill: rgb(255, 255, 255); line-height: 31.1633px; white-space: pre; stroke: rgb(255, 255, 255); stroke-width: 0.700322px;"/>
  </g>
</svg>