<?xml version="1.0" encoding="utf-8"?>
<svg viewBox="0 0 35 35" xmlns="http://www.w3.org/2000/svg">
  <g transform="matrix(1.13979, 0, 0, 1.13979, -139.966407, -83.957212)">
    <title>To OM</title>
    <rect x="122.8" y="73.66" width="30.707" height="30.707" style="stroke-width: 4.87488px; fill: rgb(241, 140, 67);" rx="6.246" ry="6.246"/>
    <path d="M 150.728 94.634 L 148.58 94.634 C 148.58 94.634 148.3 86.354 148.359 85.473 L 148.3 85.473 C 148.178 86.165 145.512 94.634 145.512 94.634 L 143.582 94.634 C 143.582 94.634 140.902 86.317 140.75 85.473 L 140.808 85.473 C 140.871 86.585 140.41 94.634 140.41 94.634 L 138.528 94.634 L 139.082 83.358 L 142.112 83.358 L 144.254 90.041 C 144.425 90.576 144.55 91.113 144.628 91.653 L 144.671 91.653 C 144.804 91.029 144.942 90.487 145.089 90.026 L 147.233 83.358 L 150.235 83.358 L 150.728 94.634 Z" style="line-height: 25.7705px; white-space: pre; stroke: rgb(255, 255, 255); fill: rgb(255, 255, 255); stroke-width: 0.6px;"/>
    <path d="M 125.58 89.087 C 125.58 87.877 125.755 86.862 126.104 86.042 C 126.364 85.437 126.719 84.895 127.17 84.415 C 127.621 83.934 128.114 83.578 128.651 83.346 C 129.364 83.033 130.187 82.877 131.119 82.877 C 132.807 82.877 134.157 83.419 135.17 84.504 C 136.183 85.588 136.69 87.097 136.69 89.03 C 136.69 90.946 136.187 92.445 135.182 93.527 C 134.177 94.609 132.833 95.15 131.151 95.15 C 129.448 95.15 128.093 94.612 127.088 93.536 C 126.083 92.458 125.58 90.975 125.58 89.087 Z M 127.963 89.006 C 127.963 90.349 128.263 91.368 128.862 92.062 C 129.461 92.756 130.221 93.102 131.143 93.102 C 132.065 93.102 132.821 92.758 133.412 92.07 C 134.003 91.382 134.299 90.349 134.299 88.973 C 134.299 87.613 134.011 86.598 133.436 85.929 C 132.861 85.259 132.096 84.924 131.143 84.924 C 130.19 84.924 129.421 85.263 128.838 85.941 C 128.255 86.618 127.963 87.64 127.963 89.006 Z" style="fill: rgb(255, 255, 255); white-space: pre; stroke: rgb(255, 255, 255); stroke-width: 0.589286px;"/>
  </g>
</svg>