<?xml version="1.0" encoding="utf-8"?>
<svg viewBox="0 0 35 35" xmlns="http://www.w3.org/2000/svg">
  <g transform="matrix(1.13979, 0, 0, 1.13979, -55.663844, -166.521152)">
    <title>To SG</title>
    <rect x="48.837" y="146.098" width="30.707" height="30.707" style="stroke-width: 4.87488px; fill: rgb(252, 202, 0);" rx="6.246" ry="6.246"/>
    <path d="M 73.876 166.553 C 72.61 167.222 71.199 167.557 69.645 167.557 C 67.848 167.557 66.392 167.013 65.279 165.926 C 64.166 164.839 63.609 163.399 63.609 161.609 C 63.609 159.78 64.218 158.279 65.435 157.107 C 66.653 155.934 68.201 155.347 70.078 155.347 C 71.428 155.347 72.565 155.54 73.486 155.925 L 73.486 157.943 C 72.553 157.338 71.442 157.036 70.154 157.036 C 68.86 157.036 67.798 157.451 66.97 158.281 C 66.142 159.11 65.728 160.184 65.728 161.502 C 65.728 162.858 66.085 163.925 66.797 164.703 C 67.509 165.48 68.476 165.869 69.697 165.869 C 70.533 165.869 71.256 165.712 71.867 165.398 L 71.867 162.59 L 69.306 162.59 L 69.306 160.942 L 73.876 160.942 L 73.876 166.553 Z" style="white-space: pre; stroke-width: 0.595854px; stroke: rgb(96, 96, 96); fill: rgb(96, 96, 96);"/>
    <path d="M 54.514 166.877 L 54.514 164.881 C 54.694 165.043 54.908 165.19 55.156 165.32 C 55.404 165.451 55.667 165.561 55.946 165.65 C 56.224 165.74 56.502 165.809 56.78 165.858 C 57.058 165.908 57.314 165.932 57.548 165.932 C 58.367 165.932 58.977 165.796 59.377 165.524 C 59.778 165.253 59.979 164.859 59.979 164.343 C 59.979 164.066 59.912 163.825 59.778 163.622 C 59.644 163.418 59.457 163.232 59.217 163.064 C 58.978 162.895 58.696 162.733 58.371 162.579 C 58.047 162.424 57.699 162.262 57.328 162.094 C 56.929 161.882 56.559 161.667 56.216 161.45 C 55.872 161.233 55.573 160.992 55.319 160.729 C 55.066 160.465 54.867 160.168 54.723 159.836 C 54.578 159.505 54.506 159.116 54.506 158.671 C 54.506 158.123 54.63 157.646 54.878 157.241 C 55.126 156.836 55.453 156.502 55.859 156.239 C 56.266 155.976 56.728 155.78 57.246 155.652 C 57.764 155.525 58.293 155.461 58.833 155.461 C 60.06 155.461 60.955 155.599 61.516 155.876 L 61.516 157.791 C 60.851 157.313 59.995 157.074 58.947 157.074 C 58.658 157.074 58.371 157.101 58.085 157.156 C 57.799 157.21 57.542 157.3 57.316 157.425 C 57.089 157.55 56.905 157.71 56.764 157.905 C 56.622 158.101 56.551 158.337 56.551 158.614 C 56.551 158.875 56.605 159.1 56.714 159.29 C 56.824 159.481 56.983 159.655 57.193 159.812 C 57.403 159.97 57.659 160.123 57.962 160.273 C 58.265 160.422 58.615 160.583 59.013 160.757 C 59.422 160.969 59.808 161.192 60.17 161.425 C 60.533 161.659 60.853 161.917 61.128 162.2 C 61.403 162.482 61.621 162.796 61.782 163.141 C 61.943 163.486 62.024 163.878 62.024 164.318 C 62.024 164.91 61.903 165.41 61.663 165.817 C 61.424 166.225 61.101 166.557 60.694 166.812 C 60.288 167.067 59.82 167.252 59.291 167.366 C 58.762 167.48 58.203 167.537 57.615 167.537 C 57.418 167.537 57.176 167.522 56.89 167.493 C 56.604 167.462 56.311 167.419 56.011 167.362 C 55.711 167.305 55.428 167.236 55.16 167.154 C 54.893 167.073 54.677 166.98 54.514 166.877 Z" style="fill: rgb(96, 96, 96); white-space: pre; stroke: rgb(96, 96, 96); stroke-width: 0.645884px;"/>
  </g>
</svg>