<?xml version="1.0" encoding="utf-8"?>
<svg viewBox="0 0 35 35" xmlns="http://www.w3.org/2000/svg">
  <g transform="matrix(1.13979, 0, 0, 1.13979, -96.383159, -168.279631)">
    <title>To KD</title>
    <rect x="84.562" y="147.641" width="30.707" height="30.707" style="stroke-width: 4.87488px; fill: rgb(0, 104, 183);" rx="6.246" ry="6.246"/>
    <path d="M 90.196 168.748 L 90.196 157.048 L 92.373 157.048 L 92.373 161.83 L 96.59 157.048 L 99.26 157.048 L 95.184 161.605 L 99.611 168.748 L 97.082 168.748 L 93.639 163.18 L 92.373 164.586 L 92.373 168.748 L 90.196 168.748 Z" style="fill: rgb(255, 255, 255); white-space: pre; stroke: rgb(255, 255, 255); stroke-width: 0.444602px;"/>
    <path d="M 101.37 168.946 L 101.37 157.043 L 104.807 157.043 C 109.195 157.043 111.389 158.977 111.389 162.845 C 111.389 164.682 110.78 166.158 109.563 167.273 C 108.346 168.388 106.713 168.946 104.666 168.946 L 101.37 168.946 Z M 103.338 158.719 L 103.338 167.278 L 104.915 167.278 C 106.304 167.278 107.384 166.896 108.156 166.132 C 108.928 165.369 109.314 164.29 109.314 162.895 C 109.314 160.111 107.872 158.719 104.989 158.719 L 103.338 158.719 Z" style="fill: rgb(255, 255, 255); white-space: pre; stroke: rgb(255, 255, 255); stroke-width: 0.6px;"/>
  </g>
</svg>