<?xml version="1.0" encoding="utf-8"?>
<svg viewBox="0 0 35 35" xmlns="http://www.w3.org/2000/svg">
  <g transform="matrix(1.13979, 0, 0, 1.13979, -135.543458, -124.060783)">
    <title>To TM</title>
    <rect x="118.92" y="108.845" width="30.707" height="30.707" style="stroke-width: 4.87488px; fill: rgb(174, 0, 122);" rx="6.246" ry="6.246"/>
    <path d="M 145.97 129.724 L 143.822 129.724 C 143.822 129.724 143.542 121.444 143.601 120.563 L 143.542 120.563 C 143.42 121.255 140.754 129.724 140.754 129.724 L 138.824 129.724 C 138.824 129.724 136.144 121.407 135.992 120.563 L 136.05 120.563 C 136.113 121.675 135.652 129.724 135.652 129.724 L 133.77 129.724 L 134.324 118.448 L 137.354 118.448 L 139.496 125.131 C 139.667 125.666 139.792 126.203 139.87 126.743 L 139.913 126.743 C 140.046 126.119 140.184 125.577 140.331 125.116 L 142.475 118.448 L 145.477 118.448 L 145.97 129.724 Z" style="line-height: 25.7705px; white-space: pre; stroke: rgb(255, 255, 255); fill: rgb(255, 255, 255); stroke-width: 0.6px;"/>
    <path d="M 126.188 130.284 L 126.188 120.174 L 122.577 120.174 L 122.577 118.115 L 132.248 118.115 L 132.248 120.174 L 128.645 120.174 L 128.645 130.284 L 126.188 130.284 Z" style="fill: rgb(255, 255, 255); white-space: pre; stroke-width: 0.3px; stroke: rgb(255, 255, 255);"/>
  </g>
</svg>