<?xml version="1.0" encoding="utf-8"?>
<svg viewBox="0 0 35 35" xmlns="http://www.w3.org/2000/svg">
  <g transform="matrix(1.13979, 0, 0, 1.13979, -144.379126, -161.779098)">
    <title>To SH</title>
    <rect x="126.672" y="141.938" width="30.707" height="30.707" style="stroke-width: 4.87488px; fill: rgb(137, 13, 133);" rx="6.246" ry="6.246"/>
    <path d="M 132.067 162.641 L 132.067 160.645 C 132.247 160.808 132.461 160.954 132.709 161.085 C 132.956 161.215 133.219 161.325 133.498 161.415 C 133.776 161.504 134.054 161.573 134.332 161.622 C 134.61 161.672 134.866 161.696 135.101 161.696 C 135.919 161.696 136.529 161.56 136.93 161.288 C 137.331 161.017 137.531 160.623 137.531 160.107 C 137.531 159.83 137.464 159.589 137.33 159.386 C 137.197 159.182 137.01 158.996 136.77 158.828 C 136.53 158.659 136.248 158.497 135.924 158.343 C 135.599 158.188 135.251 158.026 134.88 157.858 C 134.482 157.646 134.111 157.432 133.768 157.215 C 133.424 156.997 133.125 156.757 132.872 156.493 C 132.619 156.229 132.42 155.932 132.275 155.6 C 132.13 155.269 132.058 154.881 132.058 154.435 C 132.058 153.887 132.182 153.41 132.431 153.005 C 132.679 152.6 133.006 152.266 133.412 152.003 C 133.818 151.74 134.28 151.544 134.798 151.416 C 135.316 151.289 135.845 151.225 136.385 151.225 C 137.613 151.225 138.507 151.364 139.069 151.64 L 139.069 153.555 C 138.404 153.077 137.547 152.838 136.5 152.838 C 136.211 152.838 135.923 152.866 135.637 152.92 C 135.351 152.974 135.095 153.064 134.868 153.189 C 134.642 153.314 134.458 153.474 134.316 153.669 C 134.174 153.865 134.103 154.101 134.103 154.378 C 134.103 154.639 134.158 154.865 134.267 155.054 C 134.376 155.245 134.536 155.419 134.745 155.576 C 134.955 155.734 135.211 155.887 135.514 156.037 C 135.817 156.186 136.168 156.347 136.566 156.521 C 136.975 156.733 137.36 156.956 137.723 157.19 C 138.086 157.423 138.405 157.681 138.681 157.964 C 138.955 158.246 139.174 158.56 139.335 158.905 C 139.496 159.25 139.576 159.642 139.576 160.082 C 139.576 160.674 139.456 161.174 139.216 161.581 C 138.976 161.989 138.653 162.321 138.247 162.576 C 137.84 162.832 137.373 163.016 136.843 163.13 C 136.315 163.244 135.756 163.301 135.167 163.301 C 134.97 163.301 134.729 163.286 134.443 163.257 C 134.156 163.227 133.863 163.183 133.563 163.126 C 133.264 163.069 132.98 163 132.713 162.918 C 132.445 162.837 132.23 162.744 132.067 162.641 Z" style="white-space: pre; stroke: rgb(255, 255, 255); fill: rgb(255, 255, 255); stroke-width: 0.6px;"/>
    <path d="M 142.263 163.376 L 142.263 151.207 L 144.72 151.207 L 144.72 155.997 L 149.535 155.997 L 149.535 151.207 L 151.992 151.207 L 151.992 163.376 L 149.535 163.376 L 149.535 158.055 L 144.72 158.055 L 144.72 163.376 L 142.263 163.376 Z" style="white-space: pre; stroke-width: 0.4px; stroke: rgb(255, 255, 255); fill: rgb(255, 255, 255);"/>
  </g>
</svg>