<?xml version="1.0" encoding="utf-8"?>
<svg viewBox="0 0 35 35" xmlns="http://www.w3.org/2000/svg">
  <g transform="matrix(1.13979, 0, 0, 1.13979, -100.771454, -83.825623)">
    <title>To DT</title>
    <rect x="88.412" y="73.545" width="30.707" height="30.707" style="stroke-width: 4.87488px; fill: rgb(0, 170, 142);" rx="6.246" ry="6.246"/>
    <path d="M 93.755 94.85 L 93.755 82.947 L 97.192 82.947 C 101.58 82.947 103.774 84.881 103.774 88.749 C 103.774 90.586 103.165 92.062 101.948 93.177 C 100.731 94.292 99.098 94.85 97.051 94.85 L 93.755 94.85 Z M 95.723 84.623 L 95.723 93.182 L 97.3 93.182 C 98.689 93.182 99.769 92.8 100.541 92.036 C 101.313 91.273 101.699 90.194 101.699 88.799 C 101.699 86.015 100.257 84.623 97.374 84.623 L 95.723 84.623 Z M 113.777 84.623 L 110.357 84.623 L 110.357 94.85 L 108.382 94.85 L 108.382 84.623 L 104.97 84.623 L 104.97 82.947 L 113.777 82.947 L 113.777 84.623 Z" style="fill: rgb(255, 255, 255); white-space: pre; stroke: rgb(255, 255, 255); stroke-width: 0.6px;"/>
  </g>
</svg>