<?xml version="1.0" encoding="utf-8"?>
<svg viewBox="0 0 35 35" xmlns="http://www.w3.org/2000/svg">
  <g transform="matrix(1.13979, 0, 0, 1.13979, -55.050721, -125.721266)">
    <title>To MG</title>
    <rect x="48.299" y="110.302" width="30.707" height="30.707" style="stroke-width: 4.87488px; fill: rgb(0, 155, 211);" rx="6.246" ry="6.246"/>
    <path d="M 63.641 131.267 L 61.493 131.267 C 61.493 131.267 61.213 122.987 61.272 122.106 L 61.213 122.106 C 61.091 122.798 58.425 131.267 58.425 131.267 L 56.495 131.267 C 56.495 131.267 53.815 122.95 53.663 122.106 L 53.721 122.106 C 53.784 123.218 53.323 131.267 53.323 131.267 L 51.441 131.267 L 51.995 119.991 L 55.025 119.991 L 57.167 126.674 C 57.338 127.209 57.463 127.746 57.541 128.286 L 57.584 128.286 C 57.717 127.662 57.855 127.12 58.002 126.659 L 60.146 119.991 L 63.148 119.991 L 63.641 131.267 Z" style="line-height: 25.7705px; white-space: pre; stroke: rgb(255, 255, 255); fill: rgb(255, 255, 255); stroke-width: 0.6px;"/>
    <path d="M 75.865 130.757 C 74.599 131.426 73.188 131.761 71.634 131.761 C 69.837 131.761 68.381 131.217 67.268 130.13 C 66.155 129.043 65.598 127.603 65.598 125.813 C 65.598 123.984 66.207 122.483 67.424 121.311 C 68.642 120.138 70.19 119.551 72.067 119.551 C 73.417 119.551 74.554 119.744 75.475 120.129 L 75.475 122.147 C 74.542 121.542 73.431 121.24 72.143 121.24 C 70.849 121.24 69.787 121.655 68.959 122.485 C 68.131 123.314 67.717 124.388 67.717 125.706 C 67.717 127.062 68.074 128.129 68.786 128.907 C 69.498 129.684 70.465 130.073 71.686 130.073 C 72.522 130.073 73.245 129.916 73.856 129.602 L 73.856 126.794 L 71.295 126.794 L 71.295 125.146 L 75.865 125.146 L 75.865 130.757 Z" style="white-space: pre; fill: rgb(255, 255, 255); stroke: rgb(255, 255, 255); stroke-width: 0.595854px;"/>
  </g>
</svg>