<?xml version="1.0" encoding="utf-8"?>
<svg viewBox="0 0 64 64" xmlns="http://www.w3.org/2000/svg">
  <path d="M 57.56 0 L 6.44 0 C 2.84 0 0 2.93 0 6.44 L 0 57.64 C 0 61.16 2.84 64 6.44 64 L 57.56 64 C 61.16 64 64 61.16 64 57.64 L 64 6.44 C 64 2.93 61.16 0 57.56 0" style="fill: rgb(6, 59, 136); fill-opacity: 1;"/>
  <path d="M 57.56 57.64 L 6.44 57.64 L 6.44 6.44 L 57.56 6.44 L 57.56 57.64 Z" style="fill: rgb(255, 255, 255); fill-opacity: 1;"/>
  <path d="M 9.37 20.75 L 16.9 20.75 L 20.66 35.64 L 20.75 35.64 L 24.76 20.75 L 32.04 20.75 L 32.04 43.25 L 27.36 43.25 L 27.44 25.93 L 27.36 25.93 L 22.76 43.25 L 18.32 43.25 L 13.97 25.93 L 13.89 25.93 L 14.05 43.25 L 9.37 43.25 L 9.37 20.75 Z" style="fill-opacity: 1;"/>
  <path d="M 44.93 39.15 C 48.44 39.15 49.78 35.64 49.78 31.96 C 49.78 28.11 48.44 24.76 44.93 24.76 C 41.5 24.76 40.16 28.11 40.16 31.96 C 40.16 35.64 41.5 39.15 44.93 39.15 M 44.93 20.33 C 52.04 20.33 55.72 24.76 55.72 31.96 C 55.72 39.15 51.95 43.59 44.93 43.59 C 37.98 43.59 34.22 39.15 34.22 31.96 C 34.22 24.76 37.9 20.33 44.93 20.33" style="fill-opacity: 1;"/>
</svg>