<?xml version="1.0" encoding="utf-8"?>
<svg viewBox="0 0 35 35" xmlns="http://www.w3.org/2000/svg">
  <g transform="matrix(1, 0, 0, 1, -550.455017, -171.703003)">
    <title>To To</title>
    <circle style="stroke-width: 2px; stroke: rgb(90, 181, 92); fill: rgb(255, 255, 255);" cx="567.955" cy="189.203" r="16.75"/>
    <path d="M 560.023 196.479 L 560.023 184.584 L 555.775 184.584 L 555.775 182.163 L 567.152 182.163 L 567.152 184.584 L 562.913 184.584 L 562.913 196.479 L 560.023 196.479 Z" style="white-space: pre;"/>
    <path d="M 568.959 196.501 L 568.959 182.185 L 574.137 182.185 C 575.439 182.185 576.385 182.313 576.976 182.57 C 577.566 182.827 578.038 183.285 578.393 183.942 C 578.747 184.6 578.924 185.352 578.924 186.198 C 578.924 187.273 578.656 188.16 578.119 188.859 C 577.581 189.559 576.777 190 575.707 190.183 C 576.24 190.547 576.679 190.947 577.025 191.384 C 577.372 191.82 577.839 192.595 578.426 193.708 L 579.913 196.501 L 576.971 196.501 L 575.193 193.386 C 574.561 192.273 574.129 191.571 573.896 191.281 C 573.663 190.992 573.416 190.793 573.156 190.686 C 572.896 190.578 572.483 190.524 571.918 190.524 L 571.419 190.524 L 571.419 196.501 L 568.959 196.501 Z M 571.419 188.239 L 573.239 188.239 C 574.419 188.239 575.157 188.18 575.45 188.063 C 575.744 187.946 575.974 187.745 576.14 187.458 C 576.306 187.171 576.389 186.813 576.389 186.384 C 576.389 185.902 576.28 185.513 576.061 185.217 C 575.842 184.92 575.534 184.733 575.135 184.655 C 574.935 184.622 574.336 184.606 573.339 184.606 L 571.419 184.606 L 571.419 188.239 Z" style="white-space: pre;"/>
  </g>
</svg>