<?xml version="1.0" encoding="utf-8"?>
<svg viewBox="380.447 148.195 65.38 39.851" xmlns="http://www.w3.org/2000/svg">
  <g transform="matrix(0.205387, 0, 0, 0.205387, 297.970249, 85.743117)">
    <title>Tsukuba Express</title>
    <rect x="434.032" y="351.517" width="244.314" height="113.272" style="stroke: rgb(255, 255, 255); fill: rgb(255, 255, 255);"/>
    <path style="stroke: rgb(1, 64, 129); fill: rgb(1, 64, 129);" d="M 499.757 463.838 L 474.717 464.008 L 475.057 398.94 L 434.347 421.936 L 434.347 389.572 C 519.116 348.939 582.424 352.88 598.028 351.927 C 602.117 351.677 606.733 351.656 612.183 351.784 C 634.373 352.306 656.501 352.734 677.79 354.605 C 631.144 357.21 565.122 361.674 499.586 388.209 L 499.757 463.838 Z"/>
    <path style="fill: rgb(1, 64, 129); stroke: rgb(1, 64, 129);" d="M 525.965 382.129 L 554.841 382.129 L 567.718 398.42 C 622.649 357.228 658.649 359.928 677.466 354.619 C 668.408 358.016 630.439 364.314 580.01 413.931 L 619.129 463.706 L 590.74 463.998 L 565.279 431.708 C 556.365 442.957 550.967 452.403 545.28 463.608 L 514.161 463.803 C 526.715 442.244 537.67 427.806 551.231 413.27 L 525.965 382.129 Z"/>
  </g>
</svg>