<?xml version="1.0" encoding="utf-8"?>
<svg viewBox="0 0 64 64" xmlns="http://www.w3.org/2000/svg">
  <g transform="matrix(1.828572, 0, 0, 1.828572, -384.559906, -487.818115)">
    <title>Yokohama Blue</title>
    <circle style="fill: rgb(0, 112, 192);" transform="matrix(1, 0, 0, 1.00001, -169.193863, -73.227943)" cx="397" cy="357.5" r="17.5"/>
    <path d="M 221.757 293.895 L 221.757 273.602 L 229.836 273.602 C 231.416 273.602 232.708 274.058 233.714 274.969 C 234.791 275.944 235.33 277.245 235.33 278.87 C 235.33 280.236 234.755 281.44 233.606 282.481 C 233.318 282.741 232.924 283.001 232.421 283.261 C 233.57 283.651 234.468 284.399 235.114 285.504 C 235.688 286.48 235.904 287.683 235.761 289.115 C 235.617 290.481 235.078 291.586 234.144 292.432 C 233.067 293.407 231.631 293.895 229.836 293.895 L 221.757 293.895 Z M 224.988 290.87 L 229.62 290.87 C 230.338 290.87 230.948 290.643 231.452 290.188 C 231.954 289.733 232.205 288.985 232.205 287.944 C 232.205 286.903 231.918 286.123 231.343 285.602 C 230.841 285.147 230.23 284.92 229.512 284.92 L 224.988 284.92 L 224.988 290.87 Z M 224.988 281.603 L 229.297 281.603 C 230.015 281.603 230.661 281.342 231.236 280.822 C 231.667 280.432 231.883 279.846 231.883 279.065 C 231.883 278.285 231.667 277.7 231.236 277.31 C 230.661 276.789 230.015 276.529 229.297 276.529 L 224.988 276.529 L 224.988 281.603 Z" style="white-space: pre; stroke: rgb(255, 255, 255); stroke-width: 1.02753px; fill: rgb(255, 255, 255);"/>
  </g>
</svg>