<?xml version="1.0" encoding="utf-8"?>
<svg viewBox="0 0 64 64" xmlns="http://www.w3.org/2000/svg">
  <g transform="matrix(1.828571, 0, 0, 1.828571, -459.600555, -487.613983)">
    <title>Yokohama Green</title>
    <circle style="fill: rgb(0, 176, 80);" transform="matrix(1, 0, 0, 1.00001, -128.155899, -73.339462)" cx="397" cy="357.5" r="17.5"/>
    <path d="M 276.783 292.043 C 274.686 293.135 272.35 293.681 269.776 293.681 C 266.799 293.681 264.388 292.795 262.544 291.022 C 260.7 289.25 259.778 286.904 259.778 283.986 C 259.778 281.005 260.787 278.558 262.804 276.647 C 264.822 274.735 267.384 273.779 270.492 273.779 C 272.73 273.779 274.611 274.093 276.137 274.719 L 276.137 278.009 C 274.592 277.025 272.753 276.532 270.618 276.532 C 268.474 276.532 266.717 277.209 265.346 278.561 C 263.974 279.912 263.288 281.662 263.288 283.811 C 263.288 286.022 263.878 287.761 265.058 289.028 C 266.237 290.295 267.838 290.929 269.86 290.929 C 271.246 290.929 272.444 290.673 273.455 290.163 L 273.455 285.584 L 269.214 285.584 L 269.214 282.898 L 276.783 282.898 L 276.783 292.043 Z" style="white-space: pre; stroke: rgb(255, 255, 255); fill: rgb(255, 255, 255);"/>
  </g>
</svg>