<?xml version="1.0" encoding="utf-8"?>
<svg viewBox="134.04 92.33 35.3 35.3" xmlns="http://www.w3.org/2000/svg">
  <g transform="matrix(1, 0, 0, 1, -6.073393, -3.09276)">
    <title>To Yu</title>
    <circle style="stroke-width: 1.3px; fill: rgb(255, 255, 255);" transform="matrix(1, 0, 0, 0.999998, -244.731613, -223.425583)" cx="402.5" cy="336.5" r="17"/>
    <path d="M 420.15 336.5 C 420.15 341.33 418.14 345.82 414.98 348.98 C 411.82 352.14 407.33 354.15 402.5 354.15 C 397.67 354.15 393.18 352.14 390.02 348.98 C 386.86 345.82 384.85 341.33 384.85 336.5 C 384.85 331.67 386.86 327.18 390.02 324.02 C 393.18 320.86 397.67 318.85 402.5 318.85 C 407.33 318.85 411.82 320.86 414.98 324.02 C 418.14 327.18 420.15 331.67 420.15 336.5 Z M 414.06 324.94 C 411.07 321.94 407.06 320.15 402.5 320.15 C 397.94 320.15 393.93 321.94 390.94 324.94 C 387.94 327.93 386.15 331.94 386.15 336.5 C 386.15 341.06 387.94 345.07 390.94 348.06 C 393.93 351.06 397.94 352.85 402.5 352.85 C 407.06 352.85 411.07 351.06 414.06 348.06 C 417.06 345.07 418.85 341.06 418.85 336.5 C 418.85 331.94 417.06 327.93 414.06 324.94 Z" style="fill: rgb(0, 101, 166);" transform="matrix(1, 0, 0, 0.9999979734420776, -244.7316131591797, -223.4255828857422)"/>
    <circle style="stroke-width: 1.3px; fill: rgb(0, 102, 166);" transform="matrix(1, 0, 0, 0.999998, -244.74321, -223.434158)" cx="402.5" cy="336.5" r="15.25"/>
    <path style="fill: rgb(255, 255, 255);" d="M 151.228 106.283 L 155.783 106.283 L 155.322 115.189 C 155.322 118.055 160.178 118.034 160.178 115.168 L 160.624 106.183 L 165.412 106.242 L 164.827 116.279 C 164.913 122.047 150.564 122.272 150.562 116.673 L 151.228 106.283 Z"/>
  </g>
</svg>